<svg xmlns="http://www.w3.org/2000/svg" xmlns:xlink="http://www.w3.org/1999/xlink" xmlns:lucid="lucid" width="740.6" height="538.67"><g transform="translate(-40 -140)" lucid:page-tab-id="0_0"><path d="M200 380h120v60H200z" stroke="#3aa6dd" fill="#3aa6dd" fill-opacity=".4"/><use xlink:href="#a" transform="matrix(1,0,0,1,205,385) translate(9.074999999999996 30.025)"/><use xlink:href="#b" transform="matrix(1,0,0,1,205,385) translate(39.074999999999996 30.025)"/><path d="M640 380h120.6v60H640z" stroke="#3aa6dd" fill="#3aa6dd" fill-opacity=".4"/><use xlink:href="#c" transform="matrix(1,0,0,1,645,385) translate(1.5999999999999943 30.025)"/><use xlink:href="#b" transform="matrix(1,0,0,1,645,385) translate(47.55 30.025)"/><path d="M60 480h120v60H60z" stroke="#de5f85" fill="#c92d39" fill-opacity=".3"/><use xlink:href="#d" transform="matrix(1,0,0,1,65,485) translate(5.074999999999996 30.025)"/><use xlink:href="#e" transform="matrix(1,0,0,1,65,485) translate(94.92500000000001 30.025)"/><path d="M199 609.33h-79V541.5" stroke="#000" stroke-width="2" fill="none"/><path d="M203 610.33h-4.03v-2H203zM121 541.53h-2v-1.03h2z"/><path d="M420 280h120v60H420z" stroke="#de5f85" fill="#c92d39" fill-opacity=".3"/><use xlink:href="#d" transform="matrix(1,0,0,1,425,285) translate(5.074999999999996 30.025)"/><use xlink:href="#f" transform="matrix(1,0,0,1,425,285) translate(94.92500000000001 30.025)"/><path d="M579 209.33h-99v69.17" stroke="#000" stroke-width="2" fill="none"/><path d="M583 210.33h-4.03v-2H583zM481 279.5h-2v-1.03h2z"/><path d="M420 480h120v60H420z" stroke="#de5f85" fill="#c92d39" fill-opacity=".3"/><use xlink:href="#d" transform="matrix(1,0,0,1,425,485) translate(5.074999999999996 30.025)"/><use xlink:href="#g" transform="matrix(1,0,0,1,425,485) translate(94.92500000000001 30.025)"/><path d="M579 609.33h-99V541.5" stroke="#000" stroke-width="2" fill="none"/><path d="M583 610.33h-4.03v-2H583zM481 541.53h-2v-1.03h2z"/><path d="M198.5 410H120v68.5" stroke="#000" stroke-width="2" fill="none"/><path d="M199.5 411h-1.03v-2h1.03zM121 479.5h-2v-1.03h2z"/><path d="M700.3 441.5V510H541.5" stroke="#000" stroke-width="2" fill="none"/><path d="M701.3 441.53h-2v-1.03h2zM541.53 511h-1.03v-2h1.03z"/><path d="M700 378.5V310H541.5" stroke="#000" stroke-width="2" fill="none"/><path d="M701 379.5h-2v-1.03h2zM541.53 311h-1.03v-2h1.03z"/><path d="M609.58 569.58c0 5.3-4.3 9.6-9.58 9.6-5.3 0-9.58-4.3-9.58-9.6s4.3-9.58 9.58-9.58c5.3 0 9.58 4.3 9.58 9.58z" stroke="#000" stroke-width="2" fill="#fff"/><path d="M600 579.17V606l20 30.67M600 606l-20 30.67m0-47.92h40" stroke="#000" stroke-width="2" fill="none"/><path d="M580 560h40v98.67h-40z" fill="none"/><use xlink:href="#h" transform="matrix(1,0,0,1,500,636.6666666666279) translate(71.55 14.6)"/><path d="M609.58 169.58c0 5.3-4.3 9.6-9.58 9.6-5.3 0-9.58-4.3-9.58-9.6s4.3-9.58 9.58-9.58c5.3 0 9.58 4.3 9.58 9.58z" stroke="#000" stroke-width="2" fill="#fff"/><path d="M600 179.17V206l20 30.67M600 206l-20 30.67m0-47.92h40" stroke="#000" stroke-width="2" fill="none"/><path d="M580 160h40v98.67h-40z" fill="none"/><use xlink:href="#i" transform="matrix(1,0,0,1,500,236.66666666662786) translate(75.5 14.4)"/><use xlink:href="#j" transform="matrix(1,0,0,1,500,236.66666666662786) translate(75.55 36)"/><path d="M418.5 510H260v-68.5" stroke="#000" stroke-width="2" fill="none"/><path d="M419.5 511h-1.03v-2h1.03zM261 441.53h-2v-1.03h2z"/><path d="M418.5 310H260v68.5" stroke="#000" stroke-width="2" fill="none"/><path d="M419.5 311h-1.03v-2h1.03zM261 379.5h-2v-1.03h2z"/><path d="M229.58 569.58c0 5.3-4.3 9.6-9.58 9.6-5.3 0-9.58-4.3-9.58-9.6s4.3-9.58 9.58-9.58c5.3 0 9.58 4.3 9.58 9.58z" stroke="#000" stroke-width="2" fill="#fff"/><path d="M220 579.17V606l20 30.67M220 606l-20 30.67m0-47.92h40" stroke="#000" stroke-width="2" fill="none"/><path d="M200 560h40v98.67h-40z" fill="none"/><g><use xlink:href="#k" transform="matrix(1,0,0,1,120,636.6666666666279) translate(79.5 14.6)"/></g><defs><path d="M33 0v-248h34V0H33" id="l"/><path d="M100-194c62-1 85 37 85 99 1 63-27 99-86 99S16-35 15-95c0-66 28-99 85-99zM99-20c44 1 53-31 53-75 0-43-8-75-51-75s-53 32-53 75 10 74 51 75" id="m"/><path d="M84 4C-5 8 30-112 23-190h32v120c0 31 7 50 39 49 72-2 45-101 50-169h31l1 190h-30c-1-10 1-25-2-33-11 22-28 36-60 37" id="n"/><g id="a"><use transform="matrix(0.05,0,0,0.05,0,0)" xlink:href="#l"/><use transform="matrix(0.05,0,0,0.05,5,0)" xlink:href="#m"/><use transform="matrix(0.05,0,0,0.05,15,0)" xlink:href="#n"/></g><path d="M30-248c118-7 216 8 213 122C240-48 200 0 122 0H30v-248zM63-27c89 8 146-16 146-99s-60-101-146-95v194" id="o"/><path d="M210-169c-67 3-38 105-44 169h-31v-121c0-29-5-50-35-48C34-165 62-65 56 0H25l-1-190h30c1 10-1 24 2 32 10-44 99-50 107 0 11-21 27-35 58-36 85-2 47 119 55 194h-31v-121c0-29-5-49-35-48" id="p"/><path d="M141-36C126-15 110 5 73 4 37 3 15-17 15-53c-1-64 63-63 125-63 3-35-9-54-41-54-24 1-41 7-42 31l-33-3c5-37 33-52 76-52 45 0 72 20 72 64v82c-1 20 7 32 28 27v20c-31 9-61-2-59-35zM48-53c0 20 12 33 32 33 41-3 63-29 60-74-43 2-92-5-92 41" id="q"/><path d="M24-231v-30h32v30H24zM24 0v-190h32V0H24" id="r"/><path d="M117-194c89-4 53 116 60 194h-32v-121c0-31-8-49-39-48C34-167 62-67 57 0H25l-1-190h30c1 10-1 24 2 32 11-22 29-35 61-36" id="s"/><g id="b"><use transform="matrix(0.05,0,0,0.05,0,0)" xlink:href="#o"/><use transform="matrix(0.05,0,0,0.05,12.950000000000001,0)" xlink:href="#m"/><use transform="matrix(0.05,0,0,0.05,22.950000000000003,0)" xlink:href="#p"/><use transform="matrix(0.05,0,0,0.05,37.900000000000006,0)" xlink:href="#q"/><use transform="matrix(0.05,0,0,0.05,47.900000000000006,0)" xlink:href="#r"/><use transform="matrix(0.05,0,0,0.05,51.85,0)" xlink:href="#s"/></g><path d="M30-248c87 1 191-15 191 75 0 78-77 80-158 76V0H30v-248zm33 125c57 0 124 11 124-50 0-59-68-47-124-48v98" id="t"/><path d="M59-47c-2 24 18 29 38 22v24C64 9 27 4 27-40v-127H5v-23h24l9-43h21v43h35v23H59v120" id="u"/><g id="c"><use transform="matrix(0.05,0,0,0.05,0,0)" xlink:href="#t"/><use transform="matrix(0.05,0,0,0.05,12,0)" xlink:href="#q"/><use transform="matrix(0.05,0,0,0.05,22,0)" xlink:href="#r"/><use transform="matrix(0.05,0,0,0.05,25.950000000000003,0)" xlink:href="#s"/><use transform="matrix(0.05,0,0,0.05,35.95,0)" xlink:href="#u"/></g><path d="M114-163C36-179 61-72 57 0H25l-1-190h30c1 12-1 29 2 39 6-27 23-49 58-41v29" id="v"/><path d="M96-169c-40 0-48 33-48 73s9 75 48 75c24 0 41-14 43-38l32 2c-6 37-31 61-74 61-59 0-76-41-82-99-10-93 101-131 147-64 4 7 5 14 7 22l-32 3c-4-21-16-35-41-35" id="w"/><path d="M115-194c55 1 70 41 70 98S169 2 115 4C84 4 66-9 55-30l1 105H24l-1-265h31l2 30c10-21 28-34 59-34zm-8 174c40 0 45-34 45-75s-6-73-45-74c-42 0-51 32-51 76 0 43 10 73 51 73" id="x"/><g id="d"><use transform="matrix(0.05,0,0,0.05,0,0)" xlink:href="#t"/><use transform="matrix(0.05,0,0,0.05,12,0)" xlink:href="#q"/><use transform="matrix(0.05,0,0,0.05,22,0)" xlink:href="#v"/><use transform="matrix(0.05,0,0,0.05,27.950000000000003,0)" xlink:href="#u"/><use transform="matrix(0.05,0,0,0.05,32.95,0)" xlink:href="#r"/><use transform="matrix(0.05,0,0,0.05,36.900000000000006,0)" xlink:href="#w"/><use transform="matrix(0.05,0,0,0.05,45.900000000000006,0)" xlink:href="#r"/><use transform="matrix(0.05,0,0,0.05,49.85000000000001,0)" xlink:href="#x"/><use transform="matrix(0.05,0,0,0.05,59.85,0)" xlink:href="#q"/><use transform="matrix(0.05,0,0,0.05,69.85000000000001,0)" xlink:href="#s"/><use transform="matrix(0.05,0,0,0.05,79.85000000000001,0)" xlink:href="#u"/></g><path d="M27 0v-27h64v-190l-56 39v-29l58-41h29v221h61V0H27" id="y"/><use transform="matrix(0.05,0,0,0.05,0,0)" xlink:href="#y" id="e"/><path d="M101-251c82-7 93 87 43 132L82-64C71-53 59-42 53-27h129V0H18c2-99 128-94 128-182 0-28-16-43-45-43s-46 15-49 41l-32-3c6-41 34-60 81-64" id="z"/><use transform="matrix(0.05,0,0,0.05,0,0)" xlink:href="#z" id="f"/><path d="M126-127c33 6 58 20 58 59 0 88-139 92-164 29-3-8-5-16-6-25l32-3c6 27 21 44 54 44 32 0 52-15 52-46 0-38-36-46-79-43v-28c39 1 72-4 72-42 0-27-17-43-46-43-28 0-47 15-49 41l-32-3c6-42 35-63 81-64 48-1 79 21 79 65 0 36-21 52-52 59" id="A"/><use transform="matrix(0.05,0,0,0.05,0,0)" xlink:href="#A" id="g"/><path d="M100-194c63 0 86 42 84 106H49c0 40 14 67 53 68 26 1 43-12 49-29l28 8c-11 28-37 45-77 45C44 4 14-33 15-96c1-61 26-98 85-98zm52 81c6-60-76-77-97-28-3 7-6 17-6 28h103" id="B"/><g id="h"><use transform="matrix(0.05,0,0,0.05,0,0)" xlink:href="#t"/><use transform="matrix(0.05,0,0,0.05,12,0)" xlink:href="#q"/><use transform="matrix(0.05,0,0,0.05,22,0)" xlink:href="#r"/><use transform="matrix(0.05,0,0,0.05,25.950000000000003,0)" xlink:href="#s"/><use transform="matrix(0.05,0,0,0.05,35.95,0)" xlink:href="#u"/><use transform="matrix(0.05,0,0,0.05,40.95,0)" xlink:href="#B"/><use transform="matrix(0.05,0,0,0.05,50.95,0)" xlink:href="#v"/></g><path d="M106-169C34-169 62-67 57 0H25v-261h32l-1 103c12-21 28-36 61-36 89 0 53 116 60 194h-32v-121c2-32-8-49-39-48" id="C"/><path d="M135-143c-3-34-86-38-87 0 15 53 115 12 119 90S17 21 10-45l28-5c4 36 97 45 98 0-10-56-113-15-118-90-4-57 82-63 122-42 12 7 21 19 24 35" id="D"/><g id="i"><use transform="matrix(0.05,0,0,0.05,0,0)" xlink:href="#C"/><use transform="matrix(0.05,0,0,0.05,10,0)" xlink:href="#m"/><use transform="matrix(0.05,0,0,0.05,20,0)" xlink:href="#n"/><use transform="matrix(0.05,0,0,0.05,30,0)" xlink:href="#D"/><use transform="matrix(0.05,0,0,0.05,39,0)" xlink:href="#B"/></g><path d="M206 0h-36l-40-164L89 0H53L-1-190h32L70-26l43-164h34l41 164 42-164h31" id="E"/><g id="j"><use transform="matrix(0.05,0,0,0.05,0,0)" xlink:href="#m"/><use transform="matrix(0.05,0,0,0.05,10,0)" xlink:href="#E"/><use transform="matrix(0.05,0,0,0.05,22.950000000000003,0)" xlink:href="#s"/><use transform="matrix(0.05,0,0,0.05,32.95,0)" xlink:href="#B"/><use transform="matrix(0.05,0,0,0.05,42.95,0)" xlink:href="#v"/></g><path d="M160-131c35 5 61 23 61 61C221 17 115-2 30 0v-248c76 3 177-17 177 60 0 33-19 50-47 57zm-97-11c50-1 110 9 110-42 0-47-63-36-110-37v79zm0 115c55-2 124 14 124-45 0-56-70-42-124-44v89" id="F"/><path d="M143 0L79-87 56-68V0H24v-261h32v163l83-92h37l-77 82L181 0h-38" id="G"/><g id="k"><use transform="matrix(0.05,0,0,0.05,0,0)" xlink:href="#F"/><use transform="matrix(0.05,0,0,0.05,12,0)" xlink:href="#q"/><use transform="matrix(0.05,0,0,0.05,22,0)" xlink:href="#s"/><use transform="matrix(0.05,0,0,0.05,32,0)" xlink:href="#G"/></g></defs></g></svg>