<svg xmlns="http://www.w3.org/2000/svg" xmlns:xlink="http://www.w3.org/1999/xlink" xmlns:lucid="lucid" width="1442.17" height="1154.91"><g transform="translate(1474.416666666666 -226.54373378794241)" lucid:page-tab-id="0_0"><path d="M-1453.92 436.96h346.66v91.6h-346.66zM-1107.26 436.96h103v91.6h-103zM-1004.26 436.96h103v91.6h-103zM-901.26 436.96h101v91.6h-101zM-800.26 436.96h103v91.6h-103zM-697.26 436.96h101v91.6h-101zM-596.26 436.96h102v91.6h-102zM-494.26 436.96h102v91.6h-102zM-392.26 436.96h102v91.6h-102zM-290.26 436.96h103v91.6h-103zM-187.26 436.96h100v91.6h-100z" fill="#6b778c"/><path d="M-1453.92 528.56h346.66v93.2h-346.66zM-1107.26 528.56h103v93.2h-103zM-1004.26 528.56h103v93.2h-103zM-901.26 528.56h101v93.2h-101zM-800.26 528.56h103v93.2h-103zM-697.26 528.56h101v93.2h-101zM-596.26 528.56h102v93.2h-102zM-494.26 528.56h102v93.2h-102zM-392.26 528.56h102v93.2h-102zM-290.26 528.56h103v93.2h-103zM-187.26 528.56h100v93.2h-100zM-1453.92 621.76h346.66v93.2h-346.66z" fill="#fff"/><path d="M-1107.26 621.76h103v93.2h-103zM-1004.26 621.76h103v93.2h-103zM-901.26 621.76h101v93.2h-101zM-800.26 621.76h103v93.2h-103zM-697.26 621.76h101v93.2h-101zM-596.26 621.76h102v93.2h-102zM-494.26 621.76h102v93.2h-102zM-392.26 621.76h102v93.2h-102zM-290.26 621.76h103v93.2h-103zM-187.26 621.76h100v93.2h-100z" fill="#e5e5e5"/><path d="M-1453.92 714.96h346.66v91.6h-346.66zM-1107.26 714.96h103v91.6h-103zM-1004.26 714.96h103v91.6h-103zM-901.26 714.96h101v91.6h-101zM-800.26 714.96h103v91.6h-103zM-697.26 714.96h101v91.6h-101zM-596.26 714.96h102v91.6h-102zM-494.26 714.96h102v91.6h-102zM-392.26 714.96h102v91.6h-102zM-290.26 714.96h103v91.6h-103zM-187.26 714.96h100v91.6h-100z" fill="#fff"/><path d="M-1453.92 806.56h346.66v93.2h-346.66z" fill="#fff"/><path d="M-1107.26 806.56h103v93.2h-103zM-1004.26 806.56h103v93.2h-103zM-901.26 806.56h101v93.2h-101zM-800.26 806.56h103v93.2h-103zM-697.26 806.56h101v93.2h-101zM-596.26 806.56h102v93.2h-102zM-494.26 806.56h102v93.2h-102zM-392.26 806.56h102v93.2h-102zM-290.26 806.56h103v93.2h-103zM-187.26 806.56h100v93.2h-100z" fill="#e5e5e5"/><path d="M-1453.92 899.76h346.66v93.2h-346.66zM-1107.26 899.76h103v93.2h-103zM-1004.26 899.76h103v93.2h-103zM-901.26 899.76h101v93.2h-101zM-800.26 899.76h103v93.2h-103zM-697.26 899.76h101v93.2h-101zM-596.26 899.76h102v93.2h-102zM-494.26 899.76h102v93.2h-102zM-392.26 899.76h102v93.2h-102zM-290.26 899.76h103v93.2h-103zM-187.26 899.76h100v93.2h-100zM-1453.92 992.96h346.66v91.6h-346.66z" fill="#fff"/><path d="M-1107.26 992.96h103v91.6h-103zM-1004.26 992.96h103v91.6h-103zM-901.26 992.96h101v91.6h-101zM-800.26 992.96h103v91.6h-103zM-697.26 992.96h101v91.6h-101zM-596.26 992.96h102v91.6h-102zM-494.26 992.96h102v91.6h-102zM-392.26 992.96h102v91.6h-102zM-290.26 992.96h103v91.6h-103zM-187.26 992.96h100v91.6h-100z" fill="#e5e5e5"/><path d="M-1453.92 1084.56h346.66v93.2h-346.66zM-1107.26 1084.56h103v93.2h-103zM-1004.26 1084.56h103v93.2h-103zM-901.26 1084.56h101v93.2h-101zM-800.26 1084.56h103v93.2h-103zM-697.26 1084.56h101v93.2h-101zM-596.26 1084.56h102v93.2h-102zM-494.26 1084.56h102v93.2h-102zM-392.26 1084.56h102v93.2h-102zM-290.26 1084.56h103v93.2h-103zM-187.26 1084.56h100v93.2h-100zM-1453.92 1177.76h346.66v91.6h-346.66z" fill="#fff"/><path d="M-1107.26 1177.76h103v91.6h-103zM-1004.26 1177.76h103v91.6h-103zM-901.26 1177.76h101v91.6h-101zM-800.26 1177.76h103v91.6h-103zM-697.26 1177.76h101v91.6h-101zM-596.26 1177.76h102v91.6h-102zM-494.26 1177.76h102v91.6h-102zM-392.26 1177.76h102v91.6h-102zM-290.26 1177.76h103v91.6h-103zM-187.26 1177.76h100v91.6h-100z" fill="#e5e5e5"/><path d="M-1453.92 1269.36h346.66v91.6h-346.66zM-1107.26 1269.36h103v91.6h-103zM-1004.26 1269.36h103v91.6h-103zM-901.26 1269.36h101v91.6h-101zM-800.26 1269.36h103v91.6h-103zM-697.26 1269.36h101v91.6h-101zM-596.26 1269.36h102v91.6h-102zM-494.26 1269.36h102v91.6h-102zM-392.26 1269.36h102v91.6h-102zM-290.26 1269.36h103v91.6h-103zM-187.26 1269.36h100v91.6h-100z" fill="#fff"/><path d="M-1453.92 436.96v91.6M-87.26 436.96v91.6M-1453.92 528.56v93.2M-87.26 528.56v93.2M-1453.92 621.76v93.2M-87.26 621.76v93.2M-1453.92 714.96v91.6M-87.26 714.96v91.6M-1453.92 806.56v93.2M-87.26 806.56v93.2M-1453.92 899.76v93.2M-87.26 899.76v93.2M-1453.92 992.96v91.6M-87.26 992.96v91.6M-1453.92 1084.56v93.2M-87.26 1084.56v93.2M-1453.92 1177.76v91.6M-87.26 1177.76v91.6M-1453.92 1269.36v91.6M-87.26 1269.36v91.6M-1453.92 436.96h346.66M-1107.26 436.96h103M-1004.26 436.96h103M-901.26 436.96h101M-800.26 436.96h103M-697.26 436.96h101M-596.26 436.96h102M-494.26 436.96h102M-392.26 436.96h102M-290.26 436.96h103M-187.26 436.96h100M-1453.92 1360.96h346.66M-1107.26 1360.96h103M-1004.26 1360.96h103M-901.26 1360.96h101M-800.26 1360.96h103M-697.26 1360.96h101M-596.26 1360.96h102M-494.26 1360.96h102M-392.26 1360.96h102M-290.26 1360.96h103M-187.26 1360.96h100" stroke="#333" fill="none"/><use xlink:href="#a" transform="matrix(1,0,0,1,-1102.2606837606832,441.9562662120576) translate(40.32716049382716 45.44444444444444)"/><use xlink:href="#b" transform="matrix(1,0,0,1,-999.2606837606832,441.9562662120576) translate(40.32716049382716 45.44444444444444)"/><use xlink:href="#c" transform="matrix(1,0,0,1,-896.2606837606832,441.9562662120576) translate(39.32716049382716 45.44444444444444)"/><use xlink:href="#d" transform="matrix(1,0,0,1,-795.2606837606832,441.9562662120576) translate(40.32716049382716 45.44444444444444)"/><use xlink:href="#e" transform="matrix(1,0,0,1,-692.2606837606832,441.9562662120576) translate(39.32716049382716 45.44444444444444)"/><use xlink:href="#f" transform="matrix(1,0,0,1,-591.2606837606832,441.9562662120576) translate(39.82716049382716 45.44444444444444)"/><use xlink:href="#g" transform="matrix(1,0,0,1,-489.26068376068315,441.9562662120576) translate(39.82716049382716 45.44444444444444)"/><use xlink:href="#h" transform="matrix(1,0,0,1,-387.26068376068315,441.9562662120576) translate(36.74074074074074 45.44444444444444)"/><use xlink:href="#i" transform="matrix(1,0,0,1,-387.26068376068315,441.9562662120576) translate(42.91358024691358 45.44444444444444)"/><use xlink:href="#j" transform="matrix(1,0,0,1,-285.26068376068315,441.9562662120576) translate(40.32716049382716 45.44444444444444)"/><use xlink:href="#k" transform="matrix(1,0,0,1,-182.26068376068315,441.9562662120576) translate(32.65432098765432 45.44444444444444)"/><use xlink:href="#l" transform="matrix(1,0,0,1,-1448.916666666666,533.5562662120576) translate(107.54320987654323 21.377777777777784)"/><use xlink:href="#m" transform="matrix(1,0,0,1,-1448.916666666666,533.5562662120576) translate(161.74074074074076 21.377777777777784)"/><use xlink:href="#n" transform="matrix(1,0,0,1,-1448.916666666666,533.5562662120576) translate(99.4567901234568 48.04444444444445)"/><use xlink:href="#o" transform="matrix(1,0,0,1,-1448.916666666666,533.5562662120576) translate(181.98765432098764 48.04444444444445)"/><use xlink:href="#p" transform="matrix(1,0,0,1,-1448.916666666666,533.5562662120576) translate(206.679012345679 48.04444444444445)"/><use xlink:href="#q" transform="matrix(1,0,0,1,-1448.916666666666,533.5562662120576) translate(104.39506172839506 74.71111111111111)"/><use xlink:href="#r" transform="matrix(1,0,0,1,-1448.916666666666,533.5562662120576) translate(141.4320987654321 74.71111111111111)"/><use xlink:href="#s" transform="matrix(1,0,0,1,-1448.916666666666,626.7562662120577) translate(113.59259259259261 21.377777777777784)"/><use xlink:href="#t" transform="matrix(1,0,0,1,-1448.916666666666,626.7562662120577) translate(155.5679012345679 21.377777777777784)"/><use xlink:href="#u" transform="matrix(1,0,0,1,-1448.916666666666,626.7562662120577) translate(103.12962962962965 48.04444444444445)"/><use xlink:href="#o" transform="matrix(1,0,0,1,-1448.916666666666,626.7562662120577) translate(178.31481481481484 48.04444444444445)"/><use xlink:href="#v" transform="matrix(1,0,0,1,-1448.916666666666,626.7562662120577) translate(203.00617283950618 48.04444444444445)"/><use xlink:href="#w" transform="matrix(1,0,0,1,-1448.916666666666,626.7562662120577) translate(40.25925925925925 74.71111111111111)"/><use xlink:href="#x" transform="matrix(1,0,0,1,-1448.916666666666,626.7562662120577) translate(121.61728395061728 74.71111111111111)"/><use xlink:href="#y" transform="matrix(1,0,0,1,-1448.916666666666,626.7562662120577) translate(163.59259259259258 74.71111111111111)"/><use xlink:href="#z" transform="matrix(1,0,0,1,-1448.916666666666,626.7562662120577) translate(188.28395061728395 74.71111111111111)"/><use xlink:href="#A" transform="matrix(1,0,0,1,-1448.916666666666,626.7562662120577) translate(240.01234567901236 74.71111111111111)"/><use xlink:href="#B" transform="matrix(1,0,0,1,-1448.916666666666,626.7562662120577) translate(264.7037037037037 74.71111111111111)"/><use xlink:href="#C" transform="matrix(1,0,0,1,-1448.916666666666,719.9562662120576) translate(108.71604938271606 33.71111111111111)"/><use xlink:href="#t" transform="matrix(1,0,0,1,-1448.916666666666,719.9562662120576) translate(160.44444444444446 33.71111111111111)"/><use xlink:href="#D" transform="matrix(1,0,0,1,-1448.916666666666,719.9562662120576) translate(97.63580246913581 60.37777777777778)"/><use xlink:href="#o" transform="matrix(1,0,0,1,-1448.916666666666,719.9562662120576) translate(182.6358024691358 60.37777777777778)"/><use xlink:href="#E" transform="matrix(1,0,0,1,-1448.916666666666,719.9562662120576) translate(207.32716049382717 60.37777777777778)"/><use xlink:href="#F" transform="matrix(1,0,0,1,-1448.916666666666,811.5562662120576) translate(120.50617283950619 21.377777777777784)"/><use xlink:href="#G" transform="matrix(1,0,0,1,-1448.916666666666,811.5562662120576) translate(156.12345679012347 21.377777777777784)"/><use xlink:href="#u" transform="matrix(1,0,0,1,-1448.916666666666,811.5562662120576) translate(16.833333333333353 48.04444444444445)"/><use xlink:href="#o" transform="matrix(1,0,0,1,-1448.916666666666,811.5562662120576) translate(92.01851851851853 48.04444444444445)"/><use xlink:href="#H" transform="matrix(1,0,0,1,-1448.916666666666,811.5562662120576) translate(116.70987654320989 48.04444444444445)"/><use xlink:href="#I" transform="matrix(1,0,0,1,-1448.916666666666,811.5562662120576) translate(153.7469135802469 48.04444444444445)"/><use xlink:href="#J" transform="matrix(1,0,0,1,-1448.916666666666,811.5562662120576) translate(235.10493827160494 48.04444444444445)"/><use xlink:href="#K" transform="matrix(1,0,0,1,-1448.916666666666,811.5562662120576) translate(301.64814814814815 48.04444444444445)"/><use xlink:href="#L" transform="matrix(1,0,0,1,-1448.916666666666,811.5562662120576) translate(107.29629629629632 74.71111111111111)"/><use xlink:href="#A" transform="matrix(1,0,0,1,-1448.916666666666,811.5562662120576) translate(172.97530864197532 74.71111111111111)"/><use xlink:href="#M" transform="matrix(1,0,0,1,-1448.916666666666,811.5562662120576) translate(197.66666666666669 74.71111111111111)"/><use xlink:href="#F" transform="matrix(1,0,0,1,-1448.916666666666,904.7562662120575) translate(120.9382716049383 34.71111111111111)"/><use xlink:href="#N" transform="matrix(1,0,0,1,-1448.916666666666,904.7562662120575) translate(156.55555555555557 34.71111111111111)"/><use xlink:href="#O" transform="matrix(1,0,0,1,-1448.916666666666,904.7562662120575) translate(27.820987654320998 61.37777777777778)"/><use xlink:href="#P" transform="matrix(1,0,0,1,-1448.916666666666,904.7562662120575) translate(116.5246913580247 61.37777777777778)"/><use xlink:href="#y" transform="matrix(1,0,0,1,-1448.916666666666,904.7562662120575) translate(182.2037037037037 61.37777777777778)"/><use xlink:href="#Q" transform="matrix(1,0,0,1,-1448.916666666666,904.7562662120575) translate(206.89506172839506 61.37777777777778)"/><use xlink:href="#R" transform="matrix(1,0,0,1,-1448.916666666666,904.7562662120575) translate(253.7469135802469 61.37777777777778)"/><use xlink:href="#S" transform="matrix(1,0,0,1,-1448.916666666666,904.7562662120575) translate(277.1419753086419 61.37777777777778)"/><use xlink:href="#T" transform="matrix(1,0,0,1,-1448.916666666666,997.9562662120576) translate(113.00617283950618 33.71111111111111)"/><use xlink:href="#U" transform="matrix(1,0,0,1,-1448.916666666666,997.9562662120576) translate(167.32716049382717 33.71111111111111)"/><use xlink:href="#V" transform="matrix(1,0,0,1,-1448.916666666666,997.9562662120576) translate(97.01851851851852 60.37777777777778)"/><use xlink:href="#W" transform="matrix(1,0,0,1,-1448.916666666666,997.9562662120576) translate(184.54938271604937 60.37777777777778)"/><use xlink:href="#X" transform="matrix(1,0,0,1,-1448.916666666666,997.9562662120576) translate(207.94444444444446 60.37777777777778)"/><use xlink:href="#F" transform="matrix(1,0,0,1,-1448.916666666666,1089.5562662120574) translate(130.35185185185185 21.377777777777784)"/><use xlink:href="#Y" transform="matrix(1,0,0,1,-1448.916666666666,1089.5562662120574) translate(165.96913580246914 21.377777777777784)"/><use xlink:href="#O" transform="matrix(1,0,0,1,-1448.916666666666,1089.5562662120574) translate(15.66049382716049 48.04444444444445)"/><use xlink:href="#Z" transform="matrix(1,0,0,1,-1448.916666666666,1089.5562662120574) translate(104.36419753086419 48.04444444444445)"/><use xlink:href="#y" transform="matrix(1,0,0,1,-1448.916666666666,1089.5562662120574) translate(151.21604938271605 48.04444444444445)"/><use xlink:href="#aa" transform="matrix(1,0,0,1,-1448.916666666666,1089.5562662120574) translate(175.90740740740742 48.04444444444445)"/><use xlink:href="#R" transform="matrix(1,0,0,1,-1448.916666666666,1089.5562662120574) translate(226.40123456790124 48.04444444444445)"/><use xlink:href="#ab" transform="matrix(1,0,0,1,-1448.916666666666,1089.5562662120574) translate(249.7962962962963 48.04444444444445)"/><use xlink:href="#ac" transform="matrix(1,0,0,1,-1448.916666666666,1089.5562662120574) translate(135.2283950617284 74.71111111111111)"/><use xlink:href="#ad" transform="matrix(1,0,0,1,-1448.916666666666,1089.5562662120574) translate(169.73456790123458 74.71111111111111)"/><use xlink:href="#F" transform="matrix(1,0,0,1,-1448.916666666666,1182.7562662120577) translate(131.6172839506173 47.044444444444444)"/><use xlink:href="#ae" transform="matrix(1,0,0,1,-1448.916666666666,1182.7562662120577) translate(167.23456790123458 47.044444444444444)"/><use xlink:href="#af" transform="matrix(1,0,0,1,-1448.916666666666,1274.3562662120576) translate(121.12345679012347 33.71111111111111)"/><use xlink:href="#ag" transform="matrix(1,0,0,1,-1448.916666666666,1274.3562662120576) translate(153.03703703703704 33.71111111111111)"/><use xlink:href="#V" transform="matrix(1,0,0,1,-1448.916666666666,1274.3562662120576) translate(90.84567901234568 60.37777777777778)"/><use xlink:href="#W" transform="matrix(1,0,0,1,-1448.916666666666,1274.3562662120576) translate(178.37654320987656 60.37777777777778)"/><use xlink:href="#ah" transform="matrix(1,0,0,1,-1448.916666666666,1274.3562662120576) translate(201.7716049382716 60.37777777777778)"/><path d="M-1106.25 534.32a6 6 0 0 1 6-6h498a6 6 0 0 1 6 6v816.2a6 6 0 0 1-6 6h-498a6 6 0 0 1-6-6z" stroke="#000" stroke-opacity="0" fill="#edf5ff"/><path d="M-596.25 533.96a6 6 0 0 1 6-6h90a6 6 0 0 1 6 6v816.2a6 6 0 0 1-6 6h-90a6 6 0 0 1-6-6z" stroke="#000" stroke-opacity="0" fill="#fff3d9"/><path d="M-494.25 534.32a6 6 0 0 1 6-6h192a6 6 0 0 1 6 6v816.2a6 6 0 0 1-6 6h-192a6 6 0 0 1-6-6z" stroke="#000" stroke-opacity="0" fill="#f2f2ff"/><path d="M-291.26 533.96a6 6 0 0 1 6-6h225a6 6 0 0 1 6 6v816.2a6 6 0 0 1-6 6h-225a6 6 0 0 1-6-6z" stroke="#000" stroke-opacity="0" fill="#e3fae3"/><path d="M-1106.25 561.08a6 6 0 0 1 6-6h1040a6 6 0 0 1 6 6v19.1a6 6 0 0 1-6 6h-1040a6 6 0 0 1-6-6zM-1004.25 652.85a6 6 0 0 1 6-6h192a6 6 0 0 1 6 6v19.1a6 6 0 0 1-6 6h-192a6 6 0 0 1-6-6zM-902.25 738.86a6 6 0 0 1 6-6h192a6 6 0 0 1 6 6v19.1a6 6 0 0 1-6 6h-192a6 6 0 0 1-6-6zM-698.25 844.5a6 6 0 0 1 6-6h192a6 6 0 0 1 6 6v19.12a6 6 0 0 1-6 6h-192a6 6 0 0 1-6-6zM-596.25 932.86a6 6 0 0 1 6-6h293a6 6 0 0 1 6 6v19.1a6 6 0 0 1-6 6h-293a6 6 0 0 1-6-6zM-188.25 1301.3a6 6 0 0 1 6-6h122a6 6 0 0 1 6 6v19.12a6 6 0 0 1-6 6h-122a6 6 0 0 1-6-6z" stroke="#3a414a" fill="#fff"/><path d="M-423.75 371.86h-54.12" stroke="#000" fill="none"/><path d="M-423.25 372.36h-.5v-1h.5z" stroke="#000" stroke-width=".05"/><path d="M-492.63 371.86l14.26-4.64v9.27z" stroke="#000" fill="#fff"/><path d="M-361.75 371.86H-306.63" stroke="#000" fill="none"/><path d="M-361.74 372.36h-.5v-1h.5z" stroke="#000" stroke-width=".05"/><path d="M-291.87 371.86l-14.26 4.63v-9.28z" stroke="#000" fill="#fff"/><path d="M-423.25 349.62a6 6 0 0 1 6-6h49a6 6 0 0 1 6 6v48a6 6 0 0 1-6 6h-49a6 6 0 0 1-6-6z" stroke="#000" stroke-opacity="0" fill="#fbf0ff"/><use xlink:href="#ai" transform="matrix(1,0,0,1,-418.25,348.61986640789394) translate(4.512345679012348 30.27777777777778)"/><path d="M-290.25 351.5v60M-290.25 351.53v-.5M-290.25 411.5v.5M-215.42 371.86h-58.45M-215.43 371.86h.5" stroke="#000" fill="none"/><path d="M-288.63 371.86l14.26-4.64v9.27z" stroke="#000" fill="#fff"/><path d="M-107.42 371.86h36.8M-107.4 371.86h-.52" stroke="#000" fill="none"/><path d="M-55.87 371.86l-14.26 4.63v-9.28z" stroke="#000" fill="#fff"/><path d="M-238.92 349.62a6 6 0 0 1 6-6h119.67a6 6 0 0 1 6 6v51.33a6 6 0 0 1-6 6h-119.67a6 6 0 0 1-6-6z" stroke="#000" stroke-opacity="0" fill="#e3fae3"/><use xlink:href="#aj" transform="matrix(1,0,0,1,-233.91666666666697,348.6198664078939) translate(21.555555555555557 31.27777777777778)"/><path d="M-1453.92 621.2H-87.26" stroke="#000" fill="none"/><path d="M-1453.9 621.7h-.52v-1h.52zM-86.76 621.7h-.5v-1h.5z" stroke="#000" stroke-width=".05"/><path d="M-1453.92 713.13l1366.16-1.44" stroke="#000" fill="none"/><path d="M-1453.9 713.63h-.52v-1h.52z" stroke="#000" stroke-width=".05"/><path d="M-87.77 711.7h.5M-1453.92 806.33H-87.76" stroke="#000" fill="none"/><path d="M-1453.9 806.83h-.52v-1h.52z" stroke="#000" stroke-width=".05"/><path d="M-87.78 806.33h.52M-1453.92 900.65H-87.76" stroke="#000" fill="none"/><path d="M-1453.9 901.15h-.52v-1h.52z" stroke="#000" stroke-width=".05"/><path d="M-87.78 900.65h.52M-1453.92 992.98H-87.26" stroke="#000" fill="none"/><path d="M-1453.9 993.48h-.52v-1h.52zM-86.76 993.48h-.5v-1h.5z" stroke="#000" stroke-width=".05"/><path d="M-1453.92 1083.24H-87.76" stroke="#000" fill="none"/><path d="M-1453.9 1083.74h-.52v-1h.52z" stroke="#000" stroke-width=".05"/><path d="M-87.78 1083.24h.52M-1453.92 1175.35l1367.16-3.83" stroke="#000" fill="none"/><path d="M-1453.9 1175.85h-.52v-1h.52z" stroke="#000" stroke-width=".05"/><path d="M-86.77 1171.52h.5M-1453.92 1270.27H-87.26" stroke="#000" fill="none"/><path d="M-1453.9 1270.77h-.52v-1h.52zM-86.76 1270.77h-.5v-1h.5z" stroke="#000" stroke-width=".05"/><path d="M-1454.42 438.38v918.86" stroke="#000" fill="none"/><path d="M-1453.92 436.96h-.5v1.43h-.5v-3.52h1z" stroke="#000" stroke-width=".05"/><path d="M-1454.42 1357.23v.5M-1106.25 436.96v919.88" stroke="#000" fill="none"/><path d="M-1105.75 436.97h-1v-.5h1z" stroke="#000" stroke-width=".05"/><path d="M-1106.25 1356.83v.5M-1004.25 436.96v9.9m0 9.88v19.78m0 9.9v19.77m0 9.88v19.78m0 9.9v19.77m0 9.9v19.77m0 9.9v19.76m0 9.9v19.77m0 9.9v19.78m0 9.9v19.77m0 9.9v19.77m0 9.9v19.77m0 9.9v19.78m0 9.9v19.77m0 9.9v19.77m0 9.9v19.77m0 9.88v19.78m0 9.9v19.77m0 9.9v19.77m0 9.9v19.77m0 9.9v19.77m0 9.9v19.77m0 9.9v19.78m0 9.9v19.77m0 9.9v19.77m0 9.9v19.77m0 9.88v19.78m0 9.9v19.77m0 9.9v19.77m0 9.9v19.77m0 9.9v19.77m0 9.9v9.88" stroke="#000" fill="none"/><path d="M-1003.75 436.97h-1v-.5h1z" stroke="#000" stroke-width=".05"/><path d="M-1004.25 1356.7v.52M-901.24 436.96v9.9m0 9.87v19.78m0 9.9v19.78m0 9.9v19.76m0 9.9v19.77m0 9.9v19.77m0 9.9v19.77m0 9.9v19.77m0 9.9v19.77m0 9.9v19.77m0 9.9v19.76m0 9.9v19.77m0 9.9v19.77m0 9.9v19.76m0 9.9v19.77m0 9.9v19.77m0 9.88v19.78m0 9.9v19.77m0 9.9v19.76m0 9.9v19.77m0 9.9v19.77m0 9.88v19.78m0 9.9v19.77m0 9.9v19.76m0 9.9v19.77m0 9.9v19.77m0 9.88v19.78m0 9.9v19.77m0 9.9v19.76m0 9.88v19.78m0 9.9v19.77m0 9.88v9.9" stroke="#000" fill="none"/><path d="M-900.74 436.97h-1v-.5h1z" stroke="#000" stroke-width=".05"/><path d="M-901.24 1356.6v.5M-800.25 436.96v9.88m0 9.9v19.77m0 9.9v19.77m0 9.9v19.76m0 9.9v19.76m0 9.88v19.77m0 9.9v19.77m0 9.88v19.78m0 9.9v19.76m0 9.9v19.76m0 9.9v19.77m0 9.88v19.78m0 9.9v19.76m0 9.88v19.77m0 9.9v19.77m0 9.88v19.78m0 9.9v19.76m0 9.9v19.76m0 9.9v19.76m0 9.9v19.77m0 9.9v19.76m0 9.88v19.77m0 9.9v19.76m0 9.9v19.78m0 9.88v19.78m0 9.9v19.76m0 9.9v19.76m0 9.9v19.77m0 9.88v19.8m0 9.88v19.77m0 9.9v19.76m0 9.9v9.9" stroke="#000" fill="none"/><path d="M-799.75 436.97h-1v-.5h1z" stroke="#000" stroke-width=".05"/><path d="M-800.25 1356.47v.52M-698.25 436.96v9.88m0 9.9v19.76m0 9.9v19.76m0 9.9v19.76m0 9.88v19.78m0 9.88v19.77m0 9.9v19.76m0 9.88v19.77m0 9.9v19.76m0 9.9v19.77m0 9.88v19.78m0 9.88v19.8m0 9.87v19.77m0 9.9v19.76m0 9.9v19.76m0 9.9v19.76m0 9.9v19.76m0 9.88v19.78m0 9.88v19.78m0 9.88v19.77m0 9.9V1040m0 9.9v19.77m0 9.9v19.76m0 9.9v19.76m0 9.88v19.77m0 9.88v19.78m0 9.9v19.76m0 9.9v19.76m0 9.9v19.76m0 9.9v19.76m0 9.9v19.76m0 9.88v9.9" stroke="#000" fill="none"/><path d="M-697.75 436.97h-1v-.5h1z" stroke="#000" stroke-width=".05"/><path d="M-698.25 1356.36v.5M-596.25 436.96v9.88m0 9.88v19.77m0 9.87v19.76m0 9.88v19.78m0 9.88v19.77m0 9.88v19.77m0 9.9v19.75m0 9.88v19.77m0 9.88V684m0 9.9v19.76m0 9.88v19.77m0 9.9v19.76m0 9.88v19.76m0 9.88v19.77m0 9.88v19.77m0 9.88v19.76m0 9.9v19.75m0 9.87v19.77m0 9.88v19.76m0 9.9v19.75m0 9.88v19.78m0 9.88v19.77m0 9.88v19.77m0 9.9v19.75m0 9.88v19.77m0 9.88v19.77m0 9.88v19.76m0 9.88v19.77m0 9.9v19.76m0 9.88v19.76m0 9.88v19.77m0 9.88v9.88" stroke="#000" fill="none"/><path d="M-595.75 436.97h-1v-.5h1z" stroke="#000" stroke-width=".05"/><path d="M-596.25 1356v.52M-494.25 436.96v10.08m0 10.1v20.17m0 10.1v20.17m0 10.1v20.16m0 10.1v20.17m0 10.08v20.18m0 10.1v20.16m0 10.1v20.16m0 10.1v20.17m0 10.1v20.16m0 10.1v20.17m0 10.1v20.17m0 10.08v20.18m0 10.1v20.16m0 10.1v20.17m0 10.08V901m0 10.08v20.17m0 10.1v20.16m0 10.1v20.18m0 10.1v20.16m0 10.1v20.16m0 10.1v20.17m0 10.08v20.18m0 10.1v20.16m0 10.08v20.17m0 10.1v20.17m0 10.1v20.16m0 10.1v20.16m0 10.1v20.17m0 10.1v20.17m0 10.1v10.08" stroke="#000" fill="none"/><path d="M-493.75 436.97h-1v-.5h1zM-494.25 1348.35h-.5v-3.52h.5z" stroke="#000" stroke-width=".05"/><path d="M-392.25 436.96v9.88m0 9.88v19.77m0 9.87v19.76m0 9.88v19.78m0 9.88v19.77m0 9.88v19.78m0 9.88v19.76m0 9.88v19.77m0 9.88v19.77m0 9.88v19.76m0 9.9v19.75m0 9.9v19.76m0 9.88v19.76m0 9.9v19.75m0 9.88v19.77m0 9.88v19.77m0 9.88v19.76m0 9.88v19.76m0 9.88v19.77m0 9.87v19.76m0 9.9v19.75m0 9.88v19.77m0 9.88v19.78m0 9.88v19.76m0 9.9v19.75m0 9.88v19.77m0 9.88v19.76m0 9.9v19.75m0 9.9v19.76m0 9.88v19.77m0 9.9v19.75m0 9.9v9.87" stroke="#000" fill="none"/><path d="M-391.75 436.97h-1v-.5h1z" stroke="#000" stroke-width=".05"/><path d="M-392.25 1356v.52M-291.26 436.96v9.88m0 9.88v19.76m0 9.88v19.76m0 9.88v19.77m0 9.88v19.76m0 9.9v19.75m0 9.9v19.75m0 9.88v19.76m0 9.88v19.76m0 9.9v19.75m0 9.88v19.77m0 9.88v19.76m0 9.9v19.76m0 9.88v19.76m0 9.88v19.76m0 9.9v19.75m0 9.87v19.76m0 9.88v19.78m0 9.88v19.76m0 9.88v19.76m0 9.88v19.77m0 9.9v19.75m0 9.88V1099m0 9.87v19.77m0 9.88v19.76m0 9.88v19.76m0 9.88v19.77m0 9.88v19.76m0 9.9v19.75m0 9.88v19.77m0 9.88v19.76m0 9.88v9.88" stroke="#000" fill="none"/><path d="M-290.76 436.97h-1v-.5h1z" stroke="#000" stroke-width=".05"/><path d="M-291.26 1355.9v.5M-188.25 436.96v9.88m0 9.88v19.76m0 9.88v19.75m0 9.9v19.75m0 9.88v19.76m0 9.87v19.76m0 9.88v19.77m0 9.88v19.76m0 9.9v19.75m0 9.88v19.76m0 9.87v19.76m0 9.88v19.77m0 9.88v19.76m0 9.9v19.75m0 9.88v19.76m0 9.87v19.76m0 9.88v19.77m0 9.88v19.76m0 9.9v19.75m0 9.88V1010m0 9.87v19.76m0 9.88v19.77m0 9.88v19.76m0 9.9v19.75m0 9.88v19.76m0 9.87v19.76m0 9.88v19.77m0 9.88v19.76m0 9.9v19.74m0 9.88v19.77m0 9.87v19.76m0 9.87v9.88" stroke="#000" fill="none"/><path d="M-187.75 436.97h-1v-.5h1z" stroke="#000" stroke-width=".05"/><path d="M-188.25 1355.77v.5M-87.27 436.96v9.88m0 9.87v19.77m0 9.88v19.76m0 9.88v19.76m0 9.88v19.76m0 9.88V595m0 9.9v19.75m0 9.88v19.76m0 9.87v19.75m0 9.88v19.76m0 9.88v19.75m0 9.87v19.76m0 9.88v19.76m0 9.88v19.76m0 9.88v19.76m0 9.88v19.75m0 9.88V921m0 9.9v19.75m0 9.87v19.76m0 9.88v19.76m0 9.88v19.75m0 9.88v19.76m0 9.87v19.75m0 9.88v19.76m0 9.88v19.76m0 9.87v19.76m0 9.88v19.77m0 9.88V1247m0 9.88v19.76m0 9.88v19.76m0 9.87v19.76m0 9.9v9.87" stroke="#000" fill="none"/><path d="M-87.26 436.96h.5-1v-.5h.5z" stroke="#000" stroke-width=".05"/><path d="M-87.26 1355.65v.52M-494.25 307.34v110M-494.25 307.35v-.5M-494.25 417.33v.5" stroke="#000" fill="none"/><path d="M-1239.92 472.63a6 6 0 0 1 6-6h71.2a6 6 0 0 1 6 6v22.4a6 6 0 0 1-6 6h-71.2a6 6 0 0 1-6-6z" stroke="#000" stroke-opacity="0" fill="#fff" fill-opacity="0"/><g><use xlink:href="#ak" transform="matrix(1,0,0,1,-1234.9166666666888,471.63488874681923) translate(0 17.77777777777778)"/></g><path d="M-1166.72 482.44a6 6 0 0 1 6-6h23.5a5.3 5.3 0 0 0 5.3-5.3 2.23 2.23 0 0 1 3.8-1.6l9.9 9.7a5.87 5.87 0 0 1 0 8.4l-9.9 9.7a2.23 2.23 0 0 1-3.8-1.6 5.3 5.3 0 0 0-5.3-5.3h-23.5a6 6 0 0 1-6-6z" stroke="#000" stroke-opacity="0" fill="#fff"/><path d="M-1439.52 475.83a6 6 0 0 1 6-6h71.2a6 6 0 0 1 6 6v22.4a6 6 0 0 1-6 6h-71.2a6 6 0 0 1-6-6z" stroke="#000" stroke-opacity="0" fill="#fff" fill-opacity="0"/><g><use xlink:href="#al" transform="matrix(1,0,0,1,-1434.51666666669,474.83421994291973) translate(0 17.77777777777778)"/></g><g><path d="M-1349.77 456.23a6 6 0 0 1 6 6v19.4a6 6 0 0 0 6 6h1.05a2.73 2.73 0 0 1 2.07 4.53l-12.13 13.96a5.2 5.2 0 0 1-7.87 0l-12.13-13.96a2.73 2.73 0 0 1 2.06-4.52h1.06a6 6 0 0 0 6-6v-19.4a6 6 0 0 1 6-6z" stroke="#fff" fill="#fff"/></g><path d="M-596.25 307.34v48M-596.25 307.35v-.5M-596.25 355.33v.5M-1106.25 351.16v60.35M-1106.25 351.17v-.5M-1106.25 411.5v.5M-841.75 371.86h-248.12" stroke="#000" fill="none"/><path d="M-841.25 372.36h-.5v-1h.5z" stroke="#000" stroke-width=".05"/><path d="M-1104.63 371.86l14.26-4.64v9.27z" stroke="#000" fill="#fff"/><path d="M-688.35 371.86h177.72" stroke="#000" fill="none"/><path d="M-688.34 372.36h-.5v-1h.5z" stroke="#000" stroke-width=".05"/><path d="M-495.87 371.86l-14.26 4.63v-9.28z" stroke="#000" fill="#fff"/><path d="M-841.25 347.95a6 6 0 0 1 6-6h140.4a6 6 0 0 1 6 6v51.34a6 6 0 0 1-6 6h-140.4a6 6 0 0 1-6-6z" stroke="#000" stroke-opacity="0" fill="#edf5ff"/><g><use xlink:href="#am" transform="matrix(1,0,0,1,-836.25,346.95319974122714) translate(19.061728395061728 31.27777777777778)"/></g><path d="M-1106.25 566.08a6 6 0 0 1 6-6h59a6 6 0 0 1 6 6v7.85a6 6 0 0 1-6 6h-59a6 6 0 0 1-6-6zM-1004.25 659.9a6 6 0 0 1 6-6h59a6 6 0 0 1 6 6v7.86a6 6 0 0 1-6 6h-59a6 6 0 0 1-6-6zM-902.25 745.93a6 6 0 0 1 6-6h59a6 6 0 0 1 6 6v7.86a6 6 0 0 1-6 6h-59a6 6 0 0 1-6-6zM-698.25 850.6a6 6 0 0 1 6-6h59a6 6 0 0 1 6 6v7.85a6 6 0 0 1-6 6h-59a6 6 0 0 1-6-6zM-596.25 938.5a6 6 0 0 1 6-6h59a6 6 0 0 1 6 6v7.84a6 6 0 0 1-6 6h-59a6 6 0 0 1-6-6zM-188.25 1306.93a6 6 0 0 1 6-6h59a6 6 0 0 1 6 6v7.86a6 6 0 0 1-6 6h-59a6 6 0 0 1-6-6zM-362.26 290.38a6 6 0 0 1 6-6h59a6 6 0 0 1 6 6v7.85a6 6 0 0 1-6 6h-59a6 6 0 0 1-6-6z" stroke="#3a414a" fill="#fcce14"/><path d="M-291.26 284.55a6 6 0 0 1 6-6h177.5a6 6 0 0 1 6 6v19.5a6 6 0 0 1-6 6h-177.5a6 6 0 0 1-6-6z" stroke="#000" stroke-opacity="0" fill-opacity="0"/><g><use xlink:href="#an" transform="matrix(1,0,0,1,-286.2606837606836,283.54918480077924) translate(0 15.597222222222221)"/><use xlink:href="#ao" transform="matrix(1,0,0,1,-286.2606837606836,283.54918480077924) translate(55.209876543209866 15.597222222222221)"/><use xlink:href="#ap" transform="matrix(1,0,0,1,-286.2606837606836,283.54918480077924) translate(145.97530864197526 15.597222222222221)"/></g><path d="M-362.26 259.6a6 6 0 0 1 6-6h59a6 6 0 0 1 6 6v7.87a6 6 0 0 1-6 6h-59a6 6 0 0 1-6-6z" stroke="#3a414a" fill="#fff"/><path d="M-291.26 253.04a6 6 0 0 1 6-6h225a6 6 0 0 1 6 6v19.5a6 6 0 0 1-6 6h-225a6 6 0 0 1-6-6z" stroke="#000" stroke-opacity="0" fill-opacity="0"/><g><use xlink:href="#aq" transform="matrix(1,0,0,1,-286.2606837606836,252.04373378794241) translate(0 15.597222222222221)"/><use xlink:href="#ar" transform="matrix(1,0,0,1,-286.2606837606836,252.04373378794241) translate(71.99999999999997 15.597222222222221)"/><use xlink:href="#as" transform="matrix(1,0,0,1,-286.2606837606836,252.04373378794241) translate(126.27160493827157 15.597222222222221)"/><use xlink:href="#at" transform="matrix(1,0,0,1,-286.2606837606836,252.04373378794241) translate(160.83950617283946 15.597222222222221)"/></g><path d="M-392.25 1118.73a6 6 0 0 1 6-6h192a6 6 0 0 1 6 6v19.1a6 6 0 0 1-6 6h-192a6 6 0 0 1-6-6z" stroke="#3a414a" fill="#fff"/><path d="M-392.25 1124.36a6 6 0 0 1 6-6h106a6 6 0 0 1 6 6v5a6 6 0 0 1-6 6h-106a6 6 0 0 1-6-6z" stroke="#3a414a" fill="#fcce14"/><path d="M-290.25 1212.75a6 6 0 0 1 6-6h224a6 6 0 0 1 6 6v19.1a6 6 0 0 1-6 6h-224a6 6 0 0 1-6-6z" stroke="#3a414a" fill="#fff"/><path d="M-290.25 1218.6a6 6 0 0 1 6-6h59a6 6 0 0 1 6 6v7.86a6 6 0 0 1-6 6h-59a6 6 0 0 1-6-6z" stroke="#3a414a" fill="#fcce14"/><path d="M-494.25 1025.8a6 6 0 0 1 6-6h428a6 6 0 0 1 6 6v19.1a6 6 0 0 1-6 6h-428a6 6 0 0 1-6-6z" stroke="#3a414a" fill="#fff"/><path d="M-494.25 1032.7a6 6 0 0 1 6-6h428a6 6 0 0 1 6 6v7.4a6 6 0 0 1-6 6h-428a6 6 0 0 1-6-6z" stroke="#3a414a" fill="#fcce14"/><path d="M-579.87 328.5l69.24-.45" stroke="#000" fill="none"/><path d="M-594.63 328.6l14.23-4.72.06 9.27zM-495.87 327.96l-14.23 4.73-.06-9.28z" stroke="#000" fill="#fff"/><path d="M-596.25 390.34v26M-596.25 390.35v-.5M-596.25 416.33v.5" stroke="#000" fill="none"/><path d="M-608.25 280.83a6 6 0 0 1 6-6h114a6 6 0 0 1 6 6v26.94a6 6 0 0 1-6 6h-114a6 6 0 0 1-6-6z" stroke="#000" stroke-opacity="0" fill="#fff3d9"/><g><use xlink:href="#au" transform="matrix(1,0,0,1,-603.25,279.8333511015272) translate(0 19.59027777777778)"/></g><defs><path fill="#fff" d="M23 0v-37h61v-169l-59 37v-38l62-41h46v211h57V0H23" id="av"/><use transform="matrix(0.06172839506172839,0,0,0.06172839506172839,0,0)" xlink:href="#av" id="a"/><path fill="#fff" d="M182-182c0 78-84 86-111 141h115V0H12c-6-101 99-100 120-180 1-22-12-31-33-32-23 0-32 14-35 34l-49-3c5-45 32-70 84-70 51 0 83 22 83 69" id="aw"/><use transform="matrix(0.06172839506172839,0,0,0.06172839506172839,0,0)" xlink:href="#aw" id="b"/><path fill="#fff" d="M128-127c34 4 56 21 59 58 7 91-148 94-172 28-4-9-6-17-7-26l51-5c1 24 16 35 40 36 23 0 39-12 38-36-1-31-31-36-65-34v-40c32 2 59-3 59-33 0-20-13-33-34-33s-33 13-35 32l-50-3c6-44 37-68 86-68 50 0 83 20 83 66 0 35-22 52-53 58" id="ax"/><use transform="matrix(0.06172839506172839,0,0,0.06172839506172839,0,0)" xlink:href="#ax" id="c"/><path fill="#fff" d="M165-50V0h-47v-50H5v-38l105-160h55v161h33v37h-33zm-47-37l2-116L46-87h72" id="ay"/><use transform="matrix(0.06172839506172839,0,0,0.06172839506172839,0,0)" xlink:href="#ay" id="d"/><path fill="#fff" d="M139-81c0-46-55-55-73-27H18l9-140h149v37H72l-4 63c44-38 133-4 122 66C201 21 21 35 11-62l49-4c5 18 15 30 39 30 26 0 40-18 40-45" id="az"/><use transform="matrix(0.06172839506172839,0,0,0.06172839506172839,0,0)" xlink:href="#az" id="e"/><path fill="#fff" d="M115-159c48 0 72 30 72 78 0 54-30 85-83 85-64 0-91-50-91-122 0-98 58-163 141-120 15 8 21 24 27 44l-47 6c-5-31-48-31-61-4-7 14-11 33-11 60 9-17 28-27 53-27zM102-35c24 0 36-20 36-45s-11-43-37-43c-23 0-36 14-36 38 0 27 11 50 37 50" id="aA"/><use transform="matrix(0.06172839506172839,0,0,0.06172839506172839,0,0)" xlink:href="#aA" id="f"/><path fill="#fff" d="M52 0c1-96 47-148 87-207H15v-41h169v40c-36 62-79 113-81 208H52" id="aB"/><use transform="matrix(0.06172839506172839,0,0,0.06172839506172839,0,0)" xlink:href="#aB" id="g"/><path fill="#fff" d="M138-131c27 9 52 24 51 61 0 53-36 74-89 74S11-19 11-69c0-35 22-54 51-61-78-25-46-121 38-121 51 0 83 19 83 66 0 30-18 49-45 54zm-38-16c24 0 32-13 32-36 1-23-11-34-32-34-22 0-33 12-32 34 0 22 9 36 32 36zm1 116c27 0 37-17 37-43 0-25-13-39-39-39-24 0-37 15-37 40 0 27 11 42 39 42" id="aC"/><use transform="matrix(0.06172839506172839,0,0,0.06172839506172839,0,0)" xlink:href="#aC" id="i"/><path fill="#fff" d="M99-251c69 0 84 53 88 123 5 99-61 162-144 118-15-8-21-25-26-45l46-6c4 31 50 33 63 7 7-15 12-36 12-60-9 18-29 28-54 28-48 0-72-32-72-82 0-55 31-83 87-83zm-1 128c24 0 37-16 37-39 0-27-10-51-37-51-25 0-35 19-35 45 0 25 10 45 35 45" id="aD"/><use transform="matrix(0.06172839506172839,0,0,0.06172839506172839,0,0)" xlink:href="#aD" id="j"/><path fill="#fff" d="M101-251c68 0 84 54 84 127C185-50 166 4 99 4S15-52 14-124c-1-75 17-127 87-127zm-1 216c37-5 36-46 36-89s4-89-36-89c-39 0-36 45-36 89 0 43-3 85 36 89" id="aE"/><g id="k"><use transform="matrix(0.06172839506172839,0,0,0.06172839506172839,0,0)" xlink:href="#av"/><use transform="matrix(0.06172839506172839,0,0,0.06172839506172839,12.345679012345679,0)" xlink:href="#aE"/></g><path fill="#333" d="M187 0l-14-72H61L19 0h-37l149-248h38L221 0h-34zm-19-99l-22-123L76-99h92" id="aF"/><path fill="#333" d="M6 0l50-261h32L37 0H6" id="aG"/><path fill="#333" d="M50-231l6-30h32l-6 30H50zM6 0l37-190h31L37 0H6" id="aH"/><path fill="#333" d="M44-68c0 29 11 47 38 47 30 0 42-19 51-41l28 9C148-21 126 4 82 4 31 4 10-29 12-85c3-77 74-140 146-93 12 8 15 23 18 40l-31 5c-1-22-13-36-36-36-52 0-65 49-65 101" id="aI"/><path fill="#333" d="M111-194c62-3 86 47 72 106H45c-7 38 6 69 45 68 27-1 43-14 53-32l24 11C152-15 129 4 87 4 38 3 12-23 12-71c0-70 32-119 99-123zm44 81c14-66-71-72-95-28-4 8-8 17-11 28h106" id="aJ"/><g id="l"><use transform="matrix(0.06172839506172839,0,0,0.06172839506172839,0,0)" xlink:href="#aF"/><use transform="matrix(0.06172839506172839,0,0,0.06172839506172839,14.814814814814813,0)" xlink:href="#aG"/><use transform="matrix(0.06172839506172839,0,0,0.06172839506172839,19.691358024691354,0)" xlink:href="#aH"/><use transform="matrix(0.06172839506172839,0,0,0.06172839506172839,24.5679012345679,0)" xlink:href="#aI"/><use transform="matrix(0.06172839506172839,0,0,0.06172839506172839,35.67901234567901,0)" xlink:href="#aJ"/></g><path fill="#333" d="M125-24c46 0 70-25 89-51l25 16C214-24 183 4 123 4 8 4-5-146 60-208c32-50 158-61 191-5 5 7 9 14 11 22l-32 10c-9-28-33-43-69-43-74 0-108 51-108 125 0 46 24 75 72 75" id="aK"/><path fill="#333" d="M51-54c-9 22 5 41 31 30L79-1C43 14 10-4 19-52l22-115H19l5-23h22l19-43h21l-9 43h35l-4 23H73" id="aL"/><path fill="#333" d="M-8 0l5-24 140-142H31l5-24h145l-5 24L36-24h119l-5 24H-8" id="aM"/><path fill="#333" d="M67-158c22-48 132-52 116 29L158 0h-32l25-140c3-38-53-32-70-12C52-117 51-52 38 0H6l36-190h30" id="aN"/><g id="m"><use transform="matrix(0.06172839506172839,0,0,0.06172839506172839,0,0)" xlink:href="#aK"/><use transform="matrix(0.06172839506172839,0,0,0.06172839506172839,15.987654320987653,0)" xlink:href="#aH"/><use transform="matrix(0.06172839506172839,0,0,0.06172839506172839,20.864197530864196,0)" xlink:href="#aL"/><use transform="matrix(0.06172839506172839,0,0,0.06172839506172839,27.037037037037035,0)" xlink:href="#aH"/><use transform="matrix(0.06172839506172839,0,0,0.06172839506172839,31.91358024691358,0)" xlink:href="#aM"/><use transform="matrix(0.06172839506172839,0,0,0.06172839506172839,43.02469135802468,0)" xlink:href="#aJ"/><use transform="matrix(0.06172839506172839,0,0,0.06172839506172839,55.37037037037036,0)" xlink:href="#aN"/></g><path fill="#333" d="M17-49c1-102 45-165 103-212h30C92-210 49-145 49-46 49 4 63 43 85 75H54C30 43 18 2 17-49" id="aO"/><path fill="#333" d="M66-151c12-25 30-51 66-40l-6 26C45-176 58-65 38 0H6l36-190h30" id="aP"/><path fill="#333" d="M165-48c-4 18 1 34 23 27l-3 20c-29 8-62 0-52-35h-2C116-14 99 4 63 4 30 4 8-16 8-49c0-68 71-67 138-67 10-26 0-56-31-54-26 1-42 9-47 31l-32-5c8-67 160-71 144 15-5 28-9 54-15 81zM42-50c3 52 80 24 89-6 7-12 7-24 11-38-47 1-103-4-100 44" id="aQ"/><g id="n"><use transform="matrix(0.06172839506172839,0,0,0.06172839506172839,0,0)" xlink:href="#aO"/><use transform="matrix(0.06172839506172839,0,0,0.06172839506172839,7.345679012345679,0)" xlink:href="#aI"/><use transform="matrix(0.06172839506172839,0,0,0.06172839506172839,18.45679012345679,0)" xlink:href="#aP"/><use transform="matrix(0.06172839506172839,0,0,0.06172839506172839,25.80246913580247,0)" xlink:href="#aP"/><use transform="matrix(0.06172839506172839,0,0,0.06172839506172839,33.148148148148145,0)" xlink:href="#aJ"/><use transform="matrix(0.06172839506172839,0,0,0.06172839506172839,45.49382716049382,0)" xlink:href="#aQ"/><use transform="matrix(0.06172839506172839,0,0,0.06172839506172839,57.8395061728395,0)" xlink:href="#aL"/><use transform="matrix(0.06172839506172839,0,0,0.06172839506172839,64.01234567901234,0)" xlink:href="#aJ"/></g><g id="o"><use transform="matrix(0.06172839506172839,0,0,0.06172839506172839,0,0)" xlink:href="#aQ"/><use transform="matrix(0.06172839506172839,0,0,0.06172839506172839,12.345679012345679,0)" xlink:href="#aL"/></g><path fill="#333" d="M163-156l-14 65h46v19h-50L130 0h-20l15-72H62L47 0H27l15-72H7v-19h39l14-65H16v-19h48l16-71h19l-16 71h64l16-71h19l-15 71h37v19h-41zm-83 0L66-91h64l13-65H80" id="aR"/><path fill="#333" d="M9 0l6-27h63l36-188-63 39 6-31 66-41h29L110-27h60l-5 27H9" id="aS"/><path fill="#333" d="M58-38C53-5 46 26 28 46H7C19 32 27 18 32 0H17l7-38h34" id="aT"/><g id="p"><use transform="matrix(0.06172839506172839,0,0,0.06172839506172839,0,0)" xlink:href="#aR"/><use transform="matrix(0.06172839506172839,0,0,0.06172839506172839,12.345679012345679,0)" xlink:href="#aS"/><use transform="matrix(0.06172839506172839,0,0,0.06172839506172839,24.691358024691358,0)" xlink:href="#aT"/></g><path fill="#333" d="M30-147c31-64 166-65 159 27C183-49 158 1 86 4 9 8 1-88 30-147zM88-20c53 0 68-48 68-100 0-31-11-51-44-50-52 1-68 46-68 97 0 32 13 53 44 53" id="aU"/><g id="q"><use transform="matrix(0.06172839506172839,0,0,0.06172839506172839,0,0)" xlink:href="#aN"/><use transform="matrix(0.06172839506172839,0,0,0.06172839506172839,12.345679012345679,0)" xlink:href="#aU"/><use transform="matrix(0.06172839506172839,0,0,0.06172839506172839,24.691358024691358,0)" xlink:href="#aL"/></g><path fill="#333" d="M67-158c15-20 31-36 64-36 94 0 33 127 27 194h-32l25-140c3-38-53-32-70-12C52-117 51-51 37 0H6l51-261h31" id="aV"/><path fill="#333" d="M89 0H52L20-190h33L74-25l89-165h34" id="aW"/><path fill="#333" d="M133-28C103 26-5 8 13-77c13-62 24-115 90-117 29-1 46 15 56 35l19-102h32L160 0h-30zM45-64c-2 27 10 43 35 43 54-1 69-50 69-103 0-29-15-46-42-46-53-1-58 58-62 106" id="aX"/><path fill="#333" d="M98-137C97-35 54 29-4 75h-31C23 23 67-41 67-140c0-50-15-89-37-121h31c24 32 36 73 37 124" id="aY"/><g id="r"><use transform="matrix(0.06172839506172839,0,0,0.06172839506172839,0,0)" xlink:href="#aQ"/><use transform="matrix(0.06172839506172839,0,0,0.06172839506172839,12.345679012345679,0)" xlink:href="#aP"/><use transform="matrix(0.06172839506172839,0,0,0.06172839506172839,19.691358024691358,0)" xlink:href="#aI"/><use transform="matrix(0.06172839506172839,0,0,0.06172839506172839,30.80246913580247,0)" xlink:href="#aV"/><use transform="matrix(0.06172839506172839,0,0,0.06172839506172839,43.148148148148145,0)" xlink:href="#aH"/><use transform="matrix(0.06172839506172839,0,0,0.06172839506172839,48.02469135802469,0)" xlink:href="#aW"/><use transform="matrix(0.06172839506172839,0,0,0.06172839506172839,59.1358024691358,0)" xlink:href="#aJ"/><use transform="matrix(0.06172839506172839,0,0,0.06172839506172839,71.48148148148148,0)" xlink:href="#aX"/><use transform="matrix(0.06172839506172839,0,0,0.06172839506172839,83.82716049382717,0)" xlink:href="#aY"/></g><path fill="#333" d="M29-66c0 49 71 55 82 11 13-52 22-111 33-165H93l5-28h85L149-74C151 11 7 37-1-60" id="aZ"/><g id="s"><use transform="matrix(0.06172839506172839,0,0,0.06172839506172839,0,0)" xlink:href="#aZ"/><use transform="matrix(0.06172839506172839,0,0,0.06172839506172839,11.11111111111111,0)" xlink:href="#aU"/><use transform="matrix(0.06172839506172839,0,0,0.06172839506172839,23.45679012345679,0)" xlink:href="#aJ"/></g><path fill="#333" d="M219-77C219 17 104-2 11 0l48-248c73 2 169-15 169 57 0 38-24 54-60 60 29 5 51 21 51 54zm-26-111c0-44-62-31-105-33l-16 79c55 0 121 9 121-46zm-7 110c-1-49-69-36-119-38L50-27c61-1 137 12 136-51" id="ba"/><path fill="#333" d="M103-194c29 0 47 14 56 36 2-11 5-23 8-32h30L160-5C157 61 82 97 21 62 9 55 4 45 1 30l28-7c7 42 83 31 92-3 4-16 9-38 13-55-13 20-29 36-62 36-40 0-60-25-60-64 0-71 23-131 91-131zm4 24c-53 0-58 54-61 104-2 27 10 44 36 44 49 0 65-50 67-102 1-29-15-46-42-46" id="bb"/><path fill="#333" d="M55-144c13 50 104 24 104 88C159 21 15 23 1-39l26-10c6 40 102 42 102-4-13-50-104-23-104-87 0-71 143-71 148-8l-29 4c-5-35-85-37-89 0" id="bc"/><g id="t"><use transform="matrix(0.06172839506172839,0,0,0.06172839506172839,0,0)" xlink:href="#ba"/><use transform="matrix(0.06172839506172839,0,0,0.06172839506172839,14.814814814814813,0)" xlink:href="#aG"/><use transform="matrix(0.06172839506172839,0,0,0.06172839506172839,19.691358024691354,0)" xlink:href="#aU"/><use transform="matrix(0.06172839506172839,0,0,0.06172839506172839,32.03703703703703,0)" xlink:href="#bb"/><use transform="matrix(0.06172839506172839,0,0,0.06172839506172839,44.38271604938271,0)" xlink:href="#bb"/><use transform="matrix(0.06172839506172839,0,0,0.06172839506172839,56.728395061728385,0)" xlink:href="#bc"/></g><g id="u"><use transform="matrix(0.06172839506172839,0,0,0.06172839506172839,0,0)" xlink:href="#aO"/><use transform="matrix(0.06172839506172839,0,0,0.06172839506172839,7.345679012345679,0)" xlink:href="#aI"/><use transform="matrix(0.06172839506172839,0,0,0.06172839506172839,18.45679012345679,0)" xlink:href="#aP"/><use transform="matrix(0.06172839506172839,0,0,0.06172839506172839,25.80246913580247,0)" xlink:href="#aJ"/><use transform="matrix(0.06172839506172839,0,0,0.06172839506172839,38.148148148148145,0)" xlink:href="#aQ"/><use transform="matrix(0.06172839506172839,0,0,0.06172839506172839,50.49382716049382,0)" xlink:href="#aL"/><use transform="matrix(0.06172839506172839,0,0,0.06172839506172839,56.666666666666664,0)" xlink:href="#aJ"/></g><path fill="#333" d="M123-251c66 0 92 69 53 113C138-94 73-75 39-27h128l-5 27H-2c17-92 123-93 159-163 14-28-1-64-36-62-29 2-46 17-54 41l-30-6c13-36 37-61 86-61" id="bd"/><g id="v"><use transform="matrix(0.06172839506172839,0,0,0.06172839506172839,0,0)" xlink:href="#aR"/><use transform="matrix(0.06172839506172839,0,0,0.06172839506172839,12.345679012345679,0)" xlink:href="#bd"/><use transform="matrix(0.06172839506172839,0,0,0.06172839506172839,24.691358024691358,0)" xlink:href="#aT"/></g><path fill="#333" d="M248-111c6-24 9-61-24-58-72 9-57 108-77 169h-31l26-142c3-37-50-30-64-10C52-115 50-51 37 0H6l36-190h30c-1 10-6 24-4 32 13-43 101-52 105 5 13-22 29-41 61-41 90 0 28 129 23 194h-31" id="be"/><g id="w"><use transform="matrix(0.06172839506172839,0,0,0.06172839506172839,0,0)" xlink:href="#aP"/><use transform="matrix(0.06172839506172839,0,0,0.06172839506172839,7.345679012345679,0)" xlink:href="#aJ"/><use transform="matrix(0.06172839506172839,0,0,0.06172839506172839,19.691358024691358,0)" xlink:href="#aN"/><use transform="matrix(0.06172839506172839,0,0,0.06172839506172839,32.03703703703704,0)" xlink:href="#aQ"/><use transform="matrix(0.06172839506172839,0,0,0.06172839506172839,44.382716049382715,0)" xlink:href="#be"/><use transform="matrix(0.06172839506172839,0,0,0.06172839506172839,62.839506172839506,0)" xlink:href="#aJ"/></g><g id="x"><use transform="matrix(0.06172839506172839,0,0,0.06172839506172839,0,0)" xlink:href="#aZ"/><use transform="matrix(0.06172839506172839,0,0,0.06172839506172839,11.11111111111111,0)" xlink:href="#aU"/><use transform="matrix(0.06172839506172839,0,0,0.06172839506172839,23.45679012345679,0)" xlink:href="#aJ"/></g><g id="y"><use transform="matrix(0.06172839506172839,0,0,0.06172839506172839,0,0)" xlink:href="#aL"/><use transform="matrix(0.06172839506172839,0,0,0.06172839506172839,6.172839506172839,0)" xlink:href="#aU"/></g><path fill="#333" d="M87-220l-18 92h140l-5 28H64L45 0H11l48-248h178l-5 28H87" id="bf"/><g id="z"><use transform="matrix(0.06172839506172839,0,0,0.06172839506172839,0,0)" xlink:href="#bf"/><use transform="matrix(0.06172839506172839,0,0,0.06172839506172839,13.518518518518517,0)" xlink:href="#aP"/><use transform="matrix(0.06172839506172839,0,0,0.06172839506172839,20.864197530864196,0)" xlink:href="#aJ"/><use transform="matrix(0.06172839506172839,0,0,0.06172839506172839,33.20987654320987,0)" xlink:href="#aX"/></g><g id="A"><use transform="matrix(0.06172839506172839,0,0,0.06172839506172839,0,0)" xlink:href="#aQ"/><use transform="matrix(0.06172839506172839,0,0,0.06172839506172839,12.345679012345679,0)" xlink:href="#aL"/></g><path fill="#333" d="M148-71c0-36-31-44-71-41l5-28c46 3 81-6 81-50 0-23-15-35-39-35-30 0-49 17-56 41l-32-3c12-39 42-63 90-64 43 0 69 19 71 60 1 43-30 58-65 66 27 5 49 22 49 53 0 85-133 99-164 35-4-7-7-15-9-22l29-9c8 25 25 45 58 45 34 1 53-17 53-48" id="bg"/><g id="B"><use transform="matrix(0.06172839506172839,0,0,0.06172839506172839,0,0)" xlink:href="#aR"/><use transform="matrix(0.06172839506172839,0,0,0.06172839506172839,12.345679012345679,0)" xlink:href="#bg"/><use transform="matrix(0.06172839506172839,0,0,0.06172839506172839,24.691358024691358,0)" xlink:href="#aY"/></g><g id="C"><use transform="matrix(0.06172839506172839,0,0,0.06172839506172839,0,0)" xlink:href="#bf"/><use transform="matrix(0.06172839506172839,0,0,0.06172839506172839,13.518518518518517,0)" xlink:href="#aP"/><use transform="matrix(0.06172839506172839,0,0,0.06172839506172839,20.864197530864196,0)" xlink:href="#aJ"/><use transform="matrix(0.06172839506172839,0,0,0.06172839506172839,33.20987654320987,0)" xlink:href="#aX"/></g><g id="D"><use transform="matrix(0.06172839506172839,0,0,0.06172839506172839,0,0)" xlink:href="#aO"/><use transform="matrix(0.06172839506172839,0,0,0.06172839506172839,7.345679012345679,0)" xlink:href="#aQ"/><use transform="matrix(0.06172839506172839,0,0,0.06172839506172839,19.691358024691358,0)" xlink:href="#aP"/><use transform="matrix(0.06172839506172839,0,0,0.06172839506172839,27.037037037037038,0)" xlink:href="#aI"/><use transform="matrix(0.06172839506172839,0,0,0.06172839506172839,38.14814814814815,0)" xlink:href="#aV"/><use transform="matrix(0.06172839506172839,0,0,0.06172839506172839,50.49382716049383,0)" xlink:href="#aH"/><use transform="matrix(0.06172839506172839,0,0,0.06172839506172839,55.370370370370374,0)" xlink:href="#aW"/><use transform="matrix(0.06172839506172839,0,0,0.06172839506172839,66.48148148148148,0)" xlink:href="#aJ"/></g><path fill="#333" d="M149-56L138 0h-32l11-56H2l5-25 144-167h35L154-81h33l-5 25h-33zm-4-147L40-81h82" id="bh"/><g id="E"><use transform="matrix(0.06172839506172839,0,0,0.06172839506172839,0,0)" xlink:href="#aR"/><use transform="matrix(0.06172839506172839,0,0,0.06172839506172839,12.345679012345679,0)" xlink:href="#bh"/><use transform="matrix(0.06172839506172839,0,0,0.06172839506172839,24.691358024691358,0)" xlink:href="#aY"/></g><g id="F"><use transform="matrix(0.06172839506172839,0,0,0.06172839506172839,0,0)" xlink:href="#ba"/><use transform="matrix(0.06172839506172839,0,0,0.06172839506172839,14.814814814814813,0)" xlink:href="#aH"/><use transform="matrix(0.06172839506172839,0,0,0.06172839506172839,19.691358024691354,0)" xlink:href="#aG"/><use transform="matrix(0.06172839506172839,0,0,0.06172839506172839,24.5679012345679,0)" xlink:href="#aG"/></g><path fill="#333" d="M222 0l43-216c-8 16-17 34-26 49L143 0h-22L81-216 41 0H11l48-248h42l38 208 116-208h45L252 0h-30" id="bi"/><path fill="#333" d="M198-190L69 30C53 58 25 83-20 72c4-11-1-27 19-22 33-1 43-29 59-52L20-190h32L79-34l84-156h35" id="bj"/><g id="G"><use transform="matrix(0.06172839506172839,0,0,0.06172839506172839,0,0)" xlink:href="#bi"/><use transform="matrix(0.06172839506172839,0,0,0.06172839506172839,18.456790123456788,0)" xlink:href="#bj"/><use transform="matrix(0.06172839506172839,0,0,0.06172839506172839,29.5679012345679,0)" xlink:href="#aJ"/><use transform="matrix(0.06172839506172839,0,0,0.06172839506172839,41.913580246913575,0)" xlink:href="#aP"/><use transform="matrix(0.06172839506172839,0,0,0.06172839506172839,49.25925925925925,0)" xlink:href="#bc"/></g><path fill="#333" d="M151-85c6-55-69-56-94-29H26l34-134h141l-5 27H84l-20 79c41-34 127-11 121 53C199 13 30 38 8-54l29-8C52 0 159-13 151-85" id="bk"/><g id="H"><use transform="matrix(0.06172839506172839,0,0,0.06172839506172839,0,0)" xlink:href="#aR"/><use transform="matrix(0.06172839506172839,0,0,0.06172839506172839,12.345679012345679,0)" xlink:href="#bk"/><use transform="matrix(0.06172839506172839,0,0,0.06172839506172839,24.691358024691358,0)" xlink:href="#aT"/></g><g id="I"><use transform="matrix(0.06172839506172839,0,0,0.06172839506172839,0,0)" xlink:href="#aP"/><use transform="matrix(0.06172839506172839,0,0,0.06172839506172839,7.345679012345679,0)" xlink:href="#aJ"/><use transform="matrix(0.06172839506172839,0,0,0.06172839506172839,19.691358024691358,0)" xlink:href="#aN"/><use transform="matrix(0.06172839506172839,0,0,0.06172839506172839,32.03703703703704,0)" xlink:href="#aQ"/><use transform="matrix(0.06172839506172839,0,0,0.06172839506172839,44.382716049382715,0)" xlink:href="#be"/><use transform="matrix(0.06172839506172839,0,0,0.06172839506172839,62.839506172839506,0)" xlink:href="#aJ"/></g><g id="J"><use transform="matrix(0.06172839506172839,0,0,0.06172839506172839,0,0)" xlink:href="#bi"/><use transform="matrix(0.06172839506172839,0,0,0.06172839506172839,18.456790123456788,0)" xlink:href="#bj"/><use transform="matrix(0.06172839506172839,0,0,0.06172839506172839,29.5679012345679,0)" xlink:href="#aJ"/><use transform="matrix(0.06172839506172839,0,0,0.06172839506172839,41.913580246913575,0)" xlink:href="#aP"/><use transform="matrix(0.06172839506172839,0,0,0.06172839506172839,49.25925925925925,0)" xlink:href="#bc"/></g><g id="K"><use transform="matrix(0.06172839506172839,0,0,0.06172839506172839,0,0)" xlink:href="#aL"/><use transform="matrix(0.06172839506172839,0,0,0.06172839506172839,6.172839506172839,0)" xlink:href="#aU"/></g><path fill="#333" d="M151-220L108 0H75l42-220H32l6-28h203l-5 28h-85" id="bl"/><g id="L"><use transform="matrix(0.06172839506172839,0,0,0.06172839506172839,0,0)" xlink:href="#bl"/><use transform="matrix(0.06172839506172839,0,0,0.06172839506172839,11.481481481481481,0)" xlink:href="#aQ"/><use transform="matrix(0.06172839506172839,0,0,0.06172839506172839,23.827160493827158,0)" xlink:href="#bj"/><use transform="matrix(0.06172839506172839,0,0,0.06172839506172839,34.938271604938265,0)" xlink:href="#aG"/><use transform="matrix(0.06172839506172839,0,0,0.06172839506172839,39.81481481481481,0)" xlink:href="#aU"/><use transform="matrix(0.06172839506172839,0,0,0.06172839506172839,52.16049382716049,0)" xlink:href="#aP"/></g><path fill="#333" d="M184-94c-4 58-33 98-90 98-50 0-74-35-74-86 0-94 36-181 136-167 24 3 39 21 44 47l-29 6c-8-40-68-34-87-5-13 20-24 43-30 73 28-51 135-39 130 34zm-73-42c-35 2-61 22-60 62 1 30 14 52 44 52 38 0 55-31 56-70 1-26-14-46-40-44" id="bm"/><g id="M"><use transform="matrix(0.06172839506172839,0,0,0.06172839506172839,0,0)" xlink:href="#aR"/><use transform="matrix(0.06172839506172839,0,0,0.06172839506172839,12.345679012345679,0)" xlink:href="#bm"/><use transform="matrix(0.06172839506172839,0,0,0.06172839506172839,24.691358024691358,0)" xlink:href="#aY"/></g><g id="N"><use transform="matrix(0.06172839506172839,0,0,0.06172839506172839,0,0)" xlink:href="#bl"/><use transform="matrix(0.06172839506172839,0,0,0.06172839506172839,11.481481481481481,0)" xlink:href="#aQ"/><use transform="matrix(0.06172839506172839,0,0,0.06172839506172839,23.827160493827158,0)" xlink:href="#bj"/><use transform="matrix(0.06172839506172839,0,0,0.06172839506172839,34.938271604938265,0)" xlink:href="#aG"/><use transform="matrix(0.06172839506172839,0,0,0.06172839506172839,39.81481481481481,0)" xlink:href="#aU"/><use transform="matrix(0.06172839506172839,0,0,0.06172839506172839,52.16049382716049,0)" xlink:href="#aP"/></g><g id="O"><use transform="matrix(0.06172839506172839,0,0,0.06172839506172839,0,0)" xlink:href="#aO"/><use transform="matrix(0.06172839506172839,0,0,0.06172839506172839,7.345679012345679,0)" xlink:href="#aP"/><use transform="matrix(0.06172839506172839,0,0,0.06172839506172839,14.691358024691358,0)" xlink:href="#aJ"/><use transform="matrix(0.06172839506172839,0,0,0.06172839506172839,27.037037037037038,0)" xlink:href="#aN"/><use transform="matrix(0.06172839506172839,0,0,0.06172839506172839,39.382716049382715,0)" xlink:href="#aQ"/><use transform="matrix(0.06172839506172839,0,0,0.06172839506172839,51.72839506172839,0)" xlink:href="#be"/><use transform="matrix(0.06172839506172839,0,0,0.06172839506172839,70.18518518518518,0)" xlink:href="#aJ"/></g><g id="P"><use transform="matrix(0.06172839506172839,0,0,0.06172839506172839,0,0)" xlink:href="#bl"/><use transform="matrix(0.06172839506172839,0,0,0.06172839506172839,11.481481481481481,0)" xlink:href="#aQ"/><use transform="matrix(0.06172839506172839,0,0,0.06172839506172839,23.827160493827158,0)" xlink:href="#bj"/><use transform="matrix(0.06172839506172839,0,0,0.06172839506172839,34.938271604938265,0)" xlink:href="#aG"/><use transform="matrix(0.06172839506172839,0,0,0.06172839506172839,39.81481481481481,0)" xlink:href="#aU"/><use transform="matrix(0.06172839506172839,0,0,0.06172839506172839,52.16049382716049,0)" xlink:href="#aP"/></g><path fill="#333" d="M248-139C247-14 144 9 11 0l48-248c105-6 190 8 189 109zm-34 0c1-70-52-87-126-82L50-27c98 7 163-21 164-112" id="bn"/><g id="Q"><use transform="matrix(0.06172839506172839,0,0,0.06172839506172839,0,0)" xlink:href="#bn"/><use transform="matrix(0.06172839506172839,0,0,0.06172839506172839,15.987654320987653,0)" xlink:href="#aU"/><use transform="matrix(0.06172839506172839,0,0,0.06172839506172839,28.333333333333332,0)" xlink:href="#aJ"/></g><g id="R"><use transform="matrix(0.06172839506172839,0,0,0.06172839506172839,0,0)" xlink:href="#aH"/><use transform="matrix(0.06172839506172839,0,0,0.06172839506172839,4.876543209876543,0)" xlink:href="#aN"/></g><path fill="#333" d="M39-185c1-48 36-66 85-66 42 0 74 18 74 59 0 38-25 57-56 64 23 7 40 22 40 52 0 55-39 80-94 80C40 4 10-17 9-63c-1-44 31-60 63-71-20-7-33-25-33-51zm31 3c0 26 17 39 46 39 34 0 48-18 49-48 0-25-18-36-45-36-32 0-50 15-50 45zm79 105c0-29-19-41-50-41-37 0-57 20-57 55 0 29 19 42 49 42 36 0 58-19 58-56" id="bo"/><g id="S"><use transform="matrix(0.06172839506172839,0,0,0.06172839506172839,0,0)" xlink:href="#aR"/><use transform="matrix(0.06172839506172839,0,0,0.06172839506172839,12.345679012345679,0)" xlink:href="#bo"/><use transform="matrix(0.06172839506172839,0,0,0.06172839506172839,24.691358024691358,0)" xlink:href="#aY"/></g><g id="T"><use transform="matrix(0.06172839506172839,0,0,0.06172839506172839,0,0)" xlink:href="#aZ"/><use transform="matrix(0.06172839506172839,0,0,0.06172839506172839,11.11111111111111,0)" xlink:href="#aQ"/><use transform="matrix(0.06172839506172839,0,0,0.06172839506172839,23.45679012345679,0)" xlink:href="#aN"/><use transform="matrix(0.06172839506172839,0,0,0.06172839506172839,35.80246913580247,0)" xlink:href="#aJ"/></g><path fill="#333" d="M194-120c59 52 2 134-86 124-53-6-90-18-98-63l31-7c8 30 29 43 70 43 46 0 84-17 71-62-32-43-135-20-137-98-3-89 178-90 191-16l-30 9c-8-48-127-53-127 5 0 53 81 35 115 65" id="bp"/><g id="U"><use transform="matrix(0.06172839506172839,0,0,0.06172839506172839,0,0)" xlink:href="#bp"/><use transform="matrix(0.06172839506172839,0,0,0.06172839506172839,14.814814814814813,0)" xlink:href="#be"/><use transform="matrix(0.06172839506172839,0,0,0.06172839506172839,33.2716049382716,0)" xlink:href="#aH"/><use transform="matrix(0.06172839506172839,0,0,0.06172839506172839,38.148148148148145,0)" xlink:href="#aL"/><use transform="matrix(0.06172839506172839,0,0,0.06172839506172839,44.32098765432099,0)" xlink:href="#aV"/></g><g id="V"><use transform="matrix(0.06172839506172839,0,0,0.06172839506172839,0,0)" xlink:href="#aO"/><use transform="matrix(0.06172839506172839,0,0,0.06172839506172839,7.345679012345679,0)" xlink:href="#aI"/><use transform="matrix(0.06172839506172839,0,0,0.06172839506172839,18.45679012345679,0)" xlink:href="#aP"/><use transform="matrix(0.06172839506172839,0,0,0.06172839506172839,25.80246913580247,0)" xlink:href="#aJ"/><use transform="matrix(0.06172839506172839,0,0,0.06172839506172839,38.148148148148145,0)" xlink:href="#aQ"/><use transform="matrix(0.06172839506172839,0,0,0.06172839506172839,50.49382716049382,0)" xlink:href="#aL"/><use transform="matrix(0.06172839506172839,0,0,0.06172839506172839,56.666666666666664,0)" xlink:href="#aJ"/><use transform="matrix(0.06172839506172839,0,0,0.06172839506172839,69.01234567901234,0)" xlink:href="#aX"/></g><g id="W"><use transform="matrix(0.06172839506172839,0,0,0.06172839506172839,0,0)" xlink:href="#aH"/><use transform="matrix(0.06172839506172839,0,0,0.06172839506172839,4.876543209876543,0)" xlink:href="#aN"/></g><path fill="#333" d="M206-222l-58 71C115-108 89-62 76 0H43c20-96 77-159 130-221H37l5-27h169" id="bq"/><g id="X"><use transform="matrix(0.06172839506172839,0,0,0.06172839506172839,0,0)" xlink:href="#aR"/><use transform="matrix(0.06172839506172839,0,0,0.06172839506172839,12.345679012345679,0)" xlink:href="#bq"/><use transform="matrix(0.06172839506172839,0,0,0.06172839506172839,24.691358024691358,0)" xlink:href="#aY"/></g><g id="Y"><use transform="matrix(0.06172839506172839,0,0,0.06172839506172839,0,0)" xlink:href="#bn"/><use transform="matrix(0.06172839506172839,0,0,0.06172839506172839,15.987654320987653,0)" xlink:href="#aU"/><use transform="matrix(0.06172839506172839,0,0,0.06172839506172839,28.333333333333332,0)" xlink:href="#aJ"/></g><g id="Z"><use transform="matrix(0.06172839506172839,0,0,0.06172839506172839,0,0)" xlink:href="#bn"/><use transform="matrix(0.06172839506172839,0,0,0.06172839506172839,15.987654320987653,0)" xlink:href="#aU"/><use transform="matrix(0.06172839506172839,0,0,0.06172839506172839,28.333333333333332,0)" xlink:href="#aJ"/></g><path fill="#333" d="M180 0L97-118 63-96 45 0H11l48-248h34L69-126c44-43 94-81 141-122h43L121-137 219 0h-39" id="br"/><path fill="#333" d="M127 0L80-88 50-66 37 0H6l51-261h31L57-100l99-90h39l-93 82L161 0h-34" id="bs"/><g id="aa"><use transform="matrix(0.06172839506172839,0,0,0.06172839506172839,0,0)" xlink:href="#br"/><use transform="matrix(0.06172839506172839,0,0,0.06172839506172839,14.814814814814813,0)" xlink:href="#aH"/><use transform="matrix(0.06172839506172839,0,0,0.06172839506172839,19.691358024691354,0)" xlink:href="#aP"/><use transform="matrix(0.06172839506172839,0,0,0.06172839506172839,27.03703703703703,0)" xlink:href="#bs"/></g><path fill="#333" d="M76-167L44 0H12l33-167H18l4-23h27c3-47 25-81 82-69l-4 24c-35-8-44 15-46 45h37l-5 23H76" id="bt"/><path fill="#333" d="M67 3c-93-2-31-127-26-193h32L48-50c-3 39 53 32 70 12 30-34 30-101 43-152h32L157 0h-30c1-10 6-24 4-33-14 20-29 37-64 36" id="bu"/><g id="ab"><use transform="matrix(0.06172839506172839,0,0,0.06172839506172839,0,0)" xlink:href="#bt"/><use transform="matrix(0.06172839506172839,0,0,0.06172839506172839,6.172839506172839,0)" xlink:href="#aG"/><use transform="matrix(0.06172839506172839,0,0,0.06172839506172839,11.049382716049383,0)" xlink:href="#bu"/><use transform="matrix(0.06172839506172839,0,0,0.06172839506172839,23.395061728395063,0)" xlink:href="#bc"/><use transform="matrix(0.06172839506172839,0,0,0.06172839506172839,34.50617283950618,0)" xlink:href="#aV"/><use transform="matrix(0.06172839506172839,0,0,0.06172839506172839,46.851851851851855,0)" xlink:href="#aJ"/><use transform="matrix(0.06172839506172839,0,0,0.06172839506172839,59.19753086419753,0)" xlink:href="#aX"/></g><path fill="#333" d="M176 0l-54-107L30 0H-7l115-131-60-117h35l48 97 83-97h37L146-129 211 0h-35" id="bv"/><g id="ac"><use transform="matrix(0.06172839506172839,0,0,0.06172839506172839,0,0)" xlink:href="#bl"/><use transform="matrix(0.06172839506172839,0,0,0.06172839506172839,13.518518518518517,0)" xlink:href="#bv"/></g><path fill="#333" d="M40-53c7 41 73 38 88 5 14-18 25-43 30-72-13 20-31 35-60 35-44 0-69-27-69-70 0-57 32-96 91-96 58 0 76 44 72 106C186-56 125 37 35-9c-12-6-19-20-23-36zm62-57c67 0 87-116 17-116-39 0-58 29-58 71 1 27 12 45 41 45" id="bw"/><g id="ad"><use transform="matrix(0.06172839506172839,0,0,0.06172839506172839,0,0)" xlink:href="#aR"/><use transform="matrix(0.06172839506172839,0,0,0.06172839506172839,12.345679012345679,0)" xlink:href="#bw"/><use transform="matrix(0.06172839506172839,0,0,0.06172839506172839,24.691358024691358,0)" xlink:href="#aY"/></g><g id="ae"><use transform="matrix(0.06172839506172839,0,0,0.06172839506172839,0,0)" xlink:href="#br"/><use transform="matrix(0.06172839506172839,0,0,0.06172839506172839,14.814814814814813,0)" xlink:href="#aH"/><use transform="matrix(0.06172839506172839,0,0,0.06172839506172839,19.691358024691354,0)" xlink:href="#aP"/><use transform="matrix(0.06172839506172839,0,0,0.06172839506172839,27.03703703703703,0)" xlink:href="#bs"/></g><g id="af"><use transform="matrix(0.06172839506172839,0,0,0.06172839506172839,0,0)" xlink:href="#aZ"/><use transform="matrix(0.06172839506172839,0,0,0.06172839506172839,11.11111111111111,0)" xlink:href="#aH"/><use transform="matrix(0.06172839506172839,0,0,0.06172839506172839,15.987654320987653,0)" xlink:href="#aG"/><use transform="matrix(0.06172839506172839,0,0,0.06172839506172839,20.864197530864196,0)" xlink:href="#aG"/></g><path fill="#333" d="M188 0h-37l-8-164L71 0H34L18-190h31l8 164 75-164h34l8 164 74-164h31" id="bx"/><g id="ag"><use transform="matrix(0.06172839506172839,0,0,0.06172839506172839,0,0)" xlink:href="#ba"/><use transform="matrix(0.06172839506172839,0,0,0.06172839506172839,14.814814814814813,0)" xlink:href="#aP"/><use transform="matrix(0.06172839506172839,0,0,0.06172839506172839,22.160493827160494,0)" xlink:href="#aU"/><use transform="matrix(0.06172839506172839,0,0,0.06172839506172839,34.50617283950617,0)" xlink:href="#bx"/><use transform="matrix(0.06172839506172839,0,0,0.06172839506172839,50.49382716049382,0)" xlink:href="#aN"/></g><path fill="#333" d="M16-82c0-90 25-169 113-169 48 0 68 33 68 82C197-79 170 4 84 4 37 4 16-31 16-82zm30 5c0 32 11 55 40 55 69 0 76-79 80-149 2-32-10-55-39-55-69 0-81 81-81 149" id="by"/><g id="ah"><use transform="matrix(0.06172839506172839,0,0,0.06172839506172839,0,0)" xlink:href="#aR"/><use transform="matrix(0.06172839506172839,0,0,0.06172839506172839,12.345679012345679,0)" xlink:href="#aS"/><use transform="matrix(0.06172839506172839,0,0,0.06172839506172839,24.691358024691358,0)" xlink:href="#by"/><use transform="matrix(0.06172839506172839,0,0,0.06172839506172839,37.03703703703704,0)" xlink:href="#aY"/></g><path d="M143 4C61 4 22-44 18-125c-5-107 100-154 193-111 17 8 29 25 37 43l-32 9c-13-25-37-40-76-40-61 0-88 39-88 99 0 61 29 100 91 101 35 0 62-11 79-27v-45h-74v-28h105v86C228-13 192 4 143 4" id="bz"/><path d="M141-36C126-15 110 5 73 4 37 3 15-17 15-53c-1-64 63-63 125-63 3-35-9-54-41-54-24 1-41 7-42 31l-33-3c5-37 33-52 76-52 45 0 72 20 72 64v82c-1 20 7 32 28 27v20c-31 9-61-2-59-35zM48-53c0 20 12 33 32 33 41-3 63-29 60-74-43 2-92-5-92 41" id="bA"/><path d="M115-194c55 1 70 41 70 98S169 2 115 4C84 4 66-9 55-30l1 105H24l-1-265h31l2 30c10-21 28-34 59-34zm-8 174c40 0 45-34 45-75s-6-73-45-74c-42 0-51 32-51 76 0 43 10 73 51 73" id="bB"/><g id="ai"><use transform="matrix(0.06172839506172839,0,0,0.06172839506172839,0,0)" xlink:href="#bz"/><use transform="matrix(0.06172839506172839,0,0,0.06172839506172839,17.28395061728395,0)" xlink:href="#bA"/><use transform="matrix(0.06172839506172839,0,0,0.06172839506172839,29.629629629629626,0)" xlink:href="#bB"/></g><path d="M63-220v92h138v28H63V0H30v-248h175v28H63" id="bC"/><path d="M24 0v-261h32V0H24" id="bD"/><path d="M84 4C-5 8 30-112 23-190h32v120c0 31 7 50 39 49 72-2 45-101 50-169h31l1 190h-30c-1-10 1-25-2-33-11 22-28 36-60 37" id="bE"/><path d="M135-143c-3-34-86-38-87 0 15 53 115 12 119 90S17 21 10-45l28-5c4 36 97 45 98 0-10-56-113-15-118-90-4-57 82-63 122-42 12 7 21 19 24 35" id="bF"/><path d="M106-169C34-169 62-67 57 0H25v-261h32l-1 103c12-21 28-36 61-36 89 0 53 116 60 194h-32v-121c2-32-8-49-39-48" id="bG"/><path d="M100-194c63 0 86 42 84 106H49c0 40 14 67 53 68 26 1 43-12 49-29l28 8c-11 28-37 45-77 45C44 4 14-33 15-96c1-61 26-98 85-98zm52 81c6-60-76-77-97-28-3 7-6 17-6 28h103" id="bH"/><path d="M85-194c31 0 48 13 60 33l-1-100h32l1 261h-30c-2-10 0-23-3-31C134-8 116 4 85 4 32 4 16-35 15-94c0-66 23-100 70-100zm9 24c-40 0-46 34-46 75 0 40 6 74 45 74 42 0 51-32 51-76 0-42-9-74-50-73" id="bI"/><g id="aj"><use transform="matrix(0.06172839506172839,0,0,0.06172839506172839,0,0)" xlink:href="#bC"/><use transform="matrix(0.06172839506172839,0,0,0.06172839506172839,13.518518518518517,0)" xlink:href="#bD"/><use transform="matrix(0.06172839506172839,0,0,0.06172839506172839,18.39506172839506,0)" xlink:href="#bE"/><use transform="matrix(0.06172839506172839,0,0,0.06172839506172839,30.74074074074074,0)" xlink:href="#bF"/><use transform="matrix(0.06172839506172839,0,0,0.06172839506172839,41.85185185185185,0)" xlink:href="#bG"/><use transform="matrix(0.06172839506172839,0,0,0.06172839506172839,54.197530864197525,0)" xlink:href="#bH"/><use transform="matrix(0.06172839506172839,0,0,0.06172839506172839,66.5432098765432,0)" xlink:href="#bI"/></g><path fill="#fff" d="M140-251c81 0 123 46 123 126C263-46 219 4 140 4 59 4 17-45 17-125s42-126 123-126zm0 227c63 0 89-41 89-101s-29-99-89-99c-61 0-89 39-89 99S79-25 140-24" id="bJ"/><path fill="#fff" d="M101-234c-31-9-42 10-38 44h38v23H63V0H32v-167H5v-23h27c-7-52 17-82 69-68v24" id="bK"/><path fill="#fff" d="M135-143c-3-34-86-38-87 0 15 53 115 12 119 90S17 21 10-45l28-5c4 36 97 45 98 0-10-56-113-15-118-90-4-57 82-63 122-42 12 7 21 19 24 35" id="bL"/><path fill="#fff" d="M100-194c63 0 86 42 84 106H49c0 40 14 67 53 68 26 1 43-12 49-29l28 8c-11 28-37 45-77 45C44 4 14-33 15-96c1-61 26-98 85-98zm52 81c6-60-76-77-97-28-3 7-6 17-6 28h103" id="bM"/><path fill="#fff" d="M59-47c-2 24 18 29 38 22v24C64 9 27 4 27-40v-127H5v-23h24l9-43h21v43h35v23H59v120" id="bN"/><g id="ak"><use transform="matrix(0.06172839506172839,0,0,0.06172839506172839,0,0)" xlink:href="#bJ"/><use transform="matrix(0.06172839506172839,0,0,0.06172839506172839,17.28395061728395,0)" xlink:href="#bK"/><use transform="matrix(0.06172839506172839,0,0,0.06172839506172839,23.02469135802469,0)" xlink:href="#bK"/><use transform="matrix(0.06172839506172839,0,0,0.06172839506172839,29.197530864197528,0)" xlink:href="#bL"/><use transform="matrix(0.06172839506172839,0,0,0.06172839506172839,40.30864197530864,0)" xlink:href="#bM"/><use transform="matrix(0.06172839506172839,0,0,0.06172839506172839,52.654320987654316,0)" xlink:href="#bN"/></g><path fill="#fff" d="M30 0v-248h187v28H63v79h144v27H63v87h162V0H30" id="bO"/><path fill="#fff" d="M108 0H70L1-190h34L89-25l56-165h34" id="bP"/><path fill="#fff" d="M117-194c89-4 53 116 60 194h-32v-121c0-31-8-49-39-48C34-167 62-67 57 0H25l-1-190h30c1 10-1 24 2 32 11-22 29-35 61-36" id="bQ"/><g id="al"><use transform="matrix(0.06172839506172839,0,0,0.06172839506172839,0,0)" xlink:href="#bO"/><use transform="matrix(0.06172839506172839,0,0,0.06172839506172839,14.814814814814813,0)" xlink:href="#bP"/><use transform="matrix(0.06172839506172839,0,0,0.06172839506172839,25.925925925925924,0)" xlink:href="#bM"/><use transform="matrix(0.06172839506172839,0,0,0.06172839506172839,38.2716049382716,0)" xlink:href="#bQ"/><use transform="matrix(0.06172839506172839,0,0,0.06172839506172839,50.61728395061728,0)" xlink:href="#bN"/></g><path d="M30-248c87 1 191-15 191 75 0 78-77 80-158 76V0H30v-248zm33 125c57 0 124 11 124-50 0-59-68-47-124-48v98" id="bR"/><path d="M114-163C36-179 61-72 57 0H25l-1-190h30c1 12-1 29 2 39 6-27 23-49 58-41v29" id="bS"/><path d="M100-194c62-1 85 37 85 99 1 63-27 99-86 99S16-35 15-95c0-66 28-99 85-99zM99-20c44 1 53-31 53-75 0-43-8-75-51-75s-53 32-53 75 10 74 51 75" id="bT"/><path d="M96-169c-40 0-48 33-48 73s9 75 48 75c24 0 41-14 43-38l32 2c-6 37-31 61-74 61-59 0-76-41-82-99-10-93 101-131 147-64 4 7 5 14 7 22l-32 3c-4-21-16-35-41-35" id="bU"/><g id="am"><use transform="matrix(0.06172839506172839,0,0,0.06172839506172839,0,0)" xlink:href="#bR"/><use transform="matrix(0.06172839506172839,0,0,0.06172839506172839,14.814814814814813,0)" xlink:href="#bS"/><use transform="matrix(0.06172839506172839,0,0,0.06172839506172839,22.160493827160494,0)" xlink:href="#bT"/><use transform="matrix(0.06172839506172839,0,0,0.06172839506172839,34.50617283950617,0)" xlink:href="#bU"/><use transform="matrix(0.06172839506172839,0,0,0.06172839506172839,45.61728395061728,0)" xlink:href="#bH"/><use transform="matrix(0.06172839506172839,0,0,0.06172839506172839,57.962962962962955,0)" xlink:href="#bF"/><use transform="matrix(0.06172839506172839,0,0,0.06172839506172839,69.07407407407406,0)" xlink:href="#bF"/><use transform="matrix(0.06172839506172839,0,0,0.06172839506172839,80.18518518518518,0)" xlink:href="#bH"/><use transform="matrix(0.06172839506172839,0,0,0.06172839506172839,92.53086419753086,0)" xlink:href="#bI"/></g><path d="M185-189c-5-48-123-54-124 2 14 75 158 14 163 119 3 78-121 87-175 55-17-10-28-26-33-46l33-7c5 56 141 63 141-1 0-78-155-14-162-118-5-82 145-84 179-34 5 7 8 16 11 25" id="bV"/><path d="M24-231v-30h32v30H24zM24 0v-190h32V0H24" id="bW"/><path d="M115-194c53 0 69 39 70 98 0 66-23 100-70 100C84 3 66-7 56-30L54 0H23l1-261h32v101c10-23 28-34 59-34zm-8 174c40 0 45-34 45-75 0-40-5-75-45-74-42 0-51 32-51 76 0 43 10 73 51 73" id="bX"/><g id="an"><use transform="matrix(0.049382716049382706,0,0,0.049382716049382706,0,0)" xlink:href="#bV"/><use transform="matrix(0.049382716049382706,0,0,0.049382716049382706,11.85185185185185,0)" xlink:href="#bU"/><use transform="matrix(0.049382716049382706,0,0,0.049382716049382706,20.740740740740737,0)" xlink:href="#bS"/><use transform="matrix(0.049382716049382706,0,0,0.049382716049382706,26.617283950617278,0)" xlink:href="#bW"/><use transform="matrix(0.049382716049382706,0,0,0.049382716049382706,30.518518518518512,0)" xlink:href="#bX"/><use transform="matrix(0.049382716049382706,0,0,0.049382716049382706,40.39506172839505,0)" xlink:href="#bH"/></g><path d="M117-194c89-4 53 116 60 194h-32v-121c0-31-8-49-39-48C34-167 62-67 57 0H25l-1-190h30c1 10-1 24 2 32 11-22 29-35 61-36" id="bY"/><path d="M177-190C167-65 218 103 67 71c-23-6-38-20-44-43l32-5c15 47 100 32 89-28v-30C133-14 115 1 83 1 29 1 15-40 15-95c0-56 16-97 71-98 29-1 48 16 59 35 1-10 0-23 2-32h30zM94-22c36 0 50-32 50-73 0-42-14-75-50-75-39 0-46 34-46 75s6 73 46 73" id="bZ"/><g id="ao"><use transform="matrix(0.049382716049382706,0,0,0.049382716049382706,0,0)" xlink:href="#bB"/><use transform="matrix(0.049382716049382706,0,0,0.049382716049382706,9.87654320987654,0)" xlink:href="#bS"/><use transform="matrix(0.049382716049382706,0,0,0.049382716049382706,15.75308641975308,0)" xlink:href="#bT"/><use transform="matrix(0.049382716049382706,0,0,0.049382716049382706,25.629629629629626,0)" xlink:href="#bU"/><use transform="matrix(0.049382716049382706,0,0,0.049382716049382706,34.51851851851851,0)" xlink:href="#bH"/><use transform="matrix(0.049382716049382706,0,0,0.049382716049382706,44.39506172839505,0)" xlink:href="#bF"/><use transform="matrix(0.049382716049382706,0,0,0.049382716049382706,53.28395061728394,0)" xlink:href="#bF"/><use transform="matrix(0.049382716049382706,0,0,0.049382716049382706,62.172839506172814,0)" xlink:href="#bW"/><use transform="matrix(0.049382716049382706,0,0,0.049382716049382706,66.07407407407405,0)" xlink:href="#bY"/><use transform="matrix(0.049382716049382706,0,0,0.049382716049382706,75.95061728395059,0)" xlink:href="#bZ"/></g><path d="M59-47c-2 24 18 29 38 22v24C64 9 27 4 27-40v-127H5v-23h24l9-43h21v43h35v23H59v120" id="ca"/><path d="M210-169c-67 3-38 105-44 169h-31v-121c0-29-5-50-35-48C34-165 62-65 56 0H25l-1-190h30c1 10-1 24 2 32 10-44 99-50 107 0 11-21 27-35 58-36 85-2 47 119 55 194h-31v-121c0-29-5-49-35-48" id="cb"/><g id="ap"><use transform="matrix(0.049382716049382706,0,0,0.049382716049382706,0,0)" xlink:href="#ca"/><use transform="matrix(0.049382716049382706,0,0,0.049382716049382706,4.93827160493827,0)" xlink:href="#bW"/><use transform="matrix(0.049382716049382706,0,0,0.049382716049382706,8.839506172839505,0)" xlink:href="#cb"/><use transform="matrix(0.049382716049382706,0,0,0.049382716049382706,23.604938271604933,0)" xlink:href="#bH"/></g><path d="M212-179c-10-28-35-45-73-45-59 0-87 40-87 99 0 60 29 101 89 101 43 0 62-24 78-52l27 14C228-24 195 4 139 4 59 4 22-46 18-125c-6-104 99-153 187-111 19 9 31 26 39 46" id="cc"/><g id="aq"><use transform="matrix(0.049382716049382706,0,0,0.049382716049382706,0,0)" xlink:href="#cc"/><use transform="matrix(0.049382716049382706,0,0,0.049382716049382706,12.790123456790122,0)" xlink:href="#bT"/><use transform="matrix(0.049382716049382706,0,0,0.049382716049382706,22.666666666666664,0)" xlink:href="#bY"/><use transform="matrix(0.049382716049382706,0,0,0.049382716049382706,32.5432098765432,0)" xlink:href="#ca"/><use transform="matrix(0.049382716049382706,0,0,0.049382716049382706,37.481481481481474,0)" xlink:href="#bS"/><use transform="matrix(0.049382716049382706,0,0,0.049382716049382706,43.35802469135802,0)" xlink:href="#bA"/><use transform="matrix(0.049382716049382706,0,0,0.049382716049382706,53.234567901234556,0)" xlink:href="#bU"/><use transform="matrix(0.049382716049382706,0,0,0.049382716049382706,62.12345679012344,0)" xlink:href="#ca"/></g><g id="ar"><use transform="matrix(0.049382716049382706,0,0,0.049382716049382706,0,0)" xlink:href="#bU"/><use transform="matrix(0.049382716049382706,0,0,0.049382716049382706,8.888888888888888,0)" xlink:href="#bS"/><use transform="matrix(0.049382716049382706,0,0,0.049382716049382706,14.765432098765428,0)" xlink:href="#bH"/><use transform="matrix(0.049382716049382706,0,0,0.049382716049382706,24.64197530864197,0)" xlink:href="#bA"/><use transform="matrix(0.049382716049382706,0,0,0.049382716049382706,34.51851851851851,0)" xlink:href="#ca"/><use transform="matrix(0.049382716049382706,0,0,0.049382716049382706,39.456790123456784,0)" xlink:href="#bH"/></g><g id="as"><use transform="matrix(0.049382716049382706,0,0,0.049382716049382706,0,0)" xlink:href="#bA"/><use transform="matrix(0.049382716049382706,0,0,0.049382716049382706,9.87654320987654,0)" xlink:href="#bY"/><use transform="matrix(0.049382716049382706,0,0,0.049382716049382706,19.75308641975308,0)" xlink:href="#bI"/></g><path d="M108 0H70L1-190h34L89-25l56-165h34" id="cd"/><g id="at"><use transform="matrix(0.049382716049382706,0,0,0.049382716049382706,0,0)" xlink:href="#bA"/><use transform="matrix(0.049382716049382706,0,0,0.049382716049382706,9.87654320987654,0)" xlink:href="#bS"/><use transform="matrix(0.049382716049382706,0,0,0.049382716049382706,15.75308641975308,0)" xlink:href="#bU"/><use transform="matrix(0.049382716049382706,0,0,0.049382716049382706,24.641975308641968,0)" xlink:href="#bG"/><use transform="matrix(0.049382716049382706,0,0,0.049382716049382706,34.518518518518505,0)" xlink:href="#bW"/><use transform="matrix(0.049382716049382706,0,0,0.049382716049382706,38.41975308641974,0)" xlink:href="#cd"/><use transform="matrix(0.049382716049382706,0,0,0.049382716049382706,47.308641975308625,0)" xlink:href="#bA"/><use transform="matrix(0.049382716049382706,0,0,0.049382716049382706,57.18518518518516,0)" xlink:href="#bD"/></g><path d="M266 0h-40l-56-210L115 0H75L2-248h35L96-30l15-64 43-154h32l59 218 59-218h35" id="ce"/><path d="M143 0L79-87 56-68V0H24v-261h32v163l83-92h37l-77 82L181 0h-38" id="cf"/><g id="au"><use transform="matrix(0.06172839506172839,0,0,0.06172839506172839,0,0)" xlink:href="#ce"/><use transform="matrix(0.06172839506172839,0,0,0.06172839506172839,20.123456790123456,0)" xlink:href="#bA"/><use transform="matrix(0.06172839506172839,0,0,0.06172839506172839,32.46913580246913,0)" xlink:href="#ca"/><use transform="matrix(0.06172839506172839,0,0,0.06172839506172839,38.641975308641975,0)" xlink:href="#bH"/><use transform="matrix(0.06172839506172839,0,0,0.06172839506172839,50.98765432098765,0)" xlink:href="#bS"/><use transform="matrix(0.06172839506172839,0,0,0.06172839506172839,58.33333333333333,0)" xlink:href="#cb"/><use transform="matrix(0.06172839506172839,0,0,0.06172839506172839,76.79012345679011,0)" xlink:href="#bA"/><use transform="matrix(0.06172839506172839,0,0,0.06172839506172839,89.1358024691358,0)" xlink:href="#bS"/><use transform="matrix(0.06172839506172839,0,0,0.06172839506172839,96.48148148148148,0)" xlink:href="#cf"/></g></defs></g></svg>