<svg xmlns="http://www.w3.org/2000/svg" xmlns:xlink="http://www.w3.org/1999/xlink" xmlns:lucid="lucid" width="800" height="758.67"><g transform="translate(-20 -20)" lucid:page-tab-id="0_0"><path d="M460 40.67h340v600H460zM40 40.67h340v600H40z" stroke="#b2b2b2" fill="#e5e5e5"/><path d="M60 321.33h120v60H60z" stroke="#3aa6dd" fill="#3aa6dd" fill-opacity=".4"/><use xlink:href="#a" transform="matrix(1,0,0,1,65,326.333333333314) translate(9.074999999999996 30.025)"/><use xlink:href="#b" transform="matrix(1,0,0,1,65,326.333333333314) translate(39.074999999999996 30.025)"/><path d="M660 321.33h120.6v60H660z" stroke="#3aa6dd" fill="#3aa6dd" fill-opacity=".4"/><use xlink:href="#c" transform="matrix(1,0,0,1,665,326.333333333314) translate(1.5999999999999943 30.025)"/><use xlink:href="#b" transform="matrix(1,0,0,1,665,326.333333333314) translate(47.55 30.025)"/><path d="M60 561.33h120v60H60z" stroke="#fcc438" fill="#fcc438" fill-opacity=".4"/><use xlink:href="#a" transform="matrix(1,0,0,1,65,566.3333333333139) translate(24 17.525)"/><use xlink:href="#d" transform="matrix(1,0,0,1,65,566.3333333333139) translate(54 17.525)"/><use xlink:href="#e" transform="matrix(1,0,0,1,65,566.3333333333139) translate(34.5 39.125)"/><path d="M60 461.33h120v60H60z" stroke="#de5f85" fill="#c92d39" fill-opacity=".3"/><use xlink:href="#f" transform="matrix(1,0,0,1,65,466.33333333331393) translate(5.074999999999996 30.025)"/><use xlink:href="#g" transform="matrix(1,0,0,1,65,466.33333333331393) translate(94.92500000000001 30.025)"/><path d="M120 559.83v-37" stroke="#000" stroke-width="2" fill="none"/><path d="M121 560.83h-2v-1.02h2zM121 522.86h-2v-1.03h2z"/><path d="M60 59.33h120v60H60z" stroke="#fcc438" fill="#fcc438" fill-opacity=".4"/><use xlink:href="#a" transform="matrix(1,0,0,1,65,64.33333333331393) translate(24 17.525)"/><use xlink:href="#d" transform="matrix(1,0,0,1,65,64.33333333331393) translate(54 17.525)"/><use xlink:href="#h" transform="matrix(1,0,0,1,65,64.33333333331393) translate(3.549999999999997 39.125)"/><use xlink:href="#i" transform="matrix(1,0,0,1,65,64.33333333331393) translate(57.55 39.125)"/><path d="M60 180h120v60H60z" stroke="#de5f85" fill="#c92d39" fill-opacity=".3"/><use xlink:href="#f" transform="matrix(1,0,0,1,65,184.99999999998062) translate(5.074999999999996 30.025)"/><use xlink:href="#j" transform="matrix(1,0,0,1,65,184.99999999998062) translate(94.92500000000001 30.025)"/><path d="M120 120.83v57.67" stroke="#000" stroke-width="2" fill="none"/><path d="M121 120.86h-2v-1.03h2zM121 179.5h-2v-1.03h2z"/><path d="M240 441.33h120v60H240z" stroke="#fcc438" fill="#fcc438" fill-opacity=".4"/><use xlink:href="#a" transform="matrix(1,0,0,1,245,446.333333333314) translate(24 17.525)"/><use xlink:href="#d" transform="matrix(1,0,0,1,245,446.333333333314) translate(54 17.525)"/><use xlink:href="#k" transform="matrix(1,0,0,1,245,446.333333333314) translate(26.549999999999997 39.125)"/><path d="M240 321.33h120v60H240z" stroke="#de5f85" fill="#c92d39" fill-opacity=".3"/><use xlink:href="#f" transform="matrix(1,0,0,1,245,326.333333333314) translate(5.074999999999996 30.025)"/><use xlink:href="#l" transform="matrix(1,0,0,1,245,326.333333333314) translate(94.92500000000001 30.025)"/><path d="M300 439.83v-57" stroke="#000" stroke-width="2" fill="none"/><path d="M301 440.83h-2v-1.02h2zM301 382.86h-2v-1.03h2z"/><path d="M660 180.67h120v60H660z" stroke="#de5f85" fill="#c92d39" fill-opacity=".3"/><use xlink:href="#f" transform="matrix(1,0,0,1,665,185.66666666664725) translate(5.074999999999996 30.025)"/><use xlink:href="#m" transform="matrix(1,0,0,1,665,185.66666666664725) translate(94.92500000000001 30.025)"/><path d="M660 59.33h120.6v60H660z" stroke="#fcc438" fill="#fcc438" fill-opacity=".4"/><use xlink:href="#c" transform="matrix(1,0,0,1,665,64.33333333331393) translate(16.525 17.525)"/><use xlink:href="#d" transform="matrix(1,0,0,1,665,64.33333333331393) translate(62.475 17.525)"/><use xlink:href="#h" transform="matrix(1,0,0,1,665,64.33333333331393) translate(4.049999999999997 39.125)"/><use xlink:href="#i" transform="matrix(1,0,0,1,665,64.33333333331393) translate(58.05 39.125)"/><path d="M720.3 120.83V150h-.3v29.17" stroke="#000" stroke-width="2" fill="none"/><path d="M721.3 120.86h-2v-1.03h2zM721 180.17h-2v-1.03h2z"/><path d="M480 321.33h120v60H480z" stroke="#de5f85" fill="#c92d39" fill-opacity=".3"/><use xlink:href="#f" transform="matrix(1,0,0,1,485,326.333333333314) translate(5.074999999999996 30.025)"/><use xlink:href="#n" transform="matrix(1,0,0,1,485,326.333333333314) translate(94.92500000000001 30.025)"/><path d="M480 441.33h120v60H480z" stroke="#fcc438" fill="#fcc438" fill-opacity=".4"/><use xlink:href="#c" transform="matrix(1,0,0,1,485,446.333333333314) translate(16.025 17.525)"/><use xlink:href="#d" transform="matrix(1,0,0,1,485,446.333333333314) translate(61.975 17.525)"/><use xlink:href="#k" transform="matrix(1,0,0,1,485,446.333333333314) translate(26.549999999999997 39.125)"/><path d="M540 439.83v-57" stroke="#000" stroke-width="2" fill="none"/><path d="M541 440.83h-2v-1.02h2zM541 382.86h-2v-1.03h2z"/><path d="M120 382.83v77" stroke="#000" stroke-width="2" fill="none"/><path d="M121 382.86h-2v-1.03h2zM121 460.83h-2v-1.02h2z"/><path d="M181.5 351.33h57" stroke="#000" stroke-width="2" fill="none"/><path d="M181.53 352.33h-1.03v-2h1.03zM239.5 352.33h-1.03v-2h1.03z"/><path d="M120 319.83V241.5" stroke="#000" stroke-width="2" fill="none"/><path d="M121 320.83h-2v-1.02h2zM121 241.53h-2v-1.03h2z"/><path d="M658.5 351.33h-57" stroke="#000" stroke-width="2" fill="none"/><path d="M659.5 352.33h-1.03v-2h1.03zM601.53 352.33h-1.03v-2h1.03z"/><path d="M720 319.83v-77.66" stroke="#000" stroke-width="2" fill="none"/><path d="M721 320.83h-2v-1.02h2zM721 242.2h-2v-1.03h2z"/><path d="M429.58 530.25c0 5.3-4.3 9.58-9.58 9.58-5.3 0-9.58-4.3-9.58-9.58 0-5.3 4.3-9.58 9.58-9.58 5.3 0 9.58 4.3 9.58 9.58z" stroke="#000" stroke-width="2" fill="#fff"/><path d="M420 539.83v26.84l20 30.66m-20-30.66l-20 30.66m0-47.9h40" stroke="#000" stroke-width="2" fill="none"/><path d="M400 520.67h40v98.66h-40z" fill="none"/><use xlink:href="#o" transform="matrix(1,0,0,1,320,597.333333333275) translate(71.55 14.6)"/><path d="M429.58 49.58c0 5.3-4.3 9.6-9.58 9.6-5.3 0-9.58-4.3-9.58-9.6S414.72 40 420 40c5.3 0 9.58 4.3 9.58 9.58z" stroke="#000" stroke-width="2" fill="#fff"/><path d="M420 59.17V86l20 30.67M420 86l-20 30.67m0-47.92h40" stroke="#000" stroke-width="2" fill="none"/><path d="M400 40h40v98.67h-40z" fill="none"/><use xlink:href="#p" transform="matrix(1,0,0,1,320,116.66666666662786) translate(75.5 14.4)"/><use xlink:href="#q" transform="matrix(1,0,0,1,320,116.66666666662786) translate(75.55 36)"/><path d="M399 89.33H181.5" stroke="#000" stroke-width="2" fill="none"/><path d="M403 90.33h-4.03v-2H403zM181.53 90.33h-1.03v-2h1.03z"/><path d="M399 570h-99v-67.17" stroke="#000" stroke-width="2" fill="none"/><path d="M403 571h-4.03v-2H403zM301 502.86h-2v-1.03h2z"/><path d="M540 502.83V570h-99" stroke="#000" stroke-width="2" fill="none"/><path d="M541 502.86h-2v-1.03h2zM441.03 571H437v-2h4.03z"/><path d="M441 89.33h217.5" stroke="#000" stroke-width="2" fill="none"/><path d="M441.03 90.33H437v-2h4.03zM659.5 90.33h-1.03v-2h1.03z"/><path d="M229.58 669.58c0 5.3-4.3 9.6-9.58 9.6-5.3 0-9.58-4.3-9.58-9.6s4.3-9.58 9.58-9.58c5.3 0 9.58 4.3 9.58 9.58z" stroke="#000" stroke-width="2" fill="#fff"/><path d="M220 679.17V706l20 30.67M220 706l-20 30.67m0-47.92h40" stroke="#000" stroke-width="2" fill="none"/><path d="M200 660h40v98.67h-40z" fill="none"/><g><use xlink:href="#r" transform="matrix(1,0,0,1,120,736.6666666666279) translate(79.5 14.6)"/></g><path d="M120 622.83v86.5h79" stroke="#000" stroke-width="2" fill="none"/><path d="M121 622.86h-2v-1.03h2zM203 710.33h-4.03v-2H203z"/><defs><path d="M33 0v-248h34V0H33" id="s"/><path d="M100-194c62-1 85 37 85 99 1 63-27 99-86 99S16-35 15-95c0-66 28-99 85-99zM99-20c44 1 53-31 53-75 0-43-8-75-51-75s-53 32-53 75 10 74 51 75" id="t"/><path d="M84 4C-5 8 30-112 23-190h32v120c0 31 7 50 39 49 72-2 45-101 50-169h31l1 190h-30c-1-10 1-25-2-33-11 22-28 36-60 37" id="u"/><g id="a"><use transform="matrix(0.05,0,0,0.05,0,0)" xlink:href="#s"/><use transform="matrix(0.05,0,0,0.05,5,0)" xlink:href="#t"/><use transform="matrix(0.05,0,0,0.05,15,0)" xlink:href="#u"/></g><path d="M30-248c118-7 216 8 213 122C240-48 200 0 122 0H30v-248zM63-27c89 8 146-16 146-99s-60-101-146-95v194" id="v"/><path d="M210-169c-67 3-38 105-44 169h-31v-121c0-29-5-50-35-48C34-165 62-65 56 0H25l-1-190h30c1 10-1 24 2 32 10-44 99-50 107 0 11-21 27-35 58-36 85-2 47 119 55 194h-31v-121c0-29-5-49-35-48" id="w"/><path d="M141-36C126-15 110 5 73 4 37 3 15-17 15-53c-1-64 63-63 125-63 3-35-9-54-41-54-24 1-41 7-42 31l-33-3c5-37 33-52 76-52 45 0 72 20 72 64v82c-1 20 7 32 28 27v20c-31 9-61-2-59-35zM48-53c0 20 12 33 32 33 41-3 63-29 60-74-43 2-92-5-92 41" id="x"/><path d="M24-231v-30h32v30H24zM24 0v-190h32V0H24" id="y"/><path d="M117-194c89-4 53 116 60 194h-32v-121c0-31-8-49-39-48C34-167 62-67 57 0H25l-1-190h30c1 10-1 24 2 32 11-22 29-35 61-36" id="z"/><g id="b"><use transform="matrix(0.05,0,0,0.05,0,0)" xlink:href="#v"/><use transform="matrix(0.05,0,0,0.05,12.950000000000001,0)" xlink:href="#t"/><use transform="matrix(0.05,0,0,0.05,22.950000000000003,0)" xlink:href="#w"/><use transform="matrix(0.05,0,0,0.05,37.900000000000006,0)" xlink:href="#x"/><use transform="matrix(0.05,0,0,0.05,47.900000000000006,0)" xlink:href="#y"/><use transform="matrix(0.05,0,0,0.05,51.85,0)" xlink:href="#z"/></g><path d="M30-248c87 1 191-15 191 75 0 78-77 80-158 76V0H30v-248zm33 125c57 0 124 11 124-50 0-59-68-47-124-48v98" id="A"/><path d="M59-47c-2 24 18 29 38 22v24C64 9 27 4 27-40v-127H5v-23h24l9-43h21v43h35v23H59v120" id="B"/><g id="c"><use transform="matrix(0.05,0,0,0.05,0,0)" xlink:href="#A"/><use transform="matrix(0.05,0,0,0.05,12,0)" xlink:href="#x"/><use transform="matrix(0.05,0,0,0.05,22,0)" xlink:href="#y"/><use transform="matrix(0.05,0,0,0.05,25.950000000000003,0)" xlink:href="#z"/><use transform="matrix(0.05,0,0,0.05,35.95,0)" xlink:href="#B"/></g><path d="M205 0l-28-72H64L36 0H1l101-248h38L239 0h-34zm-38-99l-47-123c-12 45-31 82-46 123h93" id="C"/><path d="M115-194c55 1 70 41 70 98S169 2 115 4C84 4 66-9 55-30l1 105H24l-1-265h31l2 30c10-21 28-34 59-34zm-8 174c40 0 45-34 45-75s-6-73-45-74c-42 0-51 32-51 76 0 43 10 73 51 73" id="D"/><g id="d"><use transform="matrix(0.05,0,0,0.05,0,0)" xlink:href="#C"/><use transform="matrix(0.05,0,0,0.05,12,0)" xlink:href="#D"/><use transform="matrix(0.05,0,0,0.05,22,0)" xlink:href="#D"/></g><path d="M160-131c35 5 61 23 61 61C221 17 115-2 30 0v-248c76 3 177-17 177 60 0 33-19 50-47 57zm-97-11c50-1 110 9 110-42 0-47-63-36-110-37v79zm0 115c55-2 124 14 124-45 0-56-70-42-124-44v89" id="E"/><path d="M143 0L79-87 56-68V0H24v-261h32v163l83-92h37l-77 82L181 0h-38" id="F"/><g id="e"><use transform="matrix(0.05,0,0,0.05,0,0)" xlink:href="#E"/><use transform="matrix(0.05,0,0,0.05,12,0)" xlink:href="#x"/><use transform="matrix(0.05,0,0,0.05,22,0)" xlink:href="#z"/><use transform="matrix(0.05,0,0,0.05,32,0)" xlink:href="#F"/></g><path d="M114-163C36-179 61-72 57 0H25l-1-190h30c1 12-1 29 2 39 6-27 23-49 58-41v29" id="G"/><path d="M96-169c-40 0-48 33-48 73s9 75 48 75c24 0 41-14 43-38l32 2c-6 37-31 61-74 61-59 0-76-41-82-99-10-93 101-131 147-64 4 7 5 14 7 22l-32 3c-4-21-16-35-41-35" id="H"/><g id="f"><use transform="matrix(0.05,0,0,0.05,0,0)" xlink:href="#A"/><use transform="matrix(0.05,0,0,0.05,12,0)" xlink:href="#x"/><use transform="matrix(0.05,0,0,0.05,22,0)" xlink:href="#G"/><use transform="matrix(0.05,0,0,0.05,27.950000000000003,0)" xlink:href="#B"/><use transform="matrix(0.05,0,0,0.05,32.95,0)" xlink:href="#y"/><use transform="matrix(0.05,0,0,0.05,36.900000000000006,0)" xlink:href="#H"/><use transform="matrix(0.05,0,0,0.05,45.900000000000006,0)" xlink:href="#y"/><use transform="matrix(0.05,0,0,0.05,49.85000000000001,0)" xlink:href="#D"/><use transform="matrix(0.05,0,0,0.05,59.85,0)" xlink:href="#x"/><use transform="matrix(0.05,0,0,0.05,69.85000000000001,0)" xlink:href="#z"/><use transform="matrix(0.05,0,0,0.05,79.85000000000001,0)" xlink:href="#B"/></g><path d="M27 0v-27h64v-190l-56 39v-29l58-41h29v221h61V0H27" id="I"/><use transform="matrix(0.05,0,0,0.05,0,0)" xlink:href="#I" id="g"/><path d="M106-169C34-169 62-67 57 0H25v-261h32l-1 103c12-21 28-36 61-36 89 0 53 116 60 194h-32v-121c2-32-8-49-39-48" id="J"/><path d="M135-143c-3-34-86-38-87 0 15 53 115 12 119 90S17 21 10-45l28-5c4 36 97 45 98 0-10-56-113-15-118-90-4-57 82-63 122-42 12 7 21 19 24 35" id="K"/><path d="M100-194c63 0 86 42 84 106H49c0 40 14 67 53 68 26 1 43-12 49-29l28 8c-11 28-37 45-77 45C44 4 14-33 15-96c1-61 26-98 85-98zm52 81c6-60-76-77-97-28-3 7-6 17-6 28h103" id="L"/><g id="h"><use transform="matrix(0.05,0,0,0.05,0,0)" xlink:href="#J"/><use transform="matrix(0.05,0,0,0.05,10,0)" xlink:href="#t"/><use transform="matrix(0.05,0,0,0.05,20,0)" xlink:href="#u"/><use transform="matrix(0.05,0,0,0.05,30,0)" xlink:href="#K"/><use transform="matrix(0.05,0,0,0.05,39,0)" xlink:href="#L"/></g><path d="M206 0h-36l-40-164L89 0H53L-1-190h32L70-26l43-164h34l41 164 42-164h31" id="M"/><g id="i"><use transform="matrix(0.05,0,0,0.05,0,0)" xlink:href="#t"/><use transform="matrix(0.05,0,0,0.05,10,0)" xlink:href="#M"/><use transform="matrix(0.05,0,0,0.05,22.950000000000003,0)" xlink:href="#z"/><use transform="matrix(0.05,0,0,0.05,32.95,0)" xlink:href="#L"/><use transform="matrix(0.05,0,0,0.05,42.95,0)" xlink:href="#G"/></g><path d="M54-142c48-35 137-8 131 61C196 18 31 33 14-55l32-4c7 23 22 37 52 37 35-1 51-22 54-58 4-55-73-65-99-34H22l8-134h141v27H59" id="N"/><use transform="matrix(0.05,0,0,0.05,0,0)" xlink:href="#N" id="j"/><g id="k"><use transform="matrix(0.05,0,0,0.05,0,0)" xlink:href="#A"/><use transform="matrix(0.05,0,0,0.05,12,0)" xlink:href="#x"/><use transform="matrix(0.05,0,0,0.05,22,0)" xlink:href="#y"/><use transform="matrix(0.05,0,0,0.05,25.950000000000003,0)" xlink:href="#z"/><use transform="matrix(0.05,0,0,0.05,35.95,0)" xlink:href="#B"/><use transform="matrix(0.05,0,0,0.05,40.95,0)" xlink:href="#L"/><use transform="matrix(0.05,0,0,0.05,50.95,0)" xlink:href="#G"/></g><path d="M155-56V0h-30v-56H8v-25l114-167h33v167h35v25h-35zm-30-156c-27 46-58 90-88 131h88v-131" id="O"/><use transform="matrix(0.05,0,0,0.05,0,0)" xlink:href="#O" id="l"/><path d="M101-251c82-7 93 87 43 132L82-64C71-53 59-42 53-27h129V0H18c2-99 128-94 128-182 0-28-16-43-45-43s-46 15-49 41l-32-3c6-41 34-60 81-64" id="P"/><use transform="matrix(0.05,0,0,0.05,0,0)" xlink:href="#P" id="m"/><path d="M126-127c33 6 58 20 58 59 0 88-139 92-164 29-3-8-5-16-6-25l32-3c6 27 21 44 54 44 32 0 52-15 52-46 0-38-36-46-79-43v-28c39 1 72-4 72-42 0-27-17-43-46-43-28 0-47 15-49 41l-32-3c6-42 35-63 81-64 48-1 79 21 79 65 0 36-21 52-52 59" id="Q"/><use transform="matrix(0.05,0,0,0.05,0,0)" xlink:href="#Q" id="n"/><g id="o"><use transform="matrix(0.05,0,0,0.05,0,0)" xlink:href="#A"/><use transform="matrix(0.05,0,0,0.05,12,0)" xlink:href="#x"/><use transform="matrix(0.05,0,0,0.05,22,0)" xlink:href="#y"/><use transform="matrix(0.05,0,0,0.05,25.950000000000003,0)" xlink:href="#z"/><use transform="matrix(0.05,0,0,0.05,35.95,0)" xlink:href="#B"/><use transform="matrix(0.05,0,0,0.05,40.95,0)" xlink:href="#L"/><use transform="matrix(0.05,0,0,0.05,50.95,0)" xlink:href="#G"/></g><g id="p"><use transform="matrix(0.05,0,0,0.05,0,0)" xlink:href="#J"/><use transform="matrix(0.05,0,0,0.05,10,0)" xlink:href="#t"/><use transform="matrix(0.05,0,0,0.05,20,0)" xlink:href="#u"/><use transform="matrix(0.05,0,0,0.05,30,0)" xlink:href="#K"/><use transform="matrix(0.05,0,0,0.05,39,0)" xlink:href="#L"/></g><g id="q"><use transform="matrix(0.05,0,0,0.05,0,0)" xlink:href="#t"/><use transform="matrix(0.05,0,0,0.05,10,0)" xlink:href="#M"/><use transform="matrix(0.05,0,0,0.05,22.950000000000003,0)" xlink:href="#z"/><use transform="matrix(0.05,0,0,0.05,32.95,0)" xlink:href="#L"/><use transform="matrix(0.05,0,0,0.05,42.95,0)" xlink:href="#G"/></g><g id="r"><use transform="matrix(0.05,0,0,0.05,0,0)" xlink:href="#E"/><use transform="matrix(0.05,0,0,0.05,12,0)" xlink:href="#x"/><use transform="matrix(0.05,0,0,0.05,22,0)" xlink:href="#z"/><use transform="matrix(0.05,0,0,0.05,32,0)" xlink:href="#F"/></g></defs></g></svg>