<svg xmlns="http://www.w3.org/2000/svg" xmlns:xlink="http://www.w3.org/1999/xlink" xmlns:lucid="lucid" width="1287" height="668.03"><g transform="translate(-389 -451.9666666666667)" lucid:page-tab-id="0_0"><path d="M1120 471.97h300V884.1h-300z" fill="#fff" fill-opacity=".6"/><path d="M1160 471.97h40m20 0h40m20 0h40m20 0h40m20 0h20v19.62m0 19.62v39.25m0 19.62v39.24m0 19.63v39.25m0 19.63v39.25m0 19.62v39.25m0 19.63v39.25m0 19.62v19.63h-20m-20 0h-40m-20 0h-40m-20 0h-40m-20 0h-40m-20 0h-20v-19.63m0-19.62V805.6m0-19.63v-39.25m0-19.62v-39.25m0-19.63v-39.25m0-19.63V570.1m0-19.63v-39.25m0-19.63v-19.63h20" stroke="#83bbe5" stroke-width="4" fill="none"/><use xlink:href="#a" transform="matrix(1,0,0,1,1132.6,484.5666666666667) translate(0 14.4)"/><path d="M460 471.97h560V884.1H460z" fill="#fff" fill-opacity=".6"/><path d="M501.48 471.97h41.48m20.74 0h41.5m20.73 0h41.48m20.75 0h41.48m20.74 0h41.48m20.74 0h41.47m20.74 0h41.5m20.74 0h41.48m20.74 0H1020v19.62m0 19.62v39.25m0 19.62v39.24m0 19.63v39.25m0 19.63v39.25m0 19.62v39.25m0 19.63v39.25m0 19.62v19.63h-20.74m-20.74 0h-41.48m-20.74 0h-41.5m-20.73 0H812.6m-20.75 0h-41.48m-20.74 0h-41.48m-20.74 0h-41.47m-20.74 0h-41.5m-20.74 0h-41.48m-20.74 0H460v-19.63m0-19.62V805.6m0-19.63v-39.25m0-19.62v-39.25m0-19.63v-39.25m0-19.63V570.1m0-19.63v-39.25m0-19.63v-19.63h20.74" stroke="#83bbe5" stroke-width="4" fill="none"/><use xlink:href="#b" transform="matrix(1,0,0,1,472.6,484.5666666666667) translate(0 14.4)"/><use xlink:href="#c" transform="matrix(1,0,0,1,472.6,484.5666666666667) translate(97.80000000000001 14.4)"/><path d="M815.43 532.47h160V860h-160z" stroke="#0c7cba" stroke-width="4" fill="#fff" fill-opacity=".6"/><use xlink:href="#d" transform="matrix(1,0,0,1,828.0330708661417,545.0666666666667) translate(11.524999999999999 156.43125)"/><use xlink:href="#e" transform="matrix(1,0,0,1,828.0330708661417,545.0666666666667) translate(59.475 156.43125)"/><path d="M740 1086c0 7.73-26.86 14-60 14s-60-6.27-60-14V974c0-7.73 26.86-14 60-14s60 6.27 60 14z" stroke="#0c7cba" stroke-width="4" fill="#fff"/><path d="M740 974c0 7.73-26.86 14-60 14s-60-6.27-60-14" stroke="#0c7cba" stroke-width="4" fill="none"/><use xlink:href="#f" transform="matrix(1,0,0,1,625,993) translate(31.549999999999997 33.525)"/><use xlink:href="#g" transform="matrix(1,0,0,1,625,993) translate(28.049999999999997 55.125)"/><use xlink:href="#h" transform="matrix(1,0,0,1,625,993) translate(31.049999999999997 76.72500000000001)"/><path d="M483.33 532.47H780V860H483.33z" fill="#fff"/><path d="M522.9 532.47h39.54m19.78 0h39.56m19.78 0h39.55m19.8 0h39.54m19.78 0H780v21.83m0 21.84v43.67m0 21.84v43.68m0 21.83v43.67m0 21.84v43.67m0 21.83V860h-19.78m-19.78 0H700.9m-19.8 0h-39.54m-19.78 0h-39.56m-19.78 0H522.9m-19.8 0h-19.77v-21.84m0-21.83v-43.67m0-21.84v-43.67m0-21.83v-43.68m0-21.83v-43.66m0-21.84v-21.83h19.78" stroke="#83bbe5" stroke-width="4" fill="none"/><use xlink:href="#i" transform="matrix(1,0,0,1,495.9333333333333,545.0666666666667) translate(0 14.4)"/><use xlink:href="#j" transform="matrix(1,0,0,1,495.9333333333333,545.0666666666667) translate(64.85000000000001 14.4)"/><use xlink:href="#k" transform="matrix(1,0,0,1,495.9333333333333,545.0666666666667) translate(99.80000000000001 14.4)"/><path d="M511.33 592.47H580V700h-68.67z" stroke="#0c7cba" stroke-width="4" fill="#fff"/><use xlink:href="#l" transform="matrix(1,0,0,1,523.9333333333333,605.0666666666667) translate(-2.4250000000000043 34.3)"/><use xlink:href="#m" transform="matrix(1,0,0,1,523.9333333333333,605.0666666666667) translate(-6 55.9)"/><path d="M620 660h120v100H620z" stroke="#0c7cba" stroke-width="4" fill="#fff"/><use xlink:href="#n" transform="matrix(1,0,0,1,632.6,672.6) translate(29.2 30.80625)"/><use xlink:href="#o" transform="matrix(1,0,0,1,632.6,672.6) translate(15.549999999999997 52.40625)"/><path d="M680 763v176.5" stroke="#000" stroke-width="2" fill="none"/><path d="M681 763.03h-2V762h2z" stroke="#000" stroke-width=".05"/><path d="M680 954.76l-4.64-14.26h9.28z" stroke="#000" stroke-width="2"/><path d="M545.67 720.5V1030h53.83" stroke="#000" stroke-width="2" fill="none"/><path d="M545.67 705.24l4.63 14.26h-9.27zM614.76 1030l-14.26 4.64v-9.28z" stroke="#000" stroke-width="2"/><path d="M1160 660.53h220v60h-220z" stroke="#0c7cba" stroke-width="4" fill="#fff"/><use xlink:href="#p" transform="matrix(1,0,0,1,1172.6,673.1333333333333) translate(0 14.4)"/><path d="M955.43 1086c0 7.73-26.86 14-60 14-33.13 0-60-6.27-60-14V974c0-7.73 26.87-14 60-14 33.14 0 60 6.27 60 14z" stroke="#0c7cba" stroke-width="4" fill="#fff"/><path d="M955.43 974c0 7.73-26.86 14-60 14-33.13 0-60-6.27-60-14" stroke="#0c7cba" stroke-width="4" fill="none"/><use xlink:href="#q" transform="matrix(1,0,0,1,840.4330708661416,993) translate(33.525 33.525)"/><use xlink:href="#r" transform="matrix(1,0,0,1,840.4330708661416,993) translate(32.05 55.125)"/><use xlink:href="#h" transform="matrix(1,0,0,1,840.4330708661416,993) translate(31.049999999999997 76.72500000000001)"/><path d="M895.43 880.5v59" stroke="#000" stroke-width="2" fill="none"/><path d="M895.43 865.24l4.64 14.26h-9.27zM895.43 954.76l-4.63-14.26h9.27z" stroke="#000" stroke-width="2"/><path d="M1160 534.47h220v68.4h-220z" stroke="#0c7cba" stroke-width="4" fill="#fff"/><use xlink:href="#s" transform="matrix(1,0,0,1,1172.6,547.0666666666667) translate(0 14.4)"/><use xlink:href="#t" transform="matrix(1,0,0,1,1172.6,547.0666666666667) translate(70.85000000000001 14.4)"/><use xlink:href="#u" transform="matrix(1,0,0,1,1172.6,547.0666666666667) translate(0 36)"/><path d="M1160 780h220v60h-220z" stroke="#0c7cba" stroke-width="4" fill="#fff"/><use xlink:href="#v" transform="matrix(1,0,0,1,1172.6,792.6000000000155) translate(0 14.4)"/><path d="M1616 601.9c0 4-17.9 7.23-40 7.23s-40-3.24-40-7.24v-58c0-4 17.9-7.23 40-7.23s40 3.24 40 7.24z" stroke="#0c7cba" stroke-width="4" fill="#fff"/><path d="M1616 543.9c0 4.02-17.9 7.26-40 7.26s-40-3.24-40-7.25" stroke="#0c7cba" stroke-width="4" fill="none"/><use xlink:href="#n" transform="matrix(1,0,0,1,1541,556.1600000000001) translate(16.7 14.4)"/><use xlink:href="#w" transform="matrix(1,0,0,1,1541,556.1600000000001) translate(12.05 36)"/><path d="M1616 725.22c0 4-17.9 7.25-40 7.25s-40-3.25-40-7.25v-57.97c0-4 17.9-7.25 40-7.25s40 3.24 40 7.25z" stroke="#0c7cba" stroke-width="4" fill="#fff"/><path d="M1616 667.25c0 4-17.9 7.24-40 7.24s-40-3.25-40-7.25" stroke="#0c7cba" stroke-width="4" fill="none"/><use xlink:href="#n" transform="matrix(1,0,0,1,1541,679.4933333333333) translate(16.7 14.4)"/><use xlink:href="#w" transform="matrix(1,0,0,1,1541,679.4933333333333) translate(12.05 36)"/><path d="M1496 860h160v64.93h-160z" fill="#fff"/><path d="M1531.56 860h35.55m17.8 0h35.54m17.78 0H1656v21.64m0 21.65v21.63h-17.78m-17.78 0h-35.55m-17.8 0h-35.54m-17.78 0H1496V903.3m0-21.66V860h17.78" stroke="#83bbe5" stroke-width="4" fill="none"/><use xlink:href="#x" transform="matrix(1,0,0,1,1501,865) translate(45.592592592592595 21.09722222222222)"/><use xlink:href="#y" transform="matrix(1,0,0,1,1501,865) translate(86.67901234567901 21.09722222222222)"/><use xlink:href="#z" transform="matrix(1,0,0,1,1501,865) translate(27.691358024691368 42.43055555555556)"/><path d="M1400.5 568.67h115" stroke="#5e5e5e" stroke-width="2" fill="none"/><path d="M1385.24 568.67l14.26-4.64v9.27zM1530.77 568.67l-14.27 4.63v-9.27z" stroke="#5e5e5e" stroke-width="2" fill="#5e5e5e"/><path d="M1400.5 690.53h115" stroke="#5e5e5e" stroke-width="2" fill="none"/><path d="M1385.24 690.53l14.26-4.63v9.27zM1530.77 690.53l-14.27 4.64v-9.27z" stroke="#5e5e5e" stroke-width="2" fill="#5e5e5e"/><path d="M1400.5 810h31.5a6 6 0 0 1 6 6v68a6 6 0 0 0 6 6h31.5" stroke="#5e5e5e" stroke-width="2" fill="none"/><path d="M1385.24 810l14.26-4.64v9.28zM1490.76 890l-14.26 4.64v-9.28z" stroke="#5e5e5e" stroke-width="2" fill="#5e5e5e"/><path d="M583 617.33h211.93" stroke="#5e5e5e" stroke-width="2" fill="none"/><path d="M583.03 618.33H582v-2h1.03z" stroke="#5e5e5e" stroke-width=".05" fill="#5e5e5e"/><path d="M810.2 617.33l-14.27 4.64v-9.27z" stroke="#5e5e5e" stroke-width="2" fill="#5e5e5e"/><path d="M995.93 696.23H1099.5" stroke="#5e5e5e" stroke-width="2" fill="none"/><path d="M980.67 696.23l14.26-4.63v9.27zM1114.76 696.22l-14.26 4.63v-9.27z" stroke="#5e5e5e" stroke-width="2" fill="#5e5e5e"/><path d="M812.43 696.23H760.5" stroke="#5e5e5e" stroke-width="2" fill="none"/><path d="M813.43 697.23h-1.02v-2h1.03z" stroke="#5e5e5e" stroke-width=".05" fill="#5e5e5e"/><path d="M745.24 696.23l14.26-4.63v9.27z" stroke="#5e5e5e" stroke-width="2" fill="#5e5e5e"/><path d="M421 618h69.83M421.03 618H420" stroke="#5e5e5e" stroke-width="2" fill="none"/><path d="M506.1 618l-14.27 4.64v-9.28z" stroke="#5e5e5e" stroke-width="2" fill="#5e5e5e"/><path d="M508.33 674.67H438.5" stroke="#5e5e5e" stroke-width="2" fill="none"/><path d="M509.33 675.67h-1.02v-2h1.03z" stroke="#5e5e5e" stroke-width=".05" fill="#5e5e5e"/><path d="M423.24 674.67l14.26-4.64v9.27z" stroke="#5e5e5e" stroke-width="2" fill="#5e5e5e"/><path d="M1614 825.22c0 4-17.9 7.25-40 7.25s-40-3.25-40-7.25v-57.97c0-4 17.9-7.25 40-7.25s40 3.24 40 7.25z" stroke="#0c7cba" stroke-width="4" fill="#fff"/><path d="M1614 767.25c0 4-17.9 7.24-40 7.24s-40-3.25-40-7.25" stroke="#0c7cba" stroke-width="4" fill="none"/><g><use xlink:href="#A" transform="matrix(1,0,0,1,1539,779.4933333333333) translate(8.049999999999997 14.4)"/><use xlink:href="#B" transform="matrix(1,0,0,1,1539,779.4933333333333) translate(10.575 36)"/></g><path d="M1398.5 790.53h115" stroke="#5e5e5e" stroke-width="2" fill="none"/><path d="M1383.24 790.53l14.26-4.63v9.27zM1528.77 790.53l-14.27 4.64v-9.27z" stroke="#5e5e5e" stroke-width="2" fill="#5e5e5e"/><defs><path d="M24-248c120-7 223 5 221 122C244-46 201 0 124 0H24v-248zM76-40c74 7 117-18 117-86 0-67-45-88-117-82v168" id="C"/><path d="M110-194c64 0 96 36 96 99 0 64-35 99-97 99-61 0-95-36-95-99 0-62 34-99 96-99zm-1 164c35 0 45-28 45-65 0-40-10-65-43-65-34 0-45 26-45 65 0 36 10 65 43 65" id="D"/><path d="M220-157c-53 9-28 100-34 157h-49v-107c1-27-5-49-29-50C55-147 81-57 75 0H25l-1-190h47c2 12-1 28 3 38 10-53 101-56 108 0 13-22 24-43 59-42 82 1 51 116 57 194h-49v-107c-1-25-5-48-29-50" id="E"/><path d="M133-34C117-15 103 5 69 4 32 3 11-16 11-54c-1-60 55-63 116-61 1-26-3-47-28-47-18 1-26 9-28 27l-52-2c7-38 36-58 82-57s74 22 75 68l1 82c-1 14 12 18 25 15v27c-30 8-71 5-69-32zm-48 3c29 0 43-24 42-57-32 0-66-3-65 30 0 17 8 27 23 27" id="F"/><path d="M25-224v-37h50v37H25zM25 0v-190h50V0H25" id="G"/><path d="M135-194c87-1 58 113 63 194h-50c-7-57 23-157-34-157-59 0-34 97-39 157H25l-1-190h47c2 12-1 28 3 38 12-26 28-41 61-42" id="H"/><g id="a"><use transform="matrix(0.05,0,0,0.05,0,0)" xlink:href="#C"/><use transform="matrix(0.05,0,0,0.05,12.950000000000001,0)" xlink:href="#D"/><use transform="matrix(0.05,0,0,0.05,23.900000000000002,0)" xlink:href="#E"/><use transform="matrix(0.05,0,0,0.05,39.900000000000006,0)" xlink:href="#F"/><use transform="matrix(0.05,0,0,0.05,49.900000000000006,0)" xlink:href="#G"/><use transform="matrix(0.05,0,0,0.05,54.900000000000006,0)" xlink:href="#H"/></g><path d="M24-248c93 1 206-16 204 79-1 75-69 88-152 82V0H24v-248zm52 121c47 0 100 7 100-41 0-47-54-39-100-39v80" id="I"/><path d="M135-150c-39-12-60 13-60 57V0H25l-1-190h47c2 13-1 29 3 40 6-28 27-53 61-41v41" id="J"/><path d="M115-3C79 11 28 4 28-45v-112H4v-33h27l15-45h31v45h36v33H77v99c-1 23 16 31 38 25v30" id="K"/><path d="M190-63c-7 42-38 67-86 67-59 0-84-38-90-98-12-110 154-137 174-36l-49 2c-2-19-15-32-35-32-30 0-35 28-38 64-6 74 65 87 74 30" id="L"/><path d="M135-194c53 0 70 44 70 98 0 56-19 98-73 100-31 1-45-17-59-34 3 33 2 69 2 105H25l-1-265h48c2 10 0 23 3 31 11-24 29-35 60-35zM114-30c33 0 39-31 40-66 0-38-9-64-40-64-56 0-55 130 0 130" id="M"/><g id="b"><use transform="matrix(0.05,0,0,0.05,0,0)" xlink:href="#I"/><use transform="matrix(0.05,0,0,0.05,12,0)" xlink:href="#F"/><use transform="matrix(0.05,0,0,0.05,22,0)" xlink:href="#J"/><use transform="matrix(0.05,0,0,0.05,29,0)" xlink:href="#K"/><use transform="matrix(0.05,0,0,0.05,34.95,0)" xlink:href="#G"/><use transform="matrix(0.05,0,0,0.05,39.95,0)" xlink:href="#L"/><use transform="matrix(0.05,0,0,0.05,49.95,0)" xlink:href="#G"/><use transform="matrix(0.05,0,0,0.05,54.95,0)" xlink:href="#M"/><use transform="matrix(0.05,0,0,0.05,65.9,0)" xlink:href="#F"/><use transform="matrix(0.05,0,0,0.05,75.9,0)" xlink:href="#H"/><use transform="matrix(0.05,0,0,0.05,86.85000000000001,0)" xlink:href="#K"/></g><path d="M175 0L67-191c6 58 2 128 3 191H24v-248h59L193-55c-6-58-2-129-3-193h46V0h-61" id="N"/><path d="M88-194c31-1 46 15 58 34l-1-101h50l1 261h-48c-2-10 0-23-3-31C134-8 116 4 84 4 32 4 16-41 15-95c0-56 19-97 73-99zm17 164c33 0 40-30 41-66 1-37-9-64-41-64s-38 30-39 65c0 43 13 65 39 65" id="O"/><path d="M185-48c-13 30-37 53-82 52C43 2 14-33 14-96s30-98 90-98c62 0 83 45 84 108H66c0 31 8 55 39 56 18 0 30-7 34-22zm-45-69c5-46-57-63-70-21-2 6-4 13-4 21h74" id="P"/><g id="c"><use transform="matrix(0.05,0,0,0.05,0,0)" xlink:href="#N"/><use transform="matrix(0.05,0,0,0.05,12.950000000000001,0)" xlink:href="#D"/><use transform="matrix(0.05,0,0,0.05,23.900000000000002,0)" xlink:href="#O"/><use transform="matrix(0.05,0,0,0.05,34.85,0)" xlink:href="#P"/></g><path d="M169-182c-1-43-94-46-97-3 18 66 151 10 154 114 3 95-165 93-204 36-6-8-10-19-12-30l50-8c3 46 112 56 116 5-17-69-150-10-154-114-4-87 153-88 188-35 5 8 8 18 10 28" id="Q"/><path d="M123 10C108 53 80 86 19 72V37c35 8 53-11 59-39L3-190h52l48 148c12-52 28-100 44-148h51" id="R"/><g id="d"><use transform="matrix(0.05,0,0,0.05,0,0)" xlink:href="#Q"/><use transform="matrix(0.05,0,0,0.05,12,0)" xlink:href="#R"/><use transform="matrix(0.05,0,0,0.05,22,0)" xlink:href="#H"/><use transform="matrix(0.05,0,0,0.05,32.95,0)" xlink:href="#L"/></g><path d="M128 0H69L1-190h53L99-40l48-150h52" id="S"/><g id="e"><use transform="matrix(0.05,0,0,0.05,0,0)" xlink:href="#Q"/><use transform="matrix(0.05,0,0,0.05,12,0)" xlink:href="#P"/><use transform="matrix(0.05,0,0,0.05,22,0)" xlink:href="#J"/><use transform="matrix(0.05,0,0,0.05,29,0)" xlink:href="#S"/><use transform="matrix(0.05,0,0,0.05,39,0)" xlink:href="#G"/><use transform="matrix(0.05,0,0,0.05,44,0)" xlink:href="#L"/><use transform="matrix(0.05,0,0,0.05,54,0)" xlink:href="#P"/></g><path d="M24 0v-248h52V0H24" id="T"/><path d="M144 0l-44-69L55 0H2l70-98-66-92h53l41 62 40-62h54l-67 91 71 99h-54" id="U"/><g id="f"><use transform="matrix(0.05,0,0,0.05,0,0)" xlink:href="#T"/><use transform="matrix(0.05,0,0,0.05,5,0)" xlink:href="#H"/><use transform="matrix(0.05,0,0,0.05,15.950000000000001,0)" xlink:href="#O"/><use transform="matrix(0.05,0,0,0.05,26.900000000000002,0)" xlink:href="#P"/><use transform="matrix(0.05,0,0,0.05,36.900000000000006,0)" xlink:href="#U"/></g><path d="M67-125c0 53 21 87 73 88 37 1 54-22 65-47l45 17C233-25 199 4 140 4 58 4 20-42 15-125 8-235 124-281 211-232c18 10 29 29 36 50l-46 12c-8-25-30-41-62-41-52 0-71 34-72 86" id="V"/><path d="M114-157C55-157 80-60 75 0H25v-261h50l-1 109c12-26 28-41 61-42 86-1 58 113 63 194h-50c-7-57 23-157-34-157" id="W"/><g id="g"><use transform="matrix(0.05,0,0,0.05,0,0)" xlink:href="#V"/><use transform="matrix(0.05,0,0,0.05,12.950000000000001,0)" xlink:href="#F"/><use transform="matrix(0.05,0,0,0.05,22.950000000000003,0)" xlink:href="#L"/><use transform="matrix(0.05,0,0,0.05,32.95,0)" xlink:href="#W"/><use transform="matrix(0.05,0,0,0.05,43.900000000000006,0)" xlink:href="#P"/></g><path d="M87 75C49 33 22-17 22-94c0-76 28-126 65-167h31c-38 41-64 92-64 168S80 34 118 75H87" id="X"/><path d="M185-189c-5-48-123-54-124 2 14 75 158 14 163 119 3 78-121 87-175 55-17-10-28-26-33-46l33-7c5 56 141 63 141-1 0-78-155-14-162-118-5-82 145-84 179-34 5 7 8 16 11 25" id="Y"/><path d="M140-251c81 0 123 46 123 126C263-53 228-8 163 1c7 30 30 48 69 40v23c-55 16-95-15-103-61C56-3 17-48 17-125c0-80 42-126 123-126zm0 227c63 0 89-41 89-101s-29-99-89-99c-61 0-89 39-89 99S79-25 140-24" id="Z"/><path d="M30 0v-248h33v221h125V0H30" id="aa"/><path d="M33-261c38 41 65 92 65 168S71 34 33 75H2C39 34 66-17 66-93S39-220 2-261h31" id="ab"/><g id="h"><use transform="matrix(0.05,0,0,0.05,0,0)" xlink:href="#X"/><use transform="matrix(0.05,0,0,0.05,5.95,0)" xlink:href="#Y"/><use transform="matrix(0.05,0,0,0.05,17.95,0)" xlink:href="#Z"/><use transform="matrix(0.05,0,0,0.05,31.950000000000003,0)" xlink:href="#aa"/><use transform="matrix(0.05,0,0,0.05,41.95,0)" xlink:href="#ab"/></g><path d="M24 0v-248h52v208h133V0H24" id="ac"/><path d="M195-6C206 82 75 100 31 46c-4-6-6-13-8-21l49-6c3 16 16 24 34 25 40 0 42-37 40-79-11 22-30 35-61 35-53 0-70-43-70-97 0-56 18-96 73-97 30 0 46 14 59 34l2-30h47zm-90-29c32 0 41-27 41-63 0-35-9-62-40-62-32 0-39 29-40 63 0 36 9 62 39 62" id="ad"/><g id="i"><use transform="matrix(0.05,0,0,0.05,0,0)" xlink:href="#ac"/><use transform="matrix(0.05,0,0,0.05,10.950000000000001,0)" xlink:href="#P"/><use transform="matrix(0.05,0,0,0.05,20.950000000000003,0)" xlink:href="#O"/><use transform="matrix(0.05,0,0,0.05,31.900000000000006,0)" xlink:href="#ad"/><use transform="matrix(0.05,0,0,0.05,42.85000000000001,0)" xlink:href="#P"/><use transform="matrix(0.05,0,0,0.05,52.85,0)" xlink:href="#J"/></g><path d="M199 0l-22-63H83L61 0H9l90-248h61L250 0h-51zm-33-102l-36-108c-10 38-24 72-36 108h72" id="ae"/><g id="j"><use transform="matrix(0.05,0,0,0.05,0,0)" xlink:href="#ae"/><use transform="matrix(0.05,0,0,0.05,12.950000000000001,0)" xlink:href="#I"/><use transform="matrix(0.05,0,0,0.05,24.950000000000003,0)" xlink:href="#T"/></g><g id="k"><use transform="matrix(0.05,0,0,0.05,0,0)" xlink:href="#Q"/><use transform="matrix(0.05,0,0,0.05,12,0)" xlink:href="#P"/><use transform="matrix(0.05,0,0,0.05,22,0)" xlink:href="#J"/><use transform="matrix(0.05,0,0,0.05,29,0)" xlink:href="#S"/><use transform="matrix(0.05,0,0,0.05,39,0)" xlink:href="#P"/><use transform="matrix(0.05,0,0,0.05,49,0)" xlink:href="#J"/></g><path d="M240-174c0 40-23 61-54 70L253 0h-59l-57-94H76V0H24v-248c93 4 217-23 216 74zM76-134c48-2 112 12 112-38 0-48-66-32-112-35v73" id="af"/><g id="l"><use transform="matrix(0.05,0,0,0.05,0,0)" xlink:href="#ad"/><use transform="matrix(0.05,0,0,0.05,10.950000000000001,0)" xlink:href="#af"/><use transform="matrix(0.05,0,0,0.05,23.900000000000002,0)" xlink:href="#I"/><use transform="matrix(0.05,0,0,0.05,35.900000000000006,0)" xlink:href="#V"/></g><g id="m"><use transform="matrix(0.05,0,0,0.05,0,0)" xlink:href="#Q"/><use transform="matrix(0.05,0,0,0.05,12,0)" xlink:href="#P"/><use transform="matrix(0.05,0,0,0.05,22,0)" xlink:href="#J"/><use transform="matrix(0.05,0,0,0.05,29,0)" xlink:href="#S"/><use transform="matrix(0.05,0,0,0.05,39,0)" xlink:href="#P"/><use transform="matrix(0.05,0,0,0.05,49,0)" xlink:href="#J"/></g><path d="M140-251c80 0 125 45 125 126 0 70-33 111-92 124 6 28 34 38 68 31l-1 36C177 83 129 55 120 2 51-6 15-50 15-125c0-81 44-126 125-126zm-1 214c52 0 73-35 73-88 0-50-21-86-72-86-52 0-73 35-73 86s22 88 72 88" id="ag"/><g id="n"><use transform="matrix(0.05,0,0,0.05,0,0)" xlink:href="#Q"/><use transform="matrix(0.05,0,0,0.05,12,0)" xlink:href="#ag"/><use transform="matrix(0.05,0,0,0.05,26,0)" xlink:href="#ac"/></g><g id="o"><use transform="matrix(0.05,0,0,0.05,0,0)" xlink:href="#T"/><use transform="matrix(0.05,0,0,0.05,5,0)" xlink:href="#H"/><use transform="matrix(0.05,0,0,0.05,15.950000000000001,0)" xlink:href="#O"/><use transform="matrix(0.05,0,0,0.05,26.900000000000002,0)" xlink:href="#P"/><use transform="matrix(0.05,0,0,0.05,36.900000000000006,0)" xlink:href="#U"/><use transform="matrix(0.05,0,0,0.05,46.900000000000006,0)" xlink:href="#P"/><use transform="matrix(0.05,0,0,0.05,56.900000000000006,0)" xlink:href="#J"/></g><path d="M230 0l2-204L168 0h-37L68-204 70 0H24v-248h70l56 185 57-185h69V0h-46" id="ah"/><g id="p"><use transform="matrix(0.05,0,0,0.05,0,0)" xlink:href="#ah"/><use transform="matrix(0.05,0,0,0.05,14.950000000000001,0)" xlink:href="#P"/><use transform="matrix(0.05,0,0,0.05,24.950000000000003,0)" xlink:href="#O"/><use transform="matrix(0.05,0,0,0.05,35.900000000000006,0)" xlink:href="#G"/><use transform="matrix(0.05,0,0,0.05,40.900000000000006,0)" xlink:href="#F"/><use transform="matrix(0.05,0,0,0.05,50.900000000000006,0)" xlink:href="#K"/><use transform="matrix(0.05,0,0,0.05,56.85,0)" xlink:href="#D"/><use transform="matrix(0.05,0,0,0.05,67.80000000000001,0)" xlink:href="#J"/></g><g id="q"><use transform="matrix(0.05,0,0,0.05,0,0)" xlink:href="#Q"/><use transform="matrix(0.05,0,0,0.05,12,0)" xlink:href="#R"/><use transform="matrix(0.05,0,0,0.05,22,0)" xlink:href="#H"/><use transform="matrix(0.05,0,0,0.05,32.95,0)" xlink:href="#L"/></g><g id="r"><use transform="matrix(0.05,0,0,0.05,0,0)" xlink:href="#Q"/><use transform="matrix(0.05,0,0,0.05,12,0)" xlink:href="#K"/><use transform="matrix(0.05,0,0,0.05,17.95,0)" xlink:href="#D"/><use transform="matrix(0.05,0,0,0.05,28.899999999999995,0)" xlink:href="#J"/><use transform="matrix(0.05,0,0,0.05,35.9,0)" xlink:href="#P"/></g><g id="s"><use transform="matrix(0.05,0,0,0.05,0,0)" xlink:href="#C"/><use transform="matrix(0.05,0,0,0.05,12.950000000000001,0)" xlink:href="#D"/><use transform="matrix(0.05,0,0,0.05,23.900000000000002,0)" xlink:href="#E"/><use transform="matrix(0.05,0,0,0.05,39.900000000000006,0)" xlink:href="#F"/><use transform="matrix(0.05,0,0,0.05,49.900000000000006,0)" xlink:href="#G"/><use transform="matrix(0.05,0,0,0.05,54.900000000000006,0)" xlink:href="#H"/></g><path d="M136-208V0H84v-208H4v-40h212v40h-80" id="ai"/><path d="M25 0v-261h50V0H25" id="aj"/><g id="t"><use transform="matrix(0.05,0,0,0.05,0,0)" xlink:href="#ai"/><use transform="matrix(0.05,0,0,0.05,9.600000000000001,0)" xlink:href="#D"/><use transform="matrix(0.05,0,0,0.05,20.550000000000004,0)" xlink:href="#M"/><use transform="matrix(0.05,0,0,0.05,31.500000000000007,0)" xlink:href="#D"/><use transform="matrix(0.05,0,0,0.05,42.45000000000001,0)" xlink:href="#aj"/><use transform="matrix(0.05,0,0,0.05,47.45000000000001,0)" xlink:href="#D"/><use transform="matrix(0.05,0,0,0.05,58.40000000000001,0)" xlink:href="#ad"/><use transform="matrix(0.05,0,0,0.05,69.35000000000001,0)" xlink:href="#R"/></g><g id="u"><use transform="matrix(0.05,0,0,0.05,0,0)" xlink:href="#ah"/><use transform="matrix(0.05,0,0,0.05,14.950000000000001,0)" xlink:href="#F"/><use transform="matrix(0.05,0,0,0.05,24.950000000000003,0)" xlink:href="#H"/><use transform="matrix(0.05,0,0,0.05,35.900000000000006,0)" xlink:href="#F"/><use transform="matrix(0.05,0,0,0.05,45.900000000000006,0)" xlink:href="#ad"/><use transform="matrix(0.05,0,0,0.05,56.85,0)" xlink:href="#P"/><use transform="matrix(0.05,0,0,0.05,66.85000000000001,0)" xlink:href="#J"/></g><path d="M84 4C32 4 15-41 15-95c0-55 18-99 73-99 29 0 47 12 58 34l2-30h48l-1 265h-49V-32C136-9 114 4 84 4zm21-34c32 0 41-29 41-66 0-36-9-64-40-64-33 0-39 30-40 65 0 43 13 65 39 65" id="ak"/><path d="M85 4C-2 5 27-109 22-190h50c7 57-23 150 33 157 60-5 35-97 40-157h50l1 190h-47c-2-12 1-28-3-38-12 25-28 42-61 42" id="al"/><g id="v"><use transform="matrix(0.05,0,0,0.05,0,0)" xlink:href="#Q"/><use transform="matrix(0.05,0,0,0.05,12,0)" xlink:href="#P"/><use transform="matrix(0.05,0,0,0.05,22,0)" xlink:href="#ak"/><use transform="matrix(0.05,0,0,0.05,32.95,0)" xlink:href="#al"/><use transform="matrix(0.05,0,0,0.05,43.900000000000006,0)" xlink:href="#P"/><use transform="matrix(0.05,0,0,0.05,53.900000000000006,0)" xlink:href="#H"/><use transform="matrix(0.05,0,0,0.05,64.85000000000001,0)" xlink:href="#L"/><use transform="matrix(0.05,0,0,0.05,74.85000000000001,0)" xlink:href="#P"/><use transform="matrix(0.05,0,0,0.05,84.85000000000001,0)" xlink:href="#J"/></g><g id="w"><use transform="matrix(0.05,0,0,0.05,0,0)" xlink:href="#Q"/><use transform="matrix(0.05,0,0,0.05,12,0)" xlink:href="#K"/><use transform="matrix(0.05,0,0,0.05,17.95,0)" xlink:href="#D"/><use transform="matrix(0.05,0,0,0.05,28.899999999999995,0)" xlink:href="#J"/><use transform="matrix(0.05,0,0,0.05,35.9,0)" xlink:href="#P"/></g><g id="x"><use transform="matrix(0.049382716049382706,0,0,0.049382716049382706,0,0)" xlink:href="#Q"/><use transform="matrix(0.049382716049382706,0,0,0.049382716049382706,11.85185185185185,0)" xlink:href="#ag"/><use transform="matrix(0.049382716049382706,0,0,0.049382716049382706,25.679012345679006,0)" xlink:href="#ac"/></g><g id="y"><use transform="matrix(0.049382716049382706,0,0,0.049382716049382706,0,0)" xlink:href="#D"/><use transform="matrix(0.049382716049382706,0,0,0.049382716049382706,10.814814814814813,0)" xlink:href="#J"/></g><path d="M182-130c37 4 62 22 62 59C244 23 116-4 24 0v-248c84 5 203-23 205 63 0 31-19 50-47 55zM76-148c40-3 101 13 101-30 0-44-60-28-101-31v61zm0 110c48-3 116 14 116-37 0-48-69-32-116-35v72" id="am"/><path d="M147 0L96-86 75-71V0H25v-261h50v150l67-79h53l-66 74L201 0h-54" id="an"/><g id="z"><use transform="matrix(0.049382716049382706,0,0,0.049382716049382706,0,0)" xlink:href="#am"/><use transform="matrix(0.049382716049382706,0,0,0.049382716049382706,12.790123456790122,0)" xlink:href="#aj"/><use transform="matrix(0.049382716049382706,0,0,0.049382716049382706,17.728395061728392,0)" xlink:href="#D"/><use transform="matrix(0.049382716049382706,0,0,0.049382716049382706,28.543209876543205,0)" xlink:href="#L"/><use transform="matrix(0.049382716049382706,0,0,0.049382716049382706,38.419753086419746,0)" xlink:href="#an"/><use transform="matrix(0.049382716049382706,0,0,0.049382716049382706,48.29629629629629,0)" xlink:href="#L"/><use transform="matrix(0.049382716049382706,0,0,0.049382716049382706,58.17283950617284,0)" xlink:href="#W"/><use transform="matrix(0.049382716049382706,0,0,0.049382716049382706,68.98765432098764,0)" xlink:href="#F"/><use transform="matrix(0.049382716049382706,0,0,0.049382716049382706,78.86419753086419,0)" xlink:href="#G"/><use transform="matrix(0.049382716049382706,0,0,0.049382716049382706,83.80246913580245,0)" xlink:href="#H"/></g><g id="A"><use transform="matrix(0.05,0,0,0.05,0,0)" xlink:href="#V"/><use transform="matrix(0.05,0,0,0.05,12.950000000000001,0)" xlink:href="#F"/><use transform="matrix(0.05,0,0,0.05,22.950000000000003,0)" xlink:href="#L"/><use transform="matrix(0.05,0,0,0.05,32.95,0)" xlink:href="#W"/><use transform="matrix(0.05,0,0,0.05,43.900000000000006,0)" xlink:href="#P"/></g><path d="M67-93c0 74 22 123 53 168H70C40 30 18-18 18-93s22-123 52-168h50c-32 44-53 94-53 168" id="ao"/><path d="M102-93c0 74-22 123-52 168H0C30 29 54-18 53-93c0-74-22-123-53-168h50c30 45 52 94 52 168" id="ap"/><g id="B"><use transform="matrix(0.05,0,0,0.05,0,0)" xlink:href="#ao"/><use transform="matrix(0.05,0,0,0.05,5.95,0)" xlink:href="#Q"/><use transform="matrix(0.05,0,0,0.05,17.95,0)" xlink:href="#ag"/><use transform="matrix(0.05,0,0,0.05,31.950000000000003,0)" xlink:href="#ac"/><use transform="matrix(0.05,0,0,0.05,42.9,0)" xlink:href="#ap"/></g></defs></g></svg>