<svg xmlns="http://www.w3.org/2000/svg" xmlns:xlink="http://www.w3.org/1999/xlink" xmlns:lucid="lucid" width="1302.15" height="831"><g transform="translate(-80 -229)" lucid:page-tab-id="0_0"><path d="M460 740h360v100H460z" stroke="#000" stroke-width="2" fill="#fff"/><use xlink:href="#a" transform="matrix(1,0,0,1,465,745) translate(121.32716049382715 36.111111111111114)"/><use xlink:href="#b" transform="matrix(1,0,0,1,465,745) translate(146.69753086419752 62.77777777777778)"/><path d="M460 420h360v80H460z" stroke="#000" stroke-width="2" fill="#fff"/><use xlink:href="#c" transform="matrix(1,0,0,1,465,425) translate(111.91358024691357 39.44444444444444)"/><path d="M501.48 502v218.5" stroke="#000" stroke-width="2" fill="none"/><path d="M502.48 502.03h-2V501h2z"/><path d="M501.48 735.76l-4.63-14.26h9.27z" stroke="#000" stroke-width="2"/><use xlink:href="#d" transform="matrix(1,0,0,1,391.7325615294078,621.0666666666666) translate(0.010000000000005116 14.4)"/><use xlink:href="#e" transform="matrix(1,0,0,1,391.7325615294078,621.0666666666666) translate(25.810000000000016 36)"/><path d="M700.04 738V620h.3V519.5" stroke="#000" stroke-width="2" fill="none"/><path d="M701.04 739h-2v-1.03h2z"/><path d="M700.33 504.24l4.64 14.26h-9.27z" stroke="#000" stroke-width="2"/><use xlink:href="#d" transform="matrix(1,0,0,1,590.2888627331865,619.4666666666666) translate(0.010000000000005116 14.4)"/><use xlink:href="#f" transform="matrix(1,0,0,1,590.2888627331865,619.4666666666666) translate(20.810000000000016 36)"/><use xlink:href="#g" transform="matrix(1,0,0,1,590.2888627331865,619.4666666666666) translate(6.8100000000000165 57.6)"/><use xlink:href="#h" transform="matrix(1,0,0,1,590.2888627331865,619.4666666666666) translate(11.810000000000016 57.6)"/><use xlink:href="#i" transform="matrix(1,0,0,1,590.2888627331865,619.4666666666666) translate(6.860000000000014 79.20000000000002)"/><use xlink:href="#j" transform="matrix(1,0,0,1,590.2888627331865,619.4666666666666) translate(41.860000000000014 79.20000000000002)"/><path d="M1060 700h80v80h-80z" stroke="#000" stroke-width="2" fill="#fff"/><use xlink:href="#k" transform="matrix(1,0,0,1,1065,705) translate(-0.2716049382716079 26.111111111111114)"/><use xlink:href="#b" transform="matrix(1,0,0,1,1065,705) translate(7.197530864197532 52.77777777777778)"/><path d="M981 461H821v-2h158v-95.8h2z"/><path d="M821.03 461H820v-2h1.03zM984.4 276.8h-8.8l4.4-13.56z"/><path d="M985.46 276.8h-10.92L980 260zm-8.72-.3h6.52L980 266.47z"/><use xlink:href="#l" transform="matrix(1,0,0,1,923.6,276.8) translate(21.930000000000007 14.4)"/><use xlink:href="#m" transform="matrix(1,0,0,1,923.6,276.8) translate(11.305000000000007 36)"/><use xlink:href="#n" transform="matrix(1,0,0,1,923.6,276.8) translate(89.50500000000001 36)"/><use xlink:href="#o" transform="matrix(1,0,0,1,923.6,276.8) translate(0.005000000000002558 57.6)"/><use xlink:href="#p" transform="matrix(1,0,0,1,923.6,276.8) translate(22.53000000000001 79.20000000000002)"/><path d="M719.1 502v118h-.4v100.5" stroke="#000" stroke-width="2" fill="none"/><path d="M720.1 502.03h-2V501h2z"/><path d="M718.7 735.76l-4.64-14.26h9.28z" stroke="#000" stroke-width="2"/><use xlink:href="#d" transform="matrix(1,0,0,1,726.7001692373012,619.7333333333333) translate(0 14.4)"/><use xlink:href="#q" transform="matrix(1,0,0,1,726.7001692373012,619.7333333333333) translate(0 36)"/><path d="M821 740h219.5M821.03 740H820" stroke="#000" stroke-width="2" fill="none"/><path d="M1055.76 740l-14.26 4.64v-9.28z" stroke="#000" stroke-width="2"/><use xlink:href="#r" transform="matrix(1,0,0,1,875.125,671.2) translate(47.379999999999995 14.4)"/><use xlink:href="#s" transform="matrix(1,0,0,1,875.125,671.2) translate(0.0049999999999954525 36)"/><use xlink:href="#t" transform="matrix(1,0,0,1,875.125,671.2) translate(25.429999999999993 57.6)"/><path d="M1101 680.5h-2v-59.04h2zM1035.62 569v2h-237.9v-69h2v67z"/><path d="M799.73 502.03h-2V501h2zM1100 695.76l-4.64-14.26h9.28z"/><path d="M1100 699l-6-18.5h12zm-3.26-16.5l3.26 10.03 3.26-10.03z"/><use xlink:href="#u" transform="matrix(1,0,0,1,1035.625,556.658250914426) translate(11.454999999999991 14.4)"/><use xlink:href="#v" transform="matrix(1,0,0,1,1035.625,556.658250914426) translate(83.305 14.4)"/><use xlink:href="#s" transform="matrix(1,0,0,1,1035.625,556.658250914426) translate(0.0049999999999954525 36)"/><use xlink:href="#t" transform="matrix(1,0,0,1,1035.625,556.658250914426) translate(25.429999999999993 57.6)"/><path d="M531 400.5h-2v-71.57h2zm0-114.77h-2V261h2z"/><path d="M531 261.03h-2V260h2zM530 415.76l-4.64-14.26h9.28z"/><path d="M530 419l-6-18.5h12zm-3.26-16.5l3.26 10.03 3.26-10.03z"/><use xlink:href="#w" transform="matrix(1,0,0,1,482.55,285.7333333333333) translate(0 14.4)"/><use xlink:href="#x" transform="matrix(1,0,0,1,482.55,285.7333333333333) translate(39 14.4)"/><use xlink:href="#y" transform="matrix(1,0,0,1,482.55,285.7333333333333) translate(0 36)"/><path d="M751 418h-2v-64.93h2zm0-129.73h-2v-9.77h2zM754.64 277.5h-9.28l4.64-14.26z"/><path d="M756 278.5h-12l6-18.5zm-9.26-2h6.52L750 266.47zM751 419h-2v-1.03h2z"/><use xlink:href="#z" transform="matrix(1,0,0,1,660.6749999999997,288.2666666666667) translate(25.230000000000018 14.4)"/><use xlink:href="#A" transform="matrix(1,0,0,1,660.6749999999997,288.2666666666667) translate(123.43000000000002 14.4)"/><use xlink:href="#B" transform="matrix(1,0,0,1,660.6749999999997,288.2666666666667) translate(0.0049999999999954525 36)"/><use xlink:href="#C" transform="matrix(1,0,0,1,660.6749999999997,288.2666666666667) translate(87.855 36)"/><use xlink:href="#D" transform="matrix(1,0,0,1,660.6749999999997,288.2666666666667) translate(61.83000000000001 57.6)"/><path d="M447.97 882H442v-4h5.97zm19.92 0h-11.96v-4h11.95zm19.9 0h-11.95v-4h11.95zm19.9 0h-11.93v-4h11.94zm19.93 0h-11.95v-4h11.95zm19.9 0H535.6v-4h11.94zm19.92 0H555.5v-4h11.95zm19.92 0h-11.95v-4h11.95zm19.9 0h-11.94v-4h11.95zm19.92 0h-11.96v-4h11.95zm19.9 0h-11.94v-4h11.94zm19.92 0h-11.95v-4h11.95zm19.9 0H675v-4h11.95zm19.92 0H694.9v-4h11.94zm19.92 0H714.8v-4h11.96zm19.9 0h-11.94v-4h11.95zm19.92 0h-11.95v-4h11.95zm19.92 0h-11.95v-4h11.95zm19.9 0h-11.94v-4h11.95zm19.92 0h-11.95v-4h11.95zm19.9 0H834.3v-4h11.93zm19.93 0H854.2v-4h11.95zm19.9 0h-11.94v-4h11.96zm19.92 0h-11.94v-4h11.94zm19.92 0h-11.96v-4h11.95zm19.9 0h-11.95v-4h11.95zm19.9 0h-11.93v-4h11.94zm19.93 0h-11.95v-4h11.95zm19.9 0H993.6v-4h11.94zm19.92 0h-11.95v-4h11.95zm19.92 0h-11.95v-4h11.95zm19.9 0h-11.94v-4h11.95zm19.92 0h-11.96v-4h11.95zm19.9 0h-11.94v-4h11.94zm19.92 0h-11.95v-4h11.95zm19.9 0H1133v-4h11.95zm19.92 0h-11.94v-4h11.94zm19.92 0h-11.95v-4h11.96zm19.9 0h-11.94v-4h11.95zm19.92 0h-11.95v-4h11.95zm19.92 0h-11.95v-4h11.95zm19.9 0h-11.94v-4h11.95zm19.92 0h-11.95v-4h11.95zm19.9 0h-11.93v-4h11.93zm19.93 0h-11.95v-4h11.95zm19.9 0h-11.94v-4h11.96zm13.95 0h-5.97v-4h5.97z" fill="#19967d"/><path d="M442.05 882H440v-4h2.05zM1360 882h-2.05v-4h2.05z" fill="#19967d"/><use xlink:href="#E" transform="matrix(1,0,0,1,1194.5000000000002,838.6666666666666) translate(0 24.888888888888893)"/><use xlink:href="#F" transform="matrix(1,0,0,1,1194.5000000000002,838.6666666666666) translate(115.54320987654322 24.888888888888893)"/><path d="M560 960h160v80H560z" fill="#fff"/><path d="M581.33 960h21.34m10.66 0h21.34m10.66 0h21.34m10.66 0h21.34m10.66 0H720v8.9m0 8.88v17.78m0 8.88v17.78m0 8.9v8.88h-10.67m-10.66 0h-21.34m-10.66 0h-21.34m-10.66 0h-21.34m-10.66 0h-21.34m-10.66 0H560v-8.9m0-8.88v-17.78m0-8.88v-17.78m0-8.9V960h10.67" stroke="#000" stroke-width="2" fill="none"/><use xlink:href="#G" transform="matrix(1,0,0,1,565,965) translate(21.32716049382715 39.44444444444444)"/><path d="M641 940.5h-2v-29.7h2zm0-51.3h-2v-29.7h2zM644.64 858.5h-9.28l4.64-14.26z"/><path d="M646 859.5h-12l6-18.5zm-9.26-2h6.52L640 847.47zM640 955.76l-4.64-14.26h9.28z"/><path d="M640 959l-6-18.5h12zm-3.26-16.5l3.26 10.03 3.26-10.03z"/><g><use xlink:href="#H" transform="matrix(1,0,0,1,569.525,889.2) translate(0 14.4)"/><use xlink:href="#I" transform="matrix(1,0,0,1,569.525,889.2) translate(77.95 14.4)"/></g><path d="M447.97 382H442v-4h5.97zm19.92 0h-11.96v-4h11.95zm19.9 0h-11.95v-4h11.95zm19.9 0h-11.93v-4h11.94zm19.93 0h-11.95v-4h11.95zm19.9 0H535.6v-4h11.94zm19.92 0H555.5v-4h11.95zm19.92 0h-11.95v-4h11.95zm19.9 0h-11.94v-4h11.95zm19.92 0h-11.96v-4h11.95zm19.9 0h-11.94v-4h11.94zm19.92 0h-11.95v-4h11.95zm19.9 0H675v-4h11.95zm19.92 0H694.9v-4h11.94zm19.92 0H714.8v-4h11.96zm19.9 0h-11.94v-4h11.95zm19.92 0h-11.95v-4h11.95zm19.92 0h-11.95v-4h11.95zm19.9 0h-11.94v-4h11.95zm19.92 0h-11.95v-4h11.95zm19.9 0H834.3v-4h11.93zm19.93 0H854.2v-4h11.95zm19.9 0h-11.94v-4h11.96zm19.92 0h-11.94v-4h11.94zm19.92 0h-11.96v-4h11.95zm19.9 0h-11.95v-4h11.95zm19.9 0h-11.93v-4h11.94zm19.93 0h-11.95v-4h11.95zm19.9 0H993.6v-4h11.94zm19.92 0h-11.95v-4h11.95zm19.92 0h-11.95v-4h11.95zm19.9 0h-11.94v-4h11.95zm19.92 0h-11.96v-4h11.95zm19.9 0h-11.94v-4h11.94zm19.92 0h-11.95v-4h11.95zm19.9 0H1133v-4h11.95zm19.92 0h-11.94v-4h11.94zm19.92 0h-11.95v-4h11.96zm19.9 0h-11.94v-4h11.95zm19.92 0h-11.95v-4h11.95zm19.92 0h-11.95v-4h11.95zm19.9 0h-11.94v-4h11.95zm19.92 0h-11.95v-4h11.95zm19.9 0h-11.93v-4h11.93zm19.93 0h-11.95v-4h11.95zm19.9 0h-11.94v-4h11.96zm13.95 0h-5.97v-4h5.97z" fill="#19967d"/><path d="M442.05 382H440v-4h2.05zM1360 382h-2.05v-4h2.05z" fill="#19967d"/><g><use xlink:href="#J" transform="matrix(1,0,0,1,1140.179012345679,263.99999999999994) translate(124.2816049382716 24.888888888888893)"/><use xlink:href="#K" transform="matrix(1,0,0,1,1140.179012345679,263.99999999999994) translate(0.009999999999990905 62.222222222222236)"/><use xlink:href="#L" transform="matrix(1,0,0,1,1140.179012345679,263.99999999999994) translate(58.689012345679004 99.55555555555557)"/><use xlink:href="#F" transform="matrix(1,0,0,1,1140.179012345679,263.99999999999994) translate(170.86185185185184 99.55555555555557)"/></g><path d="M100 420h160v80H100z" fill="#fff"/><path d="M121.33 420h21.34m10.66 0h21.34m10.66 0h21.34m10.66 0h21.34m10.66 0H260v8.9m0 8.88v17.78m0 8.88v17.78m0 8.9V500h-10.67m-10.66 0h-21.34m-10.66 0h-21.34m-10.66 0h-21.34m-10.66 0h-21.34m-10.66 0H100v-8.9m0-8.88v-17.78m0-8.88v-17.78m0-8.9V420h10.67" stroke="#000" stroke-width="2" fill="none"/><g><use xlink:href="#M" transform="matrix(1,0,0,1,105,425) translate(17.03703703703703 26.111111111111114)"/><use xlink:href="#N" transform="matrix(1,0,0,1,105,425) translate(38.02469135802469 52.77777777777778)"/></g><path d="M441.5 460h-163" stroke="#000" stroke-width="2" fill="none"/><path d="M456.76 460l-14.26 4.64v-9.28zM263.24 460l14.26-4.64v9.28z" stroke="#000" stroke-width="2"/><g><use xlink:href="#O" transform="matrix(1,0,0,1,306.775,434.4) translate(0.010000000000005116 14.4)"/><use xlink:href="#P" transform="matrix(1,0,0,1,306.775,434.4) translate(47.96000000000001 14.4)"/><use xlink:href="#Q" transform="matrix(1,0,0,1,306.775,434.4) translate(64.96000000000001 14.4)"/></g><path d="M100 580h160v80H100z" fill="#fff"/><path d="M121.33 580h21.34m10.66 0h21.34m10.66 0h21.34m10.66 0h21.34m10.66 0H260v8.9m0 8.88v17.78m0 8.88v17.78m0 8.9V660h-10.67m-10.66 0h-21.34m-10.66 0h-21.34m-10.66 0h-21.34m-10.66 0h-21.34m-10.66 0H100v-8.9m0-8.88v-17.78m0-8.88v-17.78m0-8.9V580h10.67" stroke="#000" stroke-width="2" fill="none"/><g><use xlink:href="#R" transform="matrix(1,0,0,1,105,585) translate(38.0246913580247 39.44444444444444)"/></g><path d="M459 480h-99v140h-81.5M458.97 480H460" stroke="#000" stroke-width="2" fill="none"/><path d="M263.24 620l14.26-4.64v9.28z" stroke="#000" stroke-width="2"/><g><use xlink:href="#S" transform="matrix(1,0,0,1,290.1,526.4) translate(0.00999999999999801 14.4)"/><use xlink:href="#T" transform="matrix(1,0,0,1,290.1,526.4) translate(1.9599999999999937 36)"/></g><path d="M821 780h219.5M821.03 780H820" stroke="#000" stroke-width="2" fill="none"/><path d="M1055.76 780l-14.26 4.64v-9.28z" stroke="#000" stroke-width="2"/><g><use xlink:href="#u" transform="matrix(1,0,0,1,872.1,784.0000000000001) translate(0.0049999999999954525 14.4)"/><use xlink:href="#U" transform="matrix(1,0,0,1,872.1,784.0000000000001) translate(71.855 14.4)"/><use xlink:href="#V" transform="matrix(1,0,0,1,872.1,784.0000000000001) translate(105.855 14.4)"/></g><defs><path d="M185-189c-5-48-123-54-124 2 14 75 158 14 163 119 3 78-121 87-175 55-17-10-28-26-33-46l33-7c5 56 141 63 141-1 0-78-155-14-162-118-5-82 145-84 179-34 5 7 8 16 11 25" id="W"/><path d="M100-194c63 0 86 42 84 106H49c0 40 14 67 53 68 26 1 43-12 49-29l28 8c-11 28-37 45-77 45C44 4 14-33 15-96c1-61 26-98 85-98zm52 81c6-60-76-77-97-28-3 7-6 17-6 28h103" id="X"/><path d="M145-31C134-9 116 4 85 4 32 4 16-35 15-94c0-59 17-99 70-100 32-1 48 14 60 33 0-11-1-24 2-32h30l-1 268h-32zM93-21c41 0 51-33 51-76s-8-73-50-73c-40 0-46 35-46 75s5 74 45 74" id="Y"/><path d="M84 4C-5 8 30-112 23-190h32v120c0 31 7 50 39 49 72-2 45-101 50-169h31l1 190h-30c-1-10 1-25-2-33-11 22-28 36-60 37" id="Z"/><path d="M117-194c89-4 53 116 60 194h-32v-121c0-31-8-49-39-48C34-167 62-67 57 0H25l-1-190h30c1 10-1 24 2 32 11-22 29-35 61-36" id="aa"/><path d="M96-169c-40 0-48 33-48 73s9 75 48 75c24 0 41-14 43-38l32 2c-6 37-31 61-74 61-59 0-76-41-82-99-10-93 101-131 147-64 4 7 5 14 7 22l-32 3c-4-21-16-35-41-35" id="ab"/><path d="M114-163C36-179 61-72 57 0H25l-1-190h30c1 12-1 29 2 39 6-27 23-49 58-41v29" id="ac"/><g id="a"><use transform="matrix(0.06172839506172839,0,0,0.06172839506172839,0,0)" xlink:href="#W"/><use transform="matrix(0.06172839506172839,0,0,0.06172839506172839,14.814814814814813,0)" xlink:href="#X"/><use transform="matrix(0.06172839506172839,0,0,0.06172839506172839,27.160493827160494,0)" xlink:href="#Y"/><use transform="matrix(0.06172839506172839,0,0,0.06172839506172839,39.50617283950617,0)" xlink:href="#Z"/><use transform="matrix(0.06172839506172839,0,0,0.06172839506172839,51.85185185185185,0)" xlink:href="#X"/><use transform="matrix(0.06172839506172839,0,0,0.06172839506172839,64.19753086419753,0)" xlink:href="#aa"/><use transform="matrix(0.06172839506172839,0,0,0.06172839506172839,76.54320987654322,0)" xlink:href="#ab"/><use transform="matrix(0.06172839506172839,0,0,0.06172839506172839,87.65432098765433,0)" xlink:href="#X"/><use transform="matrix(0.06172839506172839,0,0,0.06172839506172839,100.00000000000001,0)" xlink:href="#ac"/></g><path d="M212-179c-10-28-35-45-73-45-59 0-87 40-87 99 0 60 29 101 89 101 43 0 62-24 78-52l27 14C228-24 195 4 139 4 59 4 22-46 18-125c-6-104 99-153 187-111 19 9 31 26 39 46" id="ad"/><path d="M24 0v-261h32V0H24" id="ae"/><path d="M24-231v-30h32v30H24zM24 0v-190h32V0H24" id="af"/><path d="M59-47c-2 24 18 29 38 22v24C64 9 27 4 27-40v-127H5v-23h24l9-43h21v43h35v23H59v120" id="ag"/><g id="b"><use transform="matrix(0.06172839506172839,0,0,0.06172839506172839,0,0)" xlink:href="#ad"/><use transform="matrix(0.06172839506172839,0,0,0.06172839506172839,15.987654320987653,0)" xlink:href="#ae"/><use transform="matrix(0.06172839506172839,0,0,0.06172839506172839,20.864197530864196,0)" xlink:href="#af"/><use transform="matrix(0.06172839506172839,0,0,0.06172839506172839,25.74074074074074,0)" xlink:href="#X"/><use transform="matrix(0.06172839506172839,0,0,0.06172839506172839,38.08641975308642,0)" xlink:href="#aa"/><use transform="matrix(0.06172839506172839,0,0,0.06172839506172839,50.432098765432094,0)" xlink:href="#ag"/></g><path d="M127-220V0H93v-220H8v-28h204v28h-85" id="ah"/><path d="M141-36C126-15 110 5 73 4 37 3 15-17 15-53c-1-64 63-63 125-63 3-35-9-54-41-54-24 1-41 7-42 31l-33-3c5-37 33-52 76-52 45 0 72 20 72 64v82c-1 20 7 32 28 27v20c-31 9-61-2-59-35zM48-53c0 20 12 33 32 33 41-3 63-29 60-74-43 2-92-5-92 41" id="ai"/><path d="M135-143c-3-34-86-38-87 0 15 53 115 12 119 90S17 21 10-45l28-5c4 36 97 45 98 0-10-56-113-15-118-90-4-57 82-63 122-42 12 7 21 19 24 35" id="aj"/><path d="M100-194c62-1 85 37 85 99 1 63-27 99-86 99S16-35 15-95c0-66 28-99 85-99zM99-20c44 1 53-31 53-75 0-43-8-75-51-75s-53 32-53 75 10 74 51 75" id="ak"/><g id="c"><use transform="matrix(0.06172839506172839,0,0,0.06172839506172839,0,0)" xlink:href="#ah"/><use transform="matrix(0.06172839506172839,0,0,0.06172839506172839,12.716049382716047,0)" xlink:href="#ac"/><use transform="matrix(0.06172839506172839,0,0,0.06172839506172839,20.061728395061728,0)" xlink:href="#ai"/><use transform="matrix(0.06172839506172839,0,0,0.06172839506172839,32.407407407407405,0)" xlink:href="#aa"/><use transform="matrix(0.06172839506172839,0,0,0.06172839506172839,44.75308641975308,0)" xlink:href="#aj"/><use transform="matrix(0.06172839506172839,0,0,0.06172839506172839,55.86419753086419,0)" xlink:href="#ai"/><use transform="matrix(0.06172839506172839,0,0,0.06172839506172839,68.20987654320987,0)" xlink:href="#ab"/><use transform="matrix(0.06172839506172839,0,0,0.06172839506172839,79.32098765432099,0)" xlink:href="#ag"/><use transform="matrix(0.06172839506172839,0,0,0.06172839506172839,85.49382716049382,0)" xlink:href="#af"/><use transform="matrix(0.06172839506172839,0,0,0.06172839506172839,90.37037037037037,0)" xlink:href="#ak"/><use transform="matrix(0.06172839506172839,0,0,0.06172839506172839,102.71604938271605,0)" xlink:href="#aa"/><use transform="matrix(0.06172839506172839,0,0,0.06172839506172839,115.06172839506173,0)" xlink:href="#aj"/></g><path d="M101-234c-31-9-42 10-38 44h38v23H63V0H32v-167H5v-23h27c-7-52 17-82 69-68v24" id="al"/><path d="M210-169c-67 3-38 105-44 169h-31v-121c0-29-5-50-35-48C34-165 62-65 56 0H25l-1-190h30c1 10-1 24 2 32 10-44 99-50 107 0 11-21 27-35 58-36 85-2 47 119 55 194h-31v-121c0-29-5-49-35-48" id="am"/><g id="d"><use transform="matrix(0.05,0,0,0.05,0,0)" xlink:href="#ad"/><use transform="matrix(0.05,0,0,0.05,12.950000000000001,0)" xlink:href="#ak"/><use transform="matrix(0.05,0,0,0.05,22.950000000000003,0)" xlink:href="#aa"/><use transform="matrix(0.05,0,0,0.05,32.95,0)" xlink:href="#al"/><use transform="matrix(0.05,0,0,0.05,37.95,0)" xlink:href="#af"/><use transform="matrix(0.05,0,0,0.05,41.900000000000006,0)" xlink:href="#ac"/><use transform="matrix(0.05,0,0,0.05,47.85000000000001,0)" xlink:href="#am"/><use transform="matrix(0.05,0,0,0.05,62.80000000000001,0)" xlink:href="#ai"/><use transform="matrix(0.05,0,0,0.05,72.80000000000001,0)" xlink:href="#ag"/><use transform="matrix(0.05,0,0,0.05,77.80000000000001,0)" xlink:href="#af"/><use transform="matrix(0.05,0,0,0.05,81.75000000000001,0)" xlink:href="#ak"/><use transform="matrix(0.05,0,0,0.05,91.75000000000001,0)" xlink:href="#aa"/></g><path d="M233-177c-1 41-23 64-60 70L243 0h-38l-65-103H63V0H30v-248c88 3 205-21 203 71zM63-129c60-2 137 13 137-47 0-61-80-42-137-45v92" id="an"/><g id="e"><use transform="matrix(0.05,0,0,0.05,0,0)" xlink:href="#an"/><use transform="matrix(0.05,0,0,0.05,12.950000000000001,0)" xlink:href="#X"/><use transform="matrix(0.05,0,0,0.05,22.950000000000003,0)" xlink:href="#Y"/><use transform="matrix(0.05,0,0,0.05,32.95,0)" xlink:href="#Z"/><use transform="matrix(0.05,0,0,0.05,42.95,0)" xlink:href="#X"/><use transform="matrix(0.05,0,0,0.05,52.95,0)" xlink:href="#aj"/><use transform="matrix(0.05,0,0,0.05,61.95,0)" xlink:href="#ag"/><use transform="matrix(0.05,0,0,0.05,66.95,0)" xlink:href="#aj"/></g><path d="M68-38c1 34 0 65-14 84H32c9-13 17-26 17-46H33v-38h35" id="ao"/><g id="f"><use transform="matrix(0.05,0,0,0.05,0,0)" xlink:href="#an"/><use transform="matrix(0.05,0,0,0.05,12.950000000000001,0)" xlink:href="#X"/><use transform="matrix(0.05,0,0,0.05,22.950000000000003,0)" xlink:href="#Y"/><use transform="matrix(0.05,0,0,0.05,32.95,0)" xlink:href="#Z"/><use transform="matrix(0.05,0,0,0.05,42.95,0)" xlink:href="#X"/><use transform="matrix(0.05,0,0,0.05,52.95,0)" xlink:href="#aj"/><use transform="matrix(0.05,0,0,0.05,61.95,0)" xlink:href="#ag"/><use transform="matrix(0.05,0,0,0.05,66.95,0)" xlink:href="#aj"/><use transform="matrix(0.05,0,0,0.05,75.95,0)" xlink:href="#ao"/></g><path d="M115-194c55 1 70 41 70 98S169 2 115 4C84 4 66-9 55-30l1 105H24l-1-265h31l2 30c10-21 28-34 59-34zm-8 174c40 0 45-34 45-75s-6-73-45-74c-42 0-51 32-51 76 0 43 10 73 51 73" id="ap"/><g id="h"><use transform="matrix(0.05,0,0,0.05,0,0)" xlink:href="#an"/><use transform="matrix(0.05,0,0,0.05,12.950000000000001,0)" xlink:href="#X"/><use transform="matrix(0.05,0,0,0.05,22.950000000000003,0)" xlink:href="#aj"/><use transform="matrix(0.05,0,0,0.05,31.950000000000003,0)" xlink:href="#ap"/><use transform="matrix(0.05,0,0,0.05,41.95,0)" xlink:href="#ak"/><use transform="matrix(0.05,0,0,0.05,51.95,0)" xlink:href="#aa"/><use transform="matrix(0.05,0,0,0.05,61.95,0)" xlink:href="#aj"/><use transform="matrix(0.05,0,0,0.05,70.95,0)" xlink:href="#X"/><use transform="matrix(0.05,0,0,0.05,80.95,0)" xlink:href="#aj"/></g><path d="M85-194c31 0 48 13 60 33l-1-100h32l1 261h-30c-2-10 0-23-3-31C134-8 116 4 85 4 32 4 16-35 15-94c0-66 23-100 70-100zm9 24c-40 0-46 34-46 75 0 40 6 74 45 74 42 0 51-32 51-76 0-42-9-74-50-73" id="aq"/><g id="i"><use transform="matrix(0.05,0,0,0.05,0,0)" xlink:href="#ai"/><use transform="matrix(0.05,0,0,0.05,10,0)" xlink:href="#aa"/><use transform="matrix(0.05,0,0,0.05,20,0)" xlink:href="#aq"/></g><g id="j"><use transform="matrix(0.05,0,0,0.05,0,0)" xlink:href="#an"/><use transform="matrix(0.05,0,0,0.05,12.950000000000001,0)" xlink:href="#X"/><use transform="matrix(0.05,0,0,0.05,22.950000000000003,0)" xlink:href="#aj"/><use transform="matrix(0.05,0,0,0.05,31.950000000000003,0)" xlink:href="#Z"/><use transform="matrix(0.05,0,0,0.05,41.95,0)" xlink:href="#ae"/><use transform="matrix(0.05,0,0,0.05,45.900000000000006,0)" xlink:href="#ag"/><use transform="matrix(0.05,0,0,0.05,50.900000000000006,0)" xlink:href="#aj"/></g><path d="M33 0v-248h34V0H33" id="ar"/><path d="M179-190L93 31C79 59 56 82 12 73V49c39 6 53-20 64-50L1-190h34L92-34l54-156h33" id="as"/><g id="k"><use transform="matrix(0.06172839506172839,0,0,0.06172839506172839,0,0)" xlink:href="#ar"/><use transform="matrix(0.06172839506172839,0,0,0.06172839506172839,6.172839506172839,0)" xlink:href="#aq"/><use transform="matrix(0.06172839506172839,0,0,0.06172839506172839,18.51851851851852,0)" xlink:href="#X"/><use transform="matrix(0.06172839506172839,0,0,0.06172839506172839,30.864197530864196,0)" xlink:href="#aa"/><use transform="matrix(0.06172839506172839,0,0,0.06172839506172839,43.20987654320987,0)" xlink:href="#ag"/><use transform="matrix(0.06172839506172839,0,0,0.06172839506172839,49.382716049382715,0)" xlink:href="#af"/><use transform="matrix(0.06172839506172839,0,0,0.06172839506172839,54.25925925925926,0)" xlink:href="#ag"/><use transform="matrix(0.06172839506172839,0,0,0.06172839506172839,60.4320987654321,0)" xlink:href="#as"/></g><path d="M30 0v-248h187v28H63v79h144v27H63v87h162V0H30" id="at"/><g id="l"><use transform="matrix(0.05,0,0,0.05,0,0)" xlink:href="#at"/><use transform="matrix(0.05,0,0,0.05,12,0)" xlink:href="#aj"/><use transform="matrix(0.05,0,0,0.05,21,0)" xlink:href="#ab"/><use transform="matrix(0.05,0,0,0.05,30,0)" xlink:href="#ai"/><use transform="matrix(0.05,0,0,0.05,40,0)" xlink:href="#ae"/><use transform="matrix(0.05,0,0,0.05,43.95,0)" xlink:href="#ai"/><use transform="matrix(0.05,0,0,0.05,53.95,0)" xlink:href="#ag"/><use transform="matrix(0.05,0,0,0.05,58.95,0)" xlink:href="#X"/></g><g id="m"><use transform="matrix(0.05,0,0,0.05,0,0)" xlink:href="#ah"/><use transform="matrix(0.05,0,0,0.05,10.3,0)" xlink:href="#af"/><use transform="matrix(0.05,0,0,0.05,14.25,0)" xlink:href="#am"/><use transform="matrix(0.05,0,0,0.05,29.200000000000003,0)" xlink:href="#X"/><use transform="matrix(0.05,0,0,0.05,39.2,0)" xlink:href="#ak"/><use transform="matrix(0.05,0,0,0.05,49.2,0)" xlink:href="#Z"/><use transform="matrix(0.05,0,0,0.05,59.2,0)" xlink:href="#ag"/><use transform="matrix(0.05,0,0,0.05,64.2,0)" xlink:href="#aj"/></g><path d="M234-2c-28 10-62 0-77-18C117 19 8 12 13-65c3-43 29-61 60-76-25-40-17-114 47-108 35 3 59 15 59 50 0 44-40 53-71 69 14 26 32 50 51 72 14-21 24-43 30-72l26 8c-9 33-21 57-38 82 13 13 33 22 57 15v23zM97-151c25-10 52-18 56-48-1-18-13-29-33-29-42 0-39 50-23 77zM42-66c-3 51 71 58 98 28-20-24-41-51-56-80-23 10-40 24-42 52" id="au"/><use transform="matrix(0.05,0,0,0.05,0,0)" xlink:href="#au" id="n"/><path d="M240 0l2-218c-23 76-54 145-80 218h-23L58-218 59 0H30v-248h44l77 211c21-75 51-140 76-211h43V0h-30" id="av"/><g id="o"><use transform="matrix(0.05,0,0,0.05,0,0)" xlink:href="#av"/><use transform="matrix(0.05,0,0,0.05,14.950000000000001,0)" xlink:href="#ai"/><use transform="matrix(0.05,0,0,0.05,24.950000000000003,0)" xlink:href="#ae"/><use transform="matrix(0.05,0,0,0.05,28.900000000000002,0)" xlink:href="#af"/><use transform="matrix(0.05,0,0,0.05,32.85,0)" xlink:href="#ab"/><use transform="matrix(0.05,0,0,0.05,41.85,0)" xlink:href="#af"/><use transform="matrix(0.05,0,0,0.05,45.800000000000004,0)" xlink:href="#ak"/><use transform="matrix(0.05,0,0,0.05,55.800000000000004,0)" xlink:href="#Z"/><use transform="matrix(0.05,0,0,0.05,65.80000000000001,0)" xlink:href="#aj"/><use transform="matrix(0.05,0,0,0.05,74.80000000000001,0)" xlink:href="#aa"/><use transform="matrix(0.05,0,0,0.05,84.80000000000001,0)" xlink:href="#X"/><use transform="matrix(0.05,0,0,0.05,94.80000000000001,0)" xlink:href="#aj"/><use transform="matrix(0.05,0,0,0.05,103.80000000000001,0)" xlink:href="#aj"/></g><path d="M87 75C49 33 22-17 22-94c0-76 28-126 65-167h31c-38 41-64 92-64 168S80 34 118 75H87" id="aw"/><path d="M205 0l-28-72H64L36 0H1l101-248h38L239 0h-34zm-38-99l-47-123c-12 45-31 82-46 123h93" id="ax"/><path d="M33-261c38 41 65 92 65 168S71 34 33 75H2C39 34 66-17 66-93S39-220 2-261h31" id="ay"/><g id="p"><use transform="matrix(0.05,0,0,0.05,0,0)" xlink:href="#aw"/><use transform="matrix(0.05,0,0,0.05,5.95,0)" xlink:href="#ax"/><use transform="matrix(0.05,0,0,0.05,17.95,0)" xlink:href="#ae"/><use transform="matrix(0.05,0,0,0.05,21.9,0)" xlink:href="#ai"/><use transform="matrix(0.05,0,0,0.05,31.899999999999995,0)" xlink:href="#ac"/><use transform="matrix(0.05,0,0,0.05,37.85,0)" xlink:href="#am"/><use transform="matrix(0.05,0,0,0.05,52.800000000000004,0)" xlink:href="#aj"/><use transform="matrix(0.05,0,0,0.05,61.800000000000004,0)" xlink:href="#ay"/></g><g id="q"><use transform="matrix(0.05,0,0,0.05,0,0)" xlink:href="#an"/><use transform="matrix(0.05,0,0,0.05,12.950000000000001,0)" xlink:href="#X"/><use transform="matrix(0.05,0,0,0.05,22.950000000000003,0)" xlink:href="#aj"/><use transform="matrix(0.05,0,0,0.05,31.950000000000003,0)" xlink:href="#ap"/><use transform="matrix(0.05,0,0,0.05,41.95,0)" xlink:href="#ak"/><use transform="matrix(0.05,0,0,0.05,51.95,0)" xlink:href="#aa"/><use transform="matrix(0.05,0,0,0.05,61.95,0)" xlink:href="#aj"/><use transform="matrix(0.05,0,0,0.05,70.95,0)" xlink:href="#X"/><use transform="matrix(0.05,0,0,0.05,80.95,0)" xlink:href="#aj"/></g><path d="M30-248c87 1 191-15 191 75 0 78-77 80-158 76V0H30v-248zm33 125c57 0 124 11 124-50 0-59-68-47-124-48v98" id="az"/><path d="M194 0L95-120 63-95V0H30v-248h33v124l119-124h40L117-140 236 0h-42" id="aA"/><g id="r"><use transform="matrix(0.05,0,0,0.05,0,0)" xlink:href="#az"/><use transform="matrix(0.05,0,0,0.05,12,0)" xlink:href="#aA"/><use transform="matrix(0.05,0,0,0.05,24,0)" xlink:href="#ar"/><use transform="matrix(0.05,0,0,0.05,29,0)" xlink:href="#ao"/></g><path d="M16-82v-28h88v28H16" id="aB"/><g id="s"><use transform="matrix(0.05,0,0,0.05,0,0)" xlink:href="#ap"/><use transform="matrix(0.05,0,0,0.05,10,0)" xlink:href="#ai"/><use transform="matrix(0.05,0,0,0.05,20,0)" xlink:href="#ac"/><use transform="matrix(0.05,0,0,0.05,25.950000000000003,0)" xlink:href="#ag"/><use transform="matrix(0.05,0,0,0.05,30.950000000000003,0)" xlink:href="#as"/><use transform="matrix(0.05,0,0,0.05,39.95,0)" xlink:href="#aB"/><use transform="matrix(0.05,0,0,0.05,45.900000000000006,0)" xlink:href="#ap"/><use transform="matrix(0.05,0,0,0.05,55.900000000000006,0)" xlink:href="#ai"/><use transform="matrix(0.05,0,0,0.05,65.9,0)" xlink:href="#ac"/><use transform="matrix(0.05,0,0,0.05,71.85000000000001,0)" xlink:href="#ag"/><use transform="matrix(0.05,0,0,0.05,76.85000000000001,0)" xlink:href="#af"/><use transform="matrix(0.05,0,0,0.05,80.80000000000001,0)" xlink:href="#ab"/><use transform="matrix(0.05,0,0,0.05,89.80000000000001,0)" xlink:href="#af"/><use transform="matrix(0.05,0,0,0.05,93.75000000000001,0)" xlink:href="#ap"/><use transform="matrix(0.05,0,0,0.05,103.75,0)" xlink:href="#ai"/><use transform="matrix(0.05,0,0,0.05,113.75,0)" xlink:href="#aa"/><use transform="matrix(0.05,0,0,0.05,123.75,0)" xlink:href="#ag"/></g><path d="M177-190C167-65 218 103 67 71c-23-6-38-20-44-43l32-5c15 47 100 32 89-28v-30C133-14 115 1 83 1 29 1 15-40 15-95c0-56 16-97 71-98 29-1 48 16 59 35 1-10 0-23 2-32h30zM94-22c36 0 50-32 50-73 0-42-14-75-50-75-39 0-46 34-46 75s6 73 46 73" id="aC"/><g id="t"><use transform="matrix(0.05,0,0,0.05,0,0)" xlink:href="#am"/><use transform="matrix(0.05,0,0,0.05,14.950000000000001,0)" xlink:href="#ai"/><use transform="matrix(0.05,0,0,0.05,24.950000000000003,0)" xlink:href="#ap"/><use transform="matrix(0.05,0,0,0.05,34.95,0)" xlink:href="#ap"/><use transform="matrix(0.05,0,0,0.05,44.95,0)" xlink:href="#af"/><use transform="matrix(0.05,0,0,0.05,48.900000000000006,0)" xlink:href="#aa"/><use transform="matrix(0.05,0,0,0.05,58.900000000000006,0)" xlink:href="#aC"/><use transform="matrix(0.05,0,0,0.05,68.9,0)" xlink:href="#aj"/></g><path d="M108 0H70L1-190h34L89-25l56-165h34" id="aD"/><g id="u"><use transform="matrix(0.05,0,0,0.05,0,0)" xlink:href="#an"/><use transform="matrix(0.05,0,0,0.05,12.950000000000001,0)" xlink:href="#X"/><use transform="matrix(0.05,0,0,0.05,22.950000000000003,0)" xlink:href="#ag"/><use transform="matrix(0.05,0,0,0.05,27.950000000000003,0)" xlink:href="#ac"/><use transform="matrix(0.05,0,0,0.05,33.900000000000006,0)" xlink:href="#af"/><use transform="matrix(0.05,0,0,0.05,37.85000000000001,0)" xlink:href="#X"/><use transform="matrix(0.05,0,0,0.05,47.85000000000001,0)" xlink:href="#aD"/><use transform="matrix(0.05,0,0,0.05,56.85,0)" xlink:href="#X"/></g><g id="v"><use transform="matrix(0.05,0,0,0.05,0,0)" xlink:href="#az"/><use transform="matrix(0.05,0,0,0.05,12,0)" xlink:href="#aA"/><use transform="matrix(0.05,0,0,0.05,24,0)" xlink:href="#ar"/><use transform="matrix(0.05,0,0,0.05,29,0)" xlink:href="#ao"/></g><path d="M30 0v-248h33v221h125V0H30" id="aE"/><g id="w"><use transform="matrix(0.05,0,0,0.05,0,0)" xlink:href="#aE"/><use transform="matrix(0.05,0,0,0.05,10,0)" xlink:href="#W"/><use transform="matrix(0.05,0,0,0.05,22,0)" xlink:href="#W"/></g><path d="M115-194c53 0 69 39 70 98 0 66-23 100-70 100C84 3 66-7 56-30L54 0H23l1-261h32v101c10-23 28-34 59-34zm-8 174c40 0 45-34 45-75 0-40-5-75-45-74-42 0-51 32-51 76 0 43 10 73 51 73" id="aF"/><g id="x"><use transform="matrix(0.05,0,0,0.05,0,0)" xlink:href="#W"/><use transform="matrix(0.05,0,0,0.05,12,0)" xlink:href="#Z"/><use transform="matrix(0.05,0,0,0.05,22,0)" xlink:href="#aF"/><use transform="matrix(0.05,0,0,0.05,32,0)" xlink:href="#am"/><use transform="matrix(0.05,0,0,0.05,46.95,0)" xlink:href="#af"/><use transform="matrix(0.05,0,0,0.05,50.900000000000006,0)" xlink:href="#ag"/></g><g id="y"><use transform="matrix(0.05,0,0,0.05,0,0)" xlink:href="#ah"/><use transform="matrix(0.05,0,0,0.05,10.3,0)" xlink:href="#ac"/><use transform="matrix(0.05,0,0,0.05,16.25,0)" xlink:href="#ai"/><use transform="matrix(0.05,0,0,0.05,26.25,0)" xlink:href="#aa"/><use transform="matrix(0.05,0,0,0.05,36.25,0)" xlink:href="#aj"/><use transform="matrix(0.05,0,0,0.05,45.25,0)" xlink:href="#ai"/><use transform="matrix(0.05,0,0,0.05,55.25,0)" xlink:href="#ab"/><use transform="matrix(0.05,0,0,0.05,64.25,0)" xlink:href="#ag"/><use transform="matrix(0.05,0,0,0.05,69.25,0)" xlink:href="#af"/><use transform="matrix(0.05,0,0,0.05,73.2,0)" xlink:href="#ak"/><use transform="matrix(0.05,0,0,0.05,83.2,0)" xlink:href="#aa"/></g><g id="z"><use transform="matrix(0.05,0,0,0.05,0,0)" xlink:href="#ah"/><use transform="matrix(0.05,0,0,0.05,10.3,0)" xlink:href="#ac"/><use transform="matrix(0.05,0,0,0.05,16.25,0)" xlink:href="#ai"/><use transform="matrix(0.05,0,0,0.05,26.25,0)" xlink:href="#aa"/><use transform="matrix(0.05,0,0,0.05,36.25,0)" xlink:href="#aj"/><use transform="matrix(0.05,0,0,0.05,45.25,0)" xlink:href="#ai"/><use transform="matrix(0.05,0,0,0.05,55.25,0)" xlink:href="#ab"/><use transform="matrix(0.05,0,0,0.05,64.25,0)" xlink:href="#ag"/><use transform="matrix(0.05,0,0,0.05,69.25,0)" xlink:href="#af"/><use transform="matrix(0.05,0,0,0.05,73.2,0)" xlink:href="#ak"/><use transform="matrix(0.05,0,0,0.05,83.2,0)" xlink:href="#aa"/></g><g id="A"><use transform="matrix(0.05,0,0,0.05,0,0)" xlink:href="#ai"/><use transform="matrix(0.05,0,0,0.05,10,0)" xlink:href="#aa"/><use transform="matrix(0.05,0,0,0.05,20,0)" xlink:href="#aq"/></g><g id="B"><use transform="matrix(0.05,0,0,0.05,0,0)" xlink:href="#ad"/><use transform="matrix(0.05,0,0,0.05,12.950000000000001,0)" xlink:href="#ak"/><use transform="matrix(0.05,0,0,0.05,22.950000000000003,0)" xlink:href="#am"/><use transform="matrix(0.05,0,0,0.05,37.900000000000006,0)" xlink:href="#am"/><use transform="matrix(0.05,0,0,0.05,52.85,0)" xlink:href="#ai"/><use transform="matrix(0.05,0,0,0.05,62.85,0)" xlink:href="#aa"/><use transform="matrix(0.05,0,0,0.05,72.85000000000001,0)" xlink:href="#aq"/></g><g id="C"><use transform="matrix(0.05,0,0,0.05,0,0)" xlink:href="#ad"/><use transform="matrix(0.05,0,0,0.05,12.950000000000001,0)" xlink:href="#ak"/><use transform="matrix(0.05,0,0,0.05,22.950000000000003,0)" xlink:href="#am"/><use transform="matrix(0.05,0,0,0.05,37.900000000000006,0)" xlink:href="#ap"/><use transform="matrix(0.05,0,0,0.05,47.900000000000006,0)" xlink:href="#ae"/><use transform="matrix(0.05,0,0,0.05,51.85,0)" xlink:href="#X"/><use transform="matrix(0.05,0,0,0.05,61.85,0)" xlink:href="#ag"/><use transform="matrix(0.05,0,0,0.05,66.85000000000001,0)" xlink:href="#af"/><use transform="matrix(0.05,0,0,0.05,70.80000000000001,0)" xlink:href="#ak"/><use transform="matrix(0.05,0,0,0.05,80.80000000000001,0)" xlink:href="#aa"/></g><g id="D"><use transform="matrix(0.05,0,0,0.05,0,0)" xlink:href="#at"/><use transform="matrix(0.05,0,0,0.05,12,0)" xlink:href="#aD"/><use transform="matrix(0.05,0,0,0.05,21,0)" xlink:href="#X"/><use transform="matrix(0.05,0,0,0.05,31,0)" xlink:href="#aa"/><use transform="matrix(0.05,0,0,0.05,41,0)" xlink:href="#ag"/><use transform="matrix(0.05,0,0,0.05,46,0)" xlink:href="#aj"/></g><path fill="#19967d" d="M30-248c118-7 216 8 213 122C240-48 200 0 122 0H30v-248zM63-27c89 8 146-16 146-99s-60-101-146-95v194" id="aG"/><path fill="#19967d" d="M100-194c62-1 85 37 85 99 1 63-27 99-86 99S16-35 15-95c0-66 28-99 85-99zM99-20c44 1 53-31 53-75 0-43-8-75-51-75s-53 32-53 75 10 74 51 75" id="aH"/><path fill="#19967d" d="M210-169c-67 3-38 105-44 169h-31v-121c0-29-5-50-35-48C34-165 62-65 56 0H25l-1-190h30c1 10-1 24 2 32 10-44 99-50 107 0 11-21 27-35 58-36 85-2 47 119 55 194h-31v-121c0-29-5-49-35-48" id="aI"/><path fill="#19967d" d="M141-36C126-15 110 5 73 4 37 3 15-17 15-53c-1-64 63-63 125-63 3-35-9-54-41-54-24 1-41 7-42 31l-33-3c5-37 33-52 76-52 45 0 72 20 72 64v82c-1 20 7 32 28 27v20c-31 9-61-2-59-35zM48-53c0 20 12 33 32 33 41-3 63-29 60-74-43 2-92-5-92 41" id="aJ"/><path fill="#19967d" d="M24-231v-30h32v30H24zM24 0v-190h32V0H24" id="aK"/><path fill="#19967d" d="M117-194c89-4 53 116 60 194h-32v-121c0-31-8-49-39-48C34-167 62-67 57 0H25l-1-190h30c1 10-1 24 2 32 11-22 29-35 61-36" id="aL"/><g id="E"><use transform="matrix(0.08641975308641976,0,0,0.08641975308641976,0,0)" xlink:href="#aG"/><use transform="matrix(0.08641975308641976,0,0,0.08641975308641976,22.38271604938272,0)" xlink:href="#aH"/><use transform="matrix(0.08641975308641976,0,0,0.08641975308641976,39.66666666666667,0)" xlink:href="#aI"/><use transform="matrix(0.08641975308641976,0,0,0.08641975308641976,65.50617283950618,0)" xlink:href="#aJ"/><use transform="matrix(0.08641975308641976,0,0,0.08641975308641976,82.79012345679013,0)" xlink:href="#aK"/><use transform="matrix(0.08641975308641976,0,0,0.08641975308641976,89.61728395061729,0)" xlink:href="#aL"/></g><path fill="#19967d" d="M205 0l-28-72H64L36 0H1l101-248h38L239 0h-34zm-38-99l-47-123c-12 45-31 82-46 123h93" id="aM"/><path fill="#19967d" d="M30-248c87 1 191-15 191 75 0 78-77 80-158 76V0H30v-248zm33 125c57 0 124 11 124-50 0-59-68-47-124-48v98" id="aN"/><path fill="#19967d" d="M33 0v-248h34V0H33" id="aO"/><g id="F"><use transform="matrix(0.08641975308641976,0,0,0.08641975308641976,0,0)" xlink:href="#aM"/><use transform="matrix(0.08641975308641976,0,0,0.08641975308641976,20.740740740740744,0)" xlink:href="#aN"/><use transform="matrix(0.08641975308641976,0,0,0.08641975308641976,41.48148148148149,0)" xlink:href="#aO"/></g><g id="G"><use transform="matrix(0.06172839506172839,0,0,0.06172839506172839,0,0)" xlink:href="#W"/><use transform="matrix(0.06172839506172839,0,0,0.06172839506172839,14.814814814814813,0)" xlink:href="#X"/><use transform="matrix(0.06172839506172839,0,0,0.06172839506172839,27.160493827160494,0)" xlink:href="#Y"/><use transform="matrix(0.06172839506172839,0,0,0.06172839506172839,39.50617283950617,0)" xlink:href="#Z"/><use transform="matrix(0.06172839506172839,0,0,0.06172839506172839,51.85185185185185,0)" xlink:href="#X"/><use transform="matrix(0.06172839506172839,0,0,0.06172839506172839,64.19753086419753,0)" xlink:href="#aa"/><use transform="matrix(0.06172839506172839,0,0,0.06172839506172839,76.54320987654322,0)" xlink:href="#ab"/><use transform="matrix(0.06172839506172839,0,0,0.06172839506172839,87.65432098765433,0)" xlink:href="#X"/><use transform="matrix(0.06172839506172839,0,0,0.06172839506172839,100.00000000000001,0)" xlink:href="#ac"/></g><g id="H"><use transform="matrix(0.05,0,0,0.05,0,0)" xlink:href="#av"/><use transform="matrix(0.05,0,0,0.05,14.950000000000001,0)" xlink:href="#X"/><use transform="matrix(0.05,0,0,0.05,24.950000000000003,0)" xlink:href="#aj"/><use transform="matrix(0.05,0,0,0.05,33.95,0)" xlink:href="#aj"/><use transform="matrix(0.05,0,0,0.05,42.95,0)" xlink:href="#ai"/><use transform="matrix(0.05,0,0,0.05,52.95,0)" xlink:href="#aC"/><use transform="matrix(0.05,0,0,0.05,62.95,0)" xlink:href="#X"/></g><path d="M106-169C34-169 62-67 57 0H25v-261h32l-1 103c12-21 28-36 61-36 89 0 53 116 60 194h-32v-121c2-32-8-49-39-48" id="aP"/><g id="I"><use transform="matrix(0.05,0,0,0.05,0,0)" xlink:href="#aF"/><use transform="matrix(0.05,0,0,0.05,10,0)" xlink:href="#ai"/><use transform="matrix(0.05,0,0,0.05,20,0)" xlink:href="#ag"/><use transform="matrix(0.05,0,0,0.05,25,0)" xlink:href="#ab"/><use transform="matrix(0.05,0,0,0.05,34,0)" xlink:href="#aP"/><use transform="matrix(0.05,0,0,0.05,44,0)" xlink:href="#X"/><use transform="matrix(0.05,0,0,0.05,54,0)" xlink:href="#aj"/></g><path fill="#19967d" d="M30 0v-248h33v221h125V0H30" id="aQ"/><path fill="#19967d" d="M100-194c63 0 86 42 84 106H49c0 40 14 67 53 68 26 1 43-12 49-29l28 8c-11 28-37 45-77 45C44 4 14-33 15-96c1-61 26-98 85-98zm52 81c6-60-76-77-97-28-3 7-6 17-6 28h103" id="aR"/><path fill="#19967d" d="M85-194c31 0 48 13 60 33l-1-100h32l1 261h-30c-2-10 0-23-3-31C134-8 116 4 85 4 32 4 16-35 15-94c0-66 23-100 70-100zm9 24c-40 0-46 34-46 75 0 40 6 74 45 74 42 0 51-32 51-76 0-42-9-74-50-73" id="aS"/><path fill="#19967d" d="M177-190C167-65 218 103 67 71c-23-6-38-20-44-43l32-5c15 47 100 32 89-28v-30C133-14 115 1 83 1 29 1 15-40 15-95c0-56 16-97 71-98 29-1 48 16 59 35 1-10 0-23 2-32h30zM94-22c36 0 50-32 50-73 0-42-14-75-50-75-39 0-46 34-46 75s6 73 46 73" id="aT"/><path fill="#19967d" d="M114-163C36-179 61-72 57 0H25l-1-190h30c1 12-1 29 2 39 6-27 23-49 58-41v29" id="aU"/><g id="J"><use transform="matrix(0.08641975308641976,0,0,0.08641975308641976,0,0)" xlink:href="#aQ"/><use transform="matrix(0.08641975308641976,0,0,0.08641975308641976,17.283950617283953,0)" xlink:href="#aR"/><use transform="matrix(0.08641975308641976,0,0,0.08641975308641976,34.567901234567906,0)" xlink:href="#aS"/><use transform="matrix(0.08641975308641976,0,0,0.08641975308641976,51.851851851851855,0)" xlink:href="#aT"/><use transform="matrix(0.08641975308641976,0,0,0.08641975308641976,69.13580246913581,0)" xlink:href="#aR"/><use transform="matrix(0.08641975308641976,0,0,0.08641975308641976,86.41975308641976,0)" xlink:href="#aU"/></g><path fill="#19967d" d="M185-189c-5-48-123-54-124 2 14 75 158 14 163 119 3 78-121 87-175 55-17-10-28-26-33-46l33-7c5 56 141 63 141-1 0-78-155-14-162-118-5-82 145-84 179-34 5 7 8 16 11 25" id="aV"/><path fill="#19967d" d="M179-190L93 31C79 59 56 82 12 73V49c39 6 53-20 64-50L1-190h34L92-34l54-156h33" id="aW"/><path fill="#19967d" d="M96-169c-40 0-48 33-48 73s9 75 48 75c24 0 41-14 43-38l32 2c-6 37-31 61-74 61-59 0-76-41-82-99-10-93 101-131 147-64 4 7 5 14 7 22l-32 3c-4-21-16-35-41-35" id="aX"/><path fill="#19967d" d="M106-169C34-169 62-67 57 0H25v-261h32l-1 103c12-21 28-36 61-36 89 0 53 116 60 194h-32v-121c2-32-8-49-39-48" id="aY"/><path fill="#19967d" d="M9 0v-24l116-142H16v-24h144v24L44-24h123V0H9" id="aZ"/><path fill="#19967d" d="M59-47c-2 24 18 29 38 22v24C64 9 27 4 27-40v-127H5v-23h24l9-43h21v43h35v23H59v120" id="ba"/><g id="K"><use transform="matrix(0.08641975308641976,0,0,0.08641975308641976,0,0)" xlink:href="#aV"/><use transform="matrix(0.08641975308641976,0,0,0.08641975308641976,20.740740740740744,0)" xlink:href="#aW"/><use transform="matrix(0.08641975308641976,0,0,0.08641975308641976,36.296296296296305,0)" xlink:href="#aL"/><use transform="matrix(0.08641975308641976,0,0,0.08641975308641976,53.580246913580254,0)" xlink:href="#aX"/><use transform="matrix(0.08641975308641976,0,0,0.08641975308641976,69.13580246913581,0)" xlink:href="#aY"/><use transform="matrix(0.08641975308641976,0,0,0.08641975308641976,86.41975308641976,0)" xlink:href="#aU"/><use transform="matrix(0.08641975308641976,0,0,0.08641975308641976,96.70370370370371,0)" xlink:href="#aH"/><use transform="matrix(0.08641975308641976,0,0,0.08641975308641976,113.98765432098767,0)" xlink:href="#aL"/><use transform="matrix(0.08641975308641976,0,0,0.08641975308641976,131.27160493827162,0)" xlink:href="#aK"/><use transform="matrix(0.08641975308641976,0,0,0.08641975308641976,138.0987654320988,0)" xlink:href="#aZ"/><use transform="matrix(0.08641975308641976,0,0,0.08641975308641976,153.65432098765433,0)" xlink:href="#aJ"/><use transform="matrix(0.08641975308641976,0,0,0.08641975308641976,170.93827160493828,0)" xlink:href="#ba"/><use transform="matrix(0.08641975308641976,0,0,0.08641975308641976,179.58024691358025,0)" xlink:href="#aK"/><use transform="matrix(0.08641975308641976,0,0,0.08641975308641976,186.40740740740742,0)" xlink:href="#aH"/><use transform="matrix(0.08641975308641976,0,0,0.08641975308641976,203.69135802469137,0)" xlink:href="#aL"/></g><path fill="#19967d" d="M108 0H70L1-190h34L89-25l56-165h34" id="bb"/><g id="L"><use transform="matrix(0.08641975308641976,0,0,0.08641975308641976,0,0)" xlink:href="#aV"/><use transform="matrix(0.08641975308641976,0,0,0.08641975308641976,20.740740740740744,0)" xlink:href="#aR"/><use transform="matrix(0.08641975308641976,0,0,0.08641975308641976,38.0246913580247,0)" xlink:href="#aU"/><use transform="matrix(0.08641975308641976,0,0,0.08641975308641976,48.308641975308646,0)" xlink:href="#bb"/><use transform="matrix(0.08641975308641976,0,0,0.08641975308641976,63.8641975308642,0)" xlink:href="#aK"/><use transform="matrix(0.08641975308641976,0,0,0.08641975308641976,70.69135802469137,0)" xlink:href="#aX"/><use transform="matrix(0.08641975308641976,0,0,0.08641975308641976,86.24691358024693,0)" xlink:href="#aR"/></g><g id="M"><use transform="matrix(0.06172839506172839,0,0,0.06172839506172839,0,0)" xlink:href="#az"/><use transform="matrix(0.06172839506172839,0,0,0.06172839506172839,14.814814814814813,0)" xlink:href="#X"/><use transform="matrix(0.06172839506172839,0,0,0.06172839506172839,27.160493827160494,0)" xlink:href="#ac"/><use transform="matrix(0.06172839506172839,0,0,0.06172839506172839,34.50617283950617,0)" xlink:href="#aj"/><use transform="matrix(0.06172839506172839,0,0,0.06172839506172839,45.61728395061728,0)" xlink:href="#af"/><use transform="matrix(0.06172839506172839,0,0,0.06172839506172839,50.49382716049382,0)" xlink:href="#aj"/><use transform="matrix(0.06172839506172839,0,0,0.06172839506172839,61.60493827160494,0)" xlink:href="#ag"/><use transform="matrix(0.06172839506172839,0,0,0.06172839506172839,67.77777777777777,0)" xlink:href="#X"/><use transform="matrix(0.06172839506172839,0,0,0.06172839506172839,80.12345679012346,0)" xlink:href="#aa"/><use transform="matrix(0.06172839506172839,0,0,0.06172839506172839,92.46913580246914,0)" xlink:href="#ab"/><use transform="matrix(0.06172839506172839,0,0,0.06172839506172839,103.58024691358025,0)" xlink:href="#X"/></g><g id="N"><use transform="matrix(0.06172839506172839,0,0,0.06172839506172839,0,0)" xlink:href="#W"/><use transform="matrix(0.06172839506172839,0,0,0.06172839506172839,14.814814814814813,0)" xlink:href="#X"/><use transform="matrix(0.06172839506172839,0,0,0.06172839506172839,27.160493827160494,0)" xlink:href="#ac"/><use transform="matrix(0.06172839506172839,0,0,0.06172839506172839,34.50617283950617,0)" xlink:href="#aD"/><use transform="matrix(0.06172839506172839,0,0,0.06172839506172839,45.61728395061728,0)" xlink:href="#af"/><use transform="matrix(0.06172839506172839,0,0,0.06172839506172839,50.49382716049382,0)" xlink:href="#ab"/><use transform="matrix(0.06172839506172839,0,0,0.06172839506172839,61.60493827160494,0)" xlink:href="#X"/></g><g id="O"><use transform="matrix(0.05,0,0,0.05,0,0)" xlink:href="#an"/><use transform="matrix(0.05,0,0,0.05,12.950000000000001,0)" xlink:href="#X"/><use transform="matrix(0.05,0,0,0.05,22.950000000000003,0)" xlink:href="#ai"/><use transform="matrix(0.05,0,0,0.05,32.95,0)" xlink:href="#aq"/></g><use transform="matrix(0.05,0,0,0.05,0,0)" xlink:href="#au" id="P"/><path d="M266 0h-40l-56-210L115 0H75L2-248h35L96-30l15-64 43-154h32l59 218 59-218h35" id="bc"/><g id="Q"><use transform="matrix(0.05,0,0,0.05,0,0)" xlink:href="#bc"/><use transform="matrix(0.05,0,0,0.05,16.599999999999998,0)" xlink:href="#ac"/><use transform="matrix(0.05,0,0,0.05,22.549999999999997,0)" xlink:href="#af"/><use transform="matrix(0.05,0,0,0.05,26.499999999999996,0)" xlink:href="#ag"/><use transform="matrix(0.05,0,0,0.05,31.499999999999996,0)" xlink:href="#X"/></g><path d="M30-248c118-7 216 8 213 122C240-48 200 0 122 0H30v-248zM63-27c89 8 146-16 146-99s-60-101-146-95v194" id="bd"/><g id="R"><use transform="matrix(0.06172839506172839,0,0,0.06172839506172839,0,0)" xlink:href="#bd"/><use transform="matrix(0.06172839506172839,0,0,0.06172839506172839,15.987654320987653,0)" xlink:href="#ax"/><use transform="matrix(0.06172839506172839,0,0,0.06172839506172839,30.80246913580247,0)" xlink:href="#av"/><use transform="matrix(0.06172839506172839,0,0,0.06172839506172839,49.25925925925925,0)" xlink:href="#aE"/><use transform="matrix(0.06172839506172839,0,0,0.06172839506172839,61.60493827160493,0)" xlink:href="#X"/></g><g id="S"><use transform="matrix(0.05,0,0,0.05,0,0)" xlink:href="#aD"/><use transform="matrix(0.05,0,0,0.05,9,0)" xlink:href="#ai"/><use transform="matrix(0.05,0,0,0.05,19,0)" xlink:href="#ae"/><use transform="matrix(0.05,0,0,0.05,22.95,0)" xlink:href="#af"/><use transform="matrix(0.05,0,0,0.05,26.899999999999995,0)" xlink:href="#aq"/><use transform="matrix(0.05,0,0,0.05,36.9,0)" xlink:href="#ai"/><use transform="matrix(0.05,0,0,0.05,46.9,0)" xlink:href="#ag"/><use transform="matrix(0.05,0,0,0.05,51.900000000000006,0)" xlink:href="#X"/></g><g id="T"><use transform="matrix(0.05,0,0,0.05,0,0)" xlink:href="#ac"/><use transform="matrix(0.05,0,0,0.05,5.95,0)" xlink:href="#X"/><use transform="matrix(0.05,0,0,0.05,15.949999999999998,0)" xlink:href="#Y"/><use transform="matrix(0.05,0,0,0.05,25.950000000000003,0)" xlink:href="#Z"/><use transform="matrix(0.05,0,0,0.05,35.95,0)" xlink:href="#X"/><use transform="matrix(0.05,0,0,0.05,45.95,0)" xlink:href="#aj"/><use transform="matrix(0.05,0,0,0.05,54.95,0)" xlink:href="#ag"/></g><g id="U"><use transform="matrix(0.05,0,0,0.05,0,0)" xlink:href="#az"/><use transform="matrix(0.05,0,0,0.05,12,0)" xlink:href="#aA"/><use transform="matrix(0.05,0,0,0.05,24,0)" xlink:href="#ar"/></g><g id="V"><use transform="matrix(0.05,0,0,0.05,0,0)" xlink:href="#af"/><use transform="matrix(0.05,0,0,0.05,3.95,0)" xlink:href="#aa"/><use transform="matrix(0.05,0,0,0.05,13.949999999999998,0)" xlink:href="#al"/><use transform="matrix(0.05,0,0,0.05,18.95,0)" xlink:href="#ak"/></g></defs></g></svg>