<svg xmlns="http://www.w3.org/2000/svg" xmlns:xlink="http://www.w3.org/1999/xlink" xmlns:lucid="lucid" width="751" height="580"><g transform="translate(-289 -180)" lucid:page-tab-id="0_0"><g class="lucid-layer" lucid:layer-id="113fdJLtAJss" display="block"><path d="M603.9 200h357.77v527.68H603.9z" stroke="#000" stroke-opacity="0" stroke-width="2" fill="#e5e5e5"/><path d="M786.67 683.13H1020V740H786.67z" stroke="#000" stroke-opacity="0" stroke-width="2" fill="#fff" fill-opacity="0"/><use xlink:href="#a" transform="matrix(1,0,0,1,791.6666666666666,688.1345125462772) translate(76.55 27.1)"/></g><g class="lucid-layer" lucid:layer-id="823flnZceBc0" display="block"><path d="M474.78 337.4c0 31.7-25.7 57.38-57.4 57.38S360 369.08 360 337.38 385.7 280 417.4 280s57.38 25.7 57.38 57.4z" stroke="#000" stroke-width="2" fill="#fff"/><use xlink:href="#b" transform="matrix(1,0,0,1,364.9990500207497,285.00000000000006) translate(12.049999999999997 56.1)"/><path d="M801 412.17c0 31.7-25.7 57.4-57.4 57.4s-57.38-25.7-57.38-57.4 25.7-57.4 57.4-57.4c31.68 0 57.38 25.7 57.38 57.4z" stroke="#000" stroke-width="2" fill="#fff"/><use xlink:href="#c" transform="matrix(1,0,0,1,691.2164413250975,359.7826086956522) translate(4.524999999999999 56.1)"/><path d="M800 662.6c0 31.7-25.7 57.4-57.4 57.4s-57.38-25.7-57.38-57.4 25.7-57.38 57.4-57.38c31.68 0 57.38 25.7 57.38 57.4z" stroke="#000" stroke-width="2" fill="#fff"/><use xlink:href="#d" transform="matrix(1,0,0,1,690.2164413250974,610.2173913043478) translate(10.599999999999994 45.3)"/><use xlink:href="#e" transform="matrix(1,0,0,1,690.2164413250974,610.2173913043478) translate(7.524999999999999 66.9)"/><path d="M513.04 500c0 31.7-25.7 57.4-57.4 57.4s-57.38-25.7-57.38-57.4 25.7-57.4 57.4-57.4 57.38 25.7 57.38 57.4z" stroke="#000" stroke-width="2" fill="#fff"/><use xlink:href="#f" transform="matrix(1,0,0,1,403.2599195859671,447.60869565217394) translate(15 56.1)"/><path d="M800.78 537.4c0 31.7-25.7 57.38-57.4 57.38S686 569.08 686 537.38 711.7 480 743.4 480s57.38 25.7 57.38 57.4z" stroke="#000" stroke-width="2" fill="#fff"/><use xlink:href="#g" transform="matrix(1,0,0,1,690.9990500207497,484.99999999999994) translate(12.899999999999999 56.1)"/><use xlink:href="#h" transform="matrix(1,0,0,1,690.9990500207497,484.99999999999994) translate(67.1 56.1)"/><path d="M476.6 337.98l206.6 151.65" stroke="#000" stroke-width="2" fill="none"/><path d="M477.2 337.2l-1.18 1.6-.3-.2.06-1.2v-.18l-.05-1.1z"/><path d="M695.5 498.66l-14.25-4.7 5.5-7.48z" stroke="#000" stroke-width="2"/><path d="M418.03 396.55l25.76 30.86" stroke="#000" stroke-width="2" fill="none"/><path d="M417.37 395.78h.2l1.08-.05.17.2-1.54 1.28-1.24-1.48z"/><path d="M453.58 439.12l-12.7-7.98 7.1-5.94z" stroke="#000" stroke-width="2"/><path d="M476.72 337.73l191.07 68.22" stroke="#000" stroke-width="2" fill="none"/><path d="M477.08 336.8l-.67 1.88-.66-.24.04-1.03v-.18l-.04-.9z"/><path d="M682.17 411.1l-15-.45 3.12-8.73z" stroke="#000" stroke-width="2"/><path d="M476.4 338.17l215.37 266.85" stroke="#000" stroke-width="2" fill="none"/><path d="M477.2 337.56l-1.48 1.2.06-1.35v-.18l-.07-1.5z"/><path d="M701.36 616.9l-12.57-8.2 7.2-5.8z" stroke="#000" stroke-width="2"/><path d="M801 284.4c0 31.7-25.7 57.38-57.4 57.38s-57.38-25.7-57.38-57.4 25.7-57.38 57.4-57.38c31.68 0 57.38 25.7 57.38 57.4z" stroke="#000" stroke-width="2" fill="#fff"/><use xlink:href="#i" transform="matrix(1,0,0,1,691.2164413250975,232) translate(21.599999999999994 45.3)"/><use xlink:href="#j" transform="matrix(1,0,0,1,691.2164413250975,232) translate(18.549999999999997 66.9)"/><path d="M476.75 337.15l190.53-48.22" stroke="#000" stroke-width="2" fill="none"/><path d="M477.02 338.1l-1.28.33.04-1.02v-.18l-.04-.85.8-.2z"/><path d="M682.08 285.2l-12.7 7.98-2.27-9z" stroke="#000" stroke-width="2"/><path d="M301 340.02l43.83.92M301.03 340.02L300 340" stroke="#000" stroke-width="2" fill="none"/><path d="M360.1 341.27l-14.36 4.33.2-9.27z" stroke="#000" stroke-width="2"/></g><defs><path d="M233-177c-1 41-23 64-60 70L243 0h-38l-65-103H63V0H30v-248c88 3 205-21 203 71zM63-129c60-2 137 13 137-47 0-61-80-42-137-45v92" id="k"/><path d="M100-194c63 0 86 42 84 106H49c0 40 14 67 53 68 26 1 43-12 49-29l28 8c-11 28-37 45-77 45C44 4 14-33 15-96c1-61 26-98 85-98zm52 81c6-60-76-77-97-28-3 7-6 17-6 28h103" id="l"/><path d="M24-231v-30h32v30H24zM-9 49c24 4 33-6 33-30v-209h32V24c2 40-23 58-65 49V49" id="m"/><path d="M96-169c-40 0-48 33-48 73s9 75 48 75c24 0 41-14 43-38l32 2c-6 37-31 61-74 61-59 0-76-41-82-99-10-93 101-131 147-64 4 7 5 14 7 22l-32 3c-4-21-16-35-41-35" id="n"/><path d="M59-47c-2 24 18 29 38 22v24C64 9 27 4 27-40v-127H5v-23h24l9-43h21v43h35v23H59v120" id="o"/><path d="M85-194c31 0 48 13 60 33l-1-100h32l1 261h-30c-2-10 0-23-3-31C134-8 116 4 85 4 32 4 16-35 15-94c0-66 23-100 70-100zm9 24c-40 0-46 34-46 75 0 40 6 74 45 74 42 0 51-32 51-76 0-42-9-74-50-73" id="p"/><g id="a"><use transform="matrix(0.05,0,0,0.05,0,0)" xlink:href="#k"/><use transform="matrix(0.05,0,0,0.05,12.950000000000001,0)" xlink:href="#l"/><use transform="matrix(0.05,0,0,0.05,22.950000000000003,0)" xlink:href="#m"/><use transform="matrix(0.05,0,0,0.05,26.900000000000002,0)" xlink:href="#l"/><use transform="matrix(0.05,0,0,0.05,36.900000000000006,0)" xlink:href="#n"/><use transform="matrix(0.05,0,0,0.05,45.900000000000006,0)" xlink:href="#o"/><use transform="matrix(0.05,0,0,0.05,50.900000000000006,0)" xlink:href="#l"/><use transform="matrix(0.05,0,0,0.05,60.900000000000006,0)" xlink:href="#p"/></g><path d="M185-189c-5-48-123-54-124 2 14 75 158 14 163 119 3 78-121 87-175 55-17-10-28-26-33-46l33-7c5 56 141 63 141-1 0-78-155-14-162-118-5-82 145-84 179-34 5 7 8 16 11 25" id="q"/><path d="M84 4C-5 8 30-112 23-190h32v120c0 31 7 50 39 49 72-2 45-101 50-169h31l1 190h-30c-1-10 1-25-2-33-11 22-28 36-60 37" id="r"/><path d="M115-194c53 0 69 39 70 98 0 66-23 100-70 100C84 3 66-7 56-30L54 0H23l1-261h32v101c10-23 28-34 59-34zm-8 174c40 0 45-34 45-75 0-40-5-75-45-74-42 0-51 32-51 76 0 43 10 73 51 73" id="s"/><path d="M210-169c-67 3-38 105-44 169h-31v-121c0-29-5-50-35-48C34-165 62-65 56 0H25l-1-190h30c1 10-1 24 2 32 10-44 99-50 107 0 11-21 27-35 58-36 85-2 47 119 55 194h-31v-121c0-29-5-49-35-48" id="t"/><path d="M24-231v-30h32v30H24zM24 0v-190h32V0H24" id="u"/><g id="b"><use transform="matrix(0.05,0,0,0.05,0,0)" xlink:href="#q"/><use transform="matrix(0.05,0,0,0.05,12,0)" xlink:href="#r"/><use transform="matrix(0.05,0,0,0.05,22,0)" xlink:href="#s"/><use transform="matrix(0.05,0,0,0.05,32,0)" xlink:href="#t"/><use transform="matrix(0.05,0,0,0.05,46.95,0)" xlink:href="#u"/><use transform="matrix(0.05,0,0,0.05,50.900000000000006,0)" xlink:href="#o"/><use transform="matrix(0.05,0,0,0.05,55.900000000000006,0)" xlink:href="#o"/><use transform="matrix(0.05,0,0,0.05,60.900000000000006,0)" xlink:href="#l"/><use transform="matrix(0.05,0,0,0.05,70.9,0)" xlink:href="#p"/></g><path d="M33 0v-248h34V0H33" id="v"/><path d="M117-194c89-4 53 116 60 194h-32v-121c0-31-8-49-39-48C34-167 62-67 57 0H25l-1-190h30c1 10-1 24 2 32 11-22 29-35 61-36" id="w"/><path d="M100-194c62-1 85 37 85 99 1 63-27 99-86 99S16-35 15-95c0-66 28-99 85-99zM99-20c44 1 53-31 53-75 0-43-8-75-51-75s-53 32-53 75 10 74 51 75" id="x"/><path d="M135-143c-3-34-86-38-87 0 15 53 115 12 119 90S17 21 10-45l28-5c4 36 97 45 98 0-10-56-113-15-118-90-4-57 82-63 122-42 12 7 21 19 24 35" id="y"/><g id="c"><use transform="matrix(0.05,0,0,0.05,0,0)" xlink:href="#v"/><use transform="matrix(0.05,0,0,0.05,5,0)" xlink:href="#w"/><use transform="matrix(0.05,0,0,0.05,15,0)" xlink:href="#n"/><use transform="matrix(0.05,0,0,0.05,24,0)" xlink:href="#x"/><use transform="matrix(0.05,0,0,0.05,34,0)" xlink:href="#w"/><use transform="matrix(0.05,0,0,0.05,44,0)" xlink:href="#y"/><use transform="matrix(0.05,0,0,0.05,53,0)" xlink:href="#u"/><use transform="matrix(0.05,0,0,0.05,56.95,0)" xlink:href="#y"/><use transform="matrix(0.05,0,0,0.05,65.95,0)" xlink:href="#o"/><use transform="matrix(0.05,0,0,0.05,70.95,0)" xlink:href="#l"/><use transform="matrix(0.05,0,0,0.05,80.95,0)" xlink:href="#w"/><use transform="matrix(0.05,0,0,0.05,90.95,0)" xlink:href="#o"/></g><path d="M212-179c-10-28-35-45-73-45-59 0-87 40-87 99 0 60 29 101 89 101 43 0 62-24 78-52l27 14C228-24 195 4 139 4 59 4 22-46 18-125c-6-104 99-153 187-111 19 9 31 26 39 46" id="z"/><path d="M101-234c-31-9-42 10-38 44h38v23H63V0H32v-167H5v-23h27c-7-52 17-82 69-68v24" id="A"/><path d="M24 0v-261h32V0H24" id="B"/><path d="M177-190C167-65 218 103 67 71c-23-6-38-20-44-43l32-5c15 47 100 32 89-28v-30C133-14 115 1 83 1 29 1 15-40 15-95c0-56 16-97 71-98 29-1 48 16 59 35 1-10 0-23 2-32h30zM94-22c36 0 50-32 50-73 0-42-14-75-50-75-39 0-46 34-46 75s6 73 46 73" id="C"/><g id="d"><use transform="matrix(0.05,0,0,0.05,0,0)" xlink:href="#z"/><use transform="matrix(0.05,0,0,0.05,12.950000000000001,0)" xlink:href="#x"/><use transform="matrix(0.05,0,0,0.05,22.950000000000003,0)" xlink:href="#w"/><use transform="matrix(0.05,0,0,0.05,32.95,0)" xlink:href="#A"/><use transform="matrix(0.05,0,0,0.05,37.95,0)" xlink:href="#B"/><use transform="matrix(0.05,0,0,0.05,41.900000000000006,0)" xlink:href="#u"/><use transform="matrix(0.05,0,0,0.05,45.85000000000001,0)" xlink:href="#n"/><use transform="matrix(0.05,0,0,0.05,54.85,0)" xlink:href="#o"/><use transform="matrix(0.05,0,0,0.05,59.85,0)" xlink:href="#u"/><use transform="matrix(0.05,0,0,0.05,63.80000000000001,0)" xlink:href="#w"/><use transform="matrix(0.05,0,0,0.05,73.80000000000001,0)" xlink:href="#C"/></g><path d="M115-194c55 1 70 41 70 98S169 2 115 4C84 4 66-9 55-30l1 105H24l-1-265h31l2 30c10-21 28-34 59-34zm-8 174c40 0 45-34 45-75s-6-73-45-74c-42 0-51 32-51 76 0 43 10 73 51 73" id="D"/><g id="e"><use transform="matrix(0.05,0,0,0.05,0,0)" xlink:href="#k"/><use transform="matrix(0.05,0,0,0.05,12.950000000000001,0)" xlink:href="#l"/><use transform="matrix(0.05,0,0,0.05,22.950000000000003,0)" xlink:href="#y"/><use transform="matrix(0.05,0,0,0.05,31.950000000000003,0)" xlink:href="#D"/><use transform="matrix(0.05,0,0,0.05,41.95,0)" xlink:href="#x"/><use transform="matrix(0.05,0,0,0.05,51.95,0)" xlink:href="#w"/><use transform="matrix(0.05,0,0,0.05,61.95,0)" xlink:href="#y"/><use transform="matrix(0.05,0,0,0.05,70.95,0)" xlink:href="#l"/><use transform="matrix(0.05,0,0,0.05,80.95,0)" xlink:href="#y"/></g><path d="M205 0l-28-72H64L36 0H1l101-248h38L239 0h-34zm-38-99l-47-123c-12 45-31 82-46 123h93" id="E"/><g id="f"><use transform="matrix(0.05,0,0,0.05,0,0)" xlink:href="#E"/><use transform="matrix(0.05,0,0,0.05,12,0)" xlink:href="#n"/><use transform="matrix(0.05,0,0,0.05,21,0)" xlink:href="#n"/><use transform="matrix(0.05,0,0,0.05,30,0)" xlink:href="#l"/><use transform="matrix(0.05,0,0,0.05,40,0)" xlink:href="#D"/><use transform="matrix(0.05,0,0,0.05,50,0)" xlink:href="#o"/><use transform="matrix(0.05,0,0,0.05,55,0)" xlink:href="#l"/><use transform="matrix(0.05,0,0,0.05,65,0)" xlink:href="#p"/></g><path d="M127-220V0H93v-220H8v-28h204v28h-85" id="F"/><g id="g"><use transform="matrix(0.05,0,0,0.05,0,0)" xlink:href="#F"/><use transform="matrix(0.05,0,0,0.05,10.3,0)" xlink:href="#u"/><use transform="matrix(0.05,0,0,0.05,14.25,0)" xlink:href="#t"/><use transform="matrix(0.05,0,0,0.05,29.200000000000003,0)" xlink:href="#l"/><use transform="matrix(0.05,0,0,0.05,39.2,0)" xlink:href="#p"/></g><g id="h"><use transform="matrix(0.05,0,0,0.05,0,0)" xlink:href="#x"/><use transform="matrix(0.05,0,0,0.05,10,0)" xlink:href="#r"/><use transform="matrix(0.05,0,0,0.05,20,0)" xlink:href="#o"/></g><path d="M240 0l2-218c-23 76-54 145-80 218h-23L58-218 59 0H30v-248h44l77 211c21-75 51-140 76-211h43V0h-30" id="G"/><g id="i"><use transform="matrix(0.05,0,0,0.05,0,0)" xlink:href="#G"/><use transform="matrix(0.05,0,0,0.05,14.950000000000001,0)" xlink:href="#r"/><use transform="matrix(0.05,0,0,0.05,24.950000000000003,0)" xlink:href="#B"/><use transform="matrix(0.05,0,0,0.05,28.900000000000002,0)" xlink:href="#o"/><use transform="matrix(0.05,0,0,0.05,33.900000000000006,0)" xlink:href="#u"/><use transform="matrix(0.05,0,0,0.05,37.85000000000001,0)" xlink:href="#D"/><use transform="matrix(0.05,0,0,0.05,47.85000000000001,0)" xlink:href="#B"/><use transform="matrix(0.05,0,0,0.05,51.80000000000001,0)" xlink:href="#l"/></g><path d="M141-36C126-15 110 5 73 4 37 3 15-17 15-53c-1-64 63-63 125-63 3-35-9-54-41-54-24 1-41 7-42 31l-33-3c5-37 33-52 76-52 45 0 72 20 72 64v82c-1 20 7 32 28 27v20c-31 9-61-2-59-35zM48-53c0 20 12 33 32 33 41-3 63-29 60-74-43 2-92-5-92 41" id="H"/><g id="j"><use transform="matrix(0.05,0,0,0.05,0,0)" xlink:href="#p"/><use transform="matrix(0.05,0,0,0.05,10,0)" xlink:href="#x"/><use transform="matrix(0.05,0,0,0.05,20,0)" xlink:href="#t"/><use transform="matrix(0.05,0,0,0.05,34.95,0)" xlink:href="#H"/><use transform="matrix(0.05,0,0,0.05,44.95,0)" xlink:href="#u"/><use transform="matrix(0.05,0,0,0.05,48.900000000000006,0)" xlink:href="#w"/><use transform="matrix(0.05,0,0,0.05,58.900000000000006,0)" xlink:href="#y"/></g></defs></g></svg>