<svg xmlns="http://www.w3.org/2000/svg" xmlns:xlink="http://www.w3.org/1999/xlink" xmlns:lucid="lucid" width="506.22" height="340.67"><g transform="translate(7072.357142857143 -2685.4572078746805)" lucid:page-tab-id="0_0"><path d="M-7051.86 2711.96a6 6 0 0 1 6-6h131.1a6 6 0 0 1 6 6v181.87a6 6 0 0 1-6 6h-131.1a6 6 0 0 1-6-6z" stroke="#3a414a" fill="#fff"/><use xlink:href="#a" transform="matrix(1,0,0,1,-7039.857142857143,2717.9572078746805) translate(7.6234567901234485 17.77777777777778)"/><use xlink:href="#b" transform="matrix(1,0,0,1,-7039.857142857143,2717.9572078746805) translate(52.592592592592595 44.44444444444444)"/><path d="M-7034.42 2809.4a6 6 0 0 1 6-6h34.02a6 6 0 0 1 6 6v13.97a6 6 0 0 1-6 6h-34.02a6 6 0 0 1-6-6z" stroke="#000" fill="#fff" fill-opacity="0"/><use xlink:href="#c" transform="matrix(1,0,0,1,-7029.420387758755,2808.39543962884) translate(-1.172839506172835 14.222222222222221)"/><path d="M-6988.4 2809.4a6 6 0 0 1 6-6h60.6a6 6 0 0 1 6 6v13.97a6 6 0 0 1-6 6h-60.6a6 6 0 0 1-6-6z" stroke="#000" fill="#fff" fill-opacity="0"/><use xlink:href="#d" transform="matrix(1,0,0,1,-6983.396578234946,2808.39543962884) translate(1.8641975308642031 14.222222222222221)"/><use xlink:href="#e" transform="matrix(1,0,0,1,-6983.396578234946,2808.39543962884) translate(26.506172839506178 14.222222222222221)"/><path d="M-7034.42 2783.42a6 6 0 0 1 6-6h34.02a6 6 0 0 1 6 6v13.97a6 6 0 0 1-6 6h-34.02a6 6 0 0 1-6-6z" stroke="#000" fill="#fff" fill-opacity="0"/><use xlink:href="#f" transform="matrix(1,0,0,1,-7029.420387758755,2782.4238347945375) translate(-2.5061728395061635 14.222222222222221)"/><path d="M-6988.4 2783.42a6 6 0 0 1 6-6h60.6a6 6 0 0 1 6 6v13.97a6 6 0 0 1-6 6h-60.6a6 6 0 0 1-6-6z" stroke="#000" fill="#fff" fill-opacity="0"/><use xlink:href="#g" transform="matrix(1,0,0,1,-6983.396578234946,2782.4238347945375) translate(48.18518518518519 14.222222222222221)"/><path d="M-7034.42 2835.37a6 6 0 0 1 6-6h34.02a6 6 0 0 1 6 6v13.97a6 6 0 0 1-6 6h-34.02a6 6 0 0 1-6-6z" stroke="#000" fill="#fff" fill-opacity="0"/><use xlink:href="#h" transform="matrix(1,0,0,1,-7029.420387758755,2834.3670444631434) translate(-2.5061728395061635 14.222222222222221)"/><path d="M-6988.4 2835.37a6 6 0 0 1 6-6h60.6a6 6 0 0 1 6 6v13.97a6 6 0 0 1-6 6h-60.6a6 6 0 0 1-6-6z" stroke="#000" fill="#fff" fill-opacity="0"/><use xlink:href="#g" transform="matrix(1,0,0,1,-6983.396578234946,2834.3670444631434) translate(48.18518518518519 14.222222222222221)"/><path d="M-7034.42 2862.26a6 6 0 0 1 6-6h34.02a6 6 0 0 1 6 6v13.97a6 6 0 0 1-6 6h-34.02a6 6 0 0 1-6-6z" stroke="#000" fill="#fff" fill-opacity="0"/><use xlink:href="#i" transform="matrix(1,0,0,1,-7029.420387758755,2861.2556449879894) translate(-2.5061728395061635 14.222222222222221)"/><path d="M-6988.4 2862.26a6 6 0 0 1 6-6h60.6a6 6 0 0 1 6 6v13.97a6 6 0 0 1-6 6h-60.6a6 6 0 0 1-6-6z" stroke="#000" fill="#fff" fill-opacity="0"/><use xlink:href="#j" transform="matrix(1,0,0,1,-6983.396578234946,2861.2556449879894) translate(3.8395061728395135 14.222222222222221)"/><use xlink:href="#k" transform="matrix(1,0,0,1,-6983.396578234946,2861.2556449879894) translate(31.44444444444445 14.222222222222221)"/><path d="M-6741.74 2711.96a6 6 0 0 1 6-6h143.1a6 6 0 0 1 6 6v213.07a6 6 0 0 1-6 6h-143.1a6 6 0 0 1-6-6z" stroke="#3a414a" fill="#fff"/><use xlink:href="#l" transform="matrix(1,0,0,1,-6729.7418710102675,2717.9572078746805) translate(3.129629629629626 17.77777777777778)"/><use xlink:href="#m" transform="matrix(1,0,0,1,-6729.7418710102675,2717.9572078746805) translate(114.05555555555557 17.77777777777778)"/><path d="M-6724.25 2783.3a6 6 0 0 1 6-6h36.73a6 6 0 0 1 6 6v13.98a6 6 0 0 1-6 6h-36.73a6 6 0 0 1-6-6z" stroke="#000" fill="#fff" fill-opacity="0"/><use xlink:href="#f" transform="matrix(1,0,0,1,-6719.248301810848,2782.312898176254) translate(-0.5061728395061635 14.222222222222221)"/><path d="M-6675.52 2783.3a6 6 0 0 1 6-6h64.88a6 6 0 0 1 6 6v13.98a6 6 0 0 1-6 6h-64.88a6 6 0 0 1-6-6z" stroke="#000" fill="#fff" fill-opacity="0"/><use xlink:href="#d" transform="matrix(1,0,0,1,-6670.5155063441325,2782.312898176254) translate(5.864197530864203 14.222222222222221)"/><use xlink:href="#e" transform="matrix(1,0,0,1,-6670.5155063441325,2782.312898176254) translate(30.506172839506178 14.222222222222221)"/><path d="M-6724.25 2757.34a6 6 0 0 1 6-6h36.73a6 6 0 0 1 6 6v13.97a6 6 0 0 1-6 6h-36.73a6 6 0 0 1-6-6z" stroke="#000" fill="#fff" fill-opacity="0"/><use xlink:href="#n" transform="matrix(1,0,0,1,-6719.248301810848,2756.3412933419518) translate(-0.5061728395061635 14.222222222222221)"/><path d="M-6675.52 2757.34a6 6 0 0 1 6-6h64.88a6 6 0 0 1 6 6v13.97a6 6 0 0 1-6 6h-64.88a6 6 0 0 1-6-6z" stroke="#000" fill="#fff" fill-opacity="0"/><use xlink:href="#g" transform="matrix(1,0,0,1,-6670.5155063441325,2756.3412933419518) translate(52.18518518518519 14.222222222222221)"/><path d="M-6724.25 2809.28a6 6 0 0 1 6-6h36.73a6 6 0 0 1 6 6v13.98a6 6 0 0 1-6 6h-36.73a6 6 0 0 1-6-6z" stroke="#000" fill="#fff" fill-opacity="0"/><use xlink:href="#c" transform="matrix(1,0,0,1,-6719.248301810848,2808.2845030105577) translate(0.827160493827165 14.222222222222221)"/><path d="M-6675.52 2809.28a6 6 0 0 1 6-6h64.88a6 6 0 0 1 6 6v13.98a6 6 0 0 1-6 6h-64.88a6 6 0 0 1-6-6z" stroke="#000" fill="#fff" fill-opacity="0"/><use xlink:href="#d" transform="matrix(1,0,0,1,-6670.5155063441325,2808.2845030105577) translate(6.901234567901241 14.222222222222221)"/><use xlink:href="#o" transform="matrix(1,0,0,1,-6670.5155063441325,2808.2845030105577) translate(31.543209876543216 14.222222222222221)"/><path d="M-6724.25 2836.28a6 6 0 0 1 6-6h36.73a6 6 0 0 1 6 6v13.98a6 6 0 0 1-6 6h-36.73a6 6 0 0 1-6-6z" stroke="#000" fill="#fff" fill-opacity="0"/><use xlink:href="#h" transform="matrix(1,0,0,1,-6719.248301810848,2835.2840401536855) translate(-0.5061728395061635 14.222222222222221)"/><path d="M-6675.52 2836.28a6 6 0 0 1 6-6h64.88a6 6 0 0 1 6 6v13.98a6 6 0 0 1-6 6h-64.88a6 6 0 0 1-6-6z" stroke="#000" fill="#fff" fill-opacity="0"/><use xlink:href="#d" transform="matrix(1,0,0,1,-6670.5155063441325,2835.2840401536855) translate(11.740740740740748 14.222222222222221)"/><use xlink:href="#p" transform="matrix(1,0,0,1,-6670.5155063441325,2835.2840401536855) translate(36.38271604938272 14.222222222222221)"/><path d="M-6724.25 2862.26a6 6 0 0 1 6-6h36.73a6 6 0 0 1 6 6v13.97a6 6 0 0 1-6 6h-36.73a6 6 0 0 1-6-6z" stroke="#000" fill="#fff" fill-opacity="0"/><use xlink:href="#i" transform="matrix(1,0,0,1,-6719.248301810848,2861.255644987989) translate(-0.5061728395061635 14.222222222222221)"/><path d="M-6675.52 2862.26a6 6 0 0 1 6-6h64.88a6 6 0 0 1 6 6v13.97a6 6 0 0 1-6 6h-64.88a6 6 0 0 1-6-6z" stroke="#000" fill="#fff" fill-opacity="0"/><use xlink:href="#d" transform="matrix(1,0,0,1,-6670.5155063441325,2861.255644987989) translate(0 14.222222222222221)"/><use xlink:href="#q" transform="matrix(1,0,0,1,-6670.5155063441325,2861.255644987989) translate(24.641975308641975 14.222222222222221)"/><path d="M-6724.25 2888.9a6 6 0 0 1 6-6h36.73a6 6 0 0 1 6 6v13.98a6 6 0 0 1-6 6h-36.73a6 6 0 0 1-6-6z" stroke="#000" fill="#fff" fill-opacity="0"/><use xlink:href="#r" transform="matrix(1,0,0,1,-6719.248301810848,2887.910643600574) translate(-0.5061728395061635 14.222222222222221)"/><path d="M-6675.52 2888.9a6 6 0 0 1 6-6h64.88a6 6 0 0 1 6 6v13.98a6 6 0 0 1-6 6h-64.88a6 6 0 0 1-6-6z" stroke="#000" fill="#fff" fill-opacity="0"/><use xlink:href="#d" transform="matrix(1,0,0,1,-6670.5155063441325,2887.910643600574) translate(0 14.222222222222221)"/><use xlink:href="#s" transform="matrix(1,0,0,1,-6670.5155063441325,2887.910643600574) translate(24.641975308641975 14.222222222222221)"/><path d="M-6878.78 2946.63a6 6 0 0 1 6-6h91.96a6 6 0 0 1 6 6v53a6 6 0 0 1-6 6h-91.96a6 6 0 0 1-6-6z" stroke="#3a414a" fill="#fff"/><g><use xlink:href="#t" transform="matrix(1,0,0,1,-6866.777421808863,2952.6264646644277) translate(12.222222222222225 17.77777777777778)"/><use xlink:href="#u" transform="matrix(1,0,0,1,-6866.777421808863,2952.6264646644277) translate(18.395061728395063 17.77777777777778)"/><use xlink:href="#v" transform="matrix(1,0,0,1,-6866.777421808863,2952.6264646644277) translate(1.8209876543209873 44.44444444444444)"/></g><path d="M-6908 2803.32l80.95 136.38" stroke="#000" fill="none"/><path d="M-6907.56 2803.08l-.7.4v-1.57zM-6826.22 2940.13h-1.16l-.1-.2.85-.5z" stroke="#000" stroke-width=".05"/><path d="M-6742.53 2818.9l-83.98 120.82" stroke="#000" fill="none"/><path d="M-6742.24 2819.12l-.7-.5.7-1zM-6826.1 2940l-.1.13h-1.2l.48-.7z" stroke="#000" stroke-width=".05"/><defs><path fill="#3a414a" d="M30-248c87 1 191-15 191 75 0 78-77 80-158 76V0H30v-248zm33 125c57 0 124 11 124-50 0-59-68-47-124-48v98" id="w"/><path fill="#3a414a" d="M141-36C126-15 110 5 73 4 37 3 15-17 15-53c-1-64 63-63 125-63 3-35-9-54-41-54-24 1-41 7-42 31l-33-3c5-37 33-52 76-52 45 0 72 20 72 64v82c-1 20 7 32 28 27v20c-31 9-61-2-59-35zM48-53c0 20 12 33 32 33 41-3 63-29 60-74-43 2-92-5-92 41" id="x"/><path fill="#3a414a" d="M114-163C36-179 61-72 57 0H25l-1-190h30c1 12-1 29 2 39 6-27 23-49 58-41v29" id="y"/><path fill="#3a414a" d="M59-47c-2 24 18 29 38 22v24C64 9 27 4 27-40v-127H5v-23h24l9-43h21v43h35v23H59v120" id="z"/><path fill="#3a414a" d="M24-231v-30h32v30H24zM24 0v-190h32V0H24" id="A"/><path fill="#3a414a" d="M96-169c-40 0-48 33-48 73s9 75 48 75c24 0 41-14 43-38l32 2c-6 37-31 61-74 61-59 0-76-41-82-99-10-93 101-131 147-64 4 7 5 14 7 22l-32 3c-4-21-16-35-41-35" id="B"/><path fill="#3a414a" d="M115-194c55 1 70 41 70 98S169 2 115 4C84 4 66-9 55-30l1 105H24l-1-265h31l2 30c10-21 28-34 59-34zm-8 174c40 0 45-34 45-75s-6-73-45-74c-42 0-51 32-51 76 0 43 10 73 51 73" id="C"/><path fill="#3a414a" d="M117-194c89-4 53 116 60 194h-32v-121c0-31-8-49-39-48C34-167 62-67 57 0H25l-1-190h30c1 10-1 24 2 32 11-22 29-35 61-36" id="D"/><g id="a"><use transform="matrix(0.06172839506172839,0,0,0.06172839506172839,0,0)" xlink:href="#w"/><use transform="matrix(0.06172839506172839,0,0,0.06172839506172839,14.814814814814813,0)" xlink:href="#x"/><use transform="matrix(0.06172839506172839,0,0,0.06172839506172839,27.160493827160494,0)" xlink:href="#y"/><use transform="matrix(0.06172839506172839,0,0,0.06172839506172839,34.50617283950617,0)" xlink:href="#z"/><use transform="matrix(0.06172839506172839,0,0,0.06172839506172839,40.67901234567901,0)" xlink:href="#A"/><use transform="matrix(0.06172839506172839,0,0,0.06172839506172839,45.55555555555556,0)" xlink:href="#B"/><use transform="matrix(0.06172839506172839,0,0,0.06172839506172839,56.66666666666667,0)" xlink:href="#A"/><use transform="matrix(0.06172839506172839,0,0,0.06172839506172839,61.543209876543216,0)" xlink:href="#C"/><use transform="matrix(0.06172839506172839,0,0,0.06172839506172839,73.8888888888889,0)" xlink:href="#x"/><use transform="matrix(0.06172839506172839,0,0,0.06172839506172839,86.23456790123458,0)" xlink:href="#D"/><use transform="matrix(0.06172839506172839,0,0,0.06172839506172839,98.58024691358027,0)" xlink:href="#z"/></g><path fill="#3a414a" d="M205 0l-28-72H64L36 0H1l101-248h38L239 0h-34zm-38-99l-47-123c-12 45-31 82-46 123h93" id="E"/><use transform="matrix(0.06172839506172839,0,0,0.06172839506172839,0,0)" xlink:href="#E" id="b"/><path d="M158-156l-14 65h45v19h-49L124 0h-19l15-72H56L41 0H22l15-72H2v-19h39l14-65H11v-19h48l15-71h20l-16 71h64l16-71h19l-16 71h37v19h-40zm-83 0L61-91h63l14-65H75" id="F"/><path d="M101-251c68 0 85 55 85 127S166 4 100 4C33 4 14-52 14-124c0-73 17-127 87-127zm-1 229c47 0 54-49 54-102s-4-102-53-102c-51 0-55 48-55 102 0 53 5 102 54 102" id="G"/><path d="M27 0v-27h64v-190l-56 39v-29l58-41h29v221h61V0H27" id="H"/><g id="c"><use transform="matrix(0.049382716049382706,0,0,0.049382716049382706,0,0)" xlink:href="#F"/><use transform="matrix(0.049382716049382706,0,0,0.049382716049382706,9.87654320987654,0)" xlink:href="#G"/><use transform="matrix(0.049382716049382706,0,0,0.049382716049382706,19.75308641975308,0)" xlink:href="#H"/><use transform="matrix(0.049382716049382706,0,0,0.049382716049382706,28.29629629629629,0)" xlink:href="#H"/></g><path d="M127-220V0H93v-220H8v-28h204v28h-85" id="I"/><path d="M141 0L90-78 38 0H4l68-98-65-92h35l48 74 47-74h35l-64 92 68 98h-35" id="J"/><g id="d"><use transform="matrix(0.049382716049382706,0,0,0.049382716049382706,0,0)" xlink:href="#I"/><use transform="matrix(0.049382716049382706,0,0,0.049382716049382706,10.814814814814813,0)" xlink:href="#J"/></g><path d="M205 0l-28-72H64L36 0H1l101-248h38L239 0h-34zm-38-99l-47-123c-12 45-31 82-46 123h93" id="K"/><path d="M160-131c35 5 61 23 61 61C221 17 115-2 30 0v-248c76 3 177-17 177 60 0 33-19 50-47 57zm-97-11c50-1 110 9 110-42 0-47-63-36-110-37v79zm0 115c55-2 124 14 124-45 0-56-70-42-124-44v89" id="L"/><path d="M212-179c-10-28-35-45-73-45-59 0-87 40-87 99 0 60 29 101 89 101 43 0 62-24 78-52l27 14C228-24 195 4 139 4 59 4 22-46 18-125c-6-104 99-153 187-111 19 9 31 26 39 46" id="M"/><g id="e"><use transform="matrix(0.049382716049382706,0,0,0.049382716049382706,0,0)" xlink:href="#K"/><use transform="matrix(0.049382716049382706,0,0,0.049382716049382706,11.85185185185185,0)" xlink:href="#L"/><use transform="matrix(0.049382716049382706,0,0,0.049382716049382706,23.7037037037037,0)" xlink:href="#M"/></g><g id="f"><use transform="matrix(0.049382716049382706,0,0,0.049382716049382706,0,0)" xlink:href="#F"/><use transform="matrix(0.049382716049382706,0,0,0.049382716049382706,9.87654320987654,0)" xlink:href="#G"/><use transform="matrix(0.049382716049382706,0,0,0.049382716049382706,19.75308641975308,0)" xlink:href="#H"/><use transform="matrix(0.049382716049382706,0,0,0.049382716049382706,29.629629629629623,0)" xlink:href="#G"/></g><path d="M33 0v-38h34V0H33" id="N"/><g id="g"><use transform="matrix(0.049382716049382706,0,0,0.049382716049382706,0,0)" xlink:href="#N"/><use transform="matrix(0.049382716049382706,0,0,0.049382716049382706,4.93827160493827,0)" xlink:href="#N"/><use transform="matrix(0.049382716049382706,0,0,0.049382716049382706,9.87654320987654,0)" xlink:href="#N"/></g><path d="M101-251c82-7 93 87 43 132L82-64C71-53 59-42 53-27h129V0H18c2-99 128-94 128-182 0-28-16-43-45-43s-46 15-49 41l-32-3c6-41 34-60 81-64" id="O"/><g id="h"><use transform="matrix(0.049382716049382706,0,0,0.049382716049382706,0,0)" xlink:href="#F"/><use transform="matrix(0.049382716049382706,0,0,0.049382716049382706,9.87654320987654,0)" xlink:href="#G"/><use transform="matrix(0.049382716049382706,0,0,0.049382716049382706,19.75308641975308,0)" xlink:href="#H"/><use transform="matrix(0.049382716049382706,0,0,0.049382716049382706,29.629629629629623,0)" xlink:href="#O"/></g><path d="M126-127c33 6 58 20 58 59 0 88-139 92-164 29-3-8-5-16-6-25l32-3c6 27 21 44 54 44 32 0 52-15 52-46 0-38-36-46-79-43v-28c39 1 72-4 72-42 0-27-17-43-46-43-28 0-47 15-49 41l-32-3c6-42 35-63 81-64 48-1 79 21 79 65 0 36-21 52-52 59" id="P"/><g id="i"><use transform="matrix(0.049382716049382706,0,0,0.049382716049382706,0,0)" xlink:href="#F"/><use transform="matrix(0.049382716049382706,0,0,0.049382716049382706,9.87654320987654,0)" xlink:href="#G"/><use transform="matrix(0.049382716049382706,0,0,0.049382716049382706,19.75308641975308,0)" xlink:href="#H"/><use transform="matrix(0.049382716049382706,0,0,0.049382716049382706,29.629629629629623,0)" xlink:href="#P"/></g><path d="M195 0l-74-108L45 0H8l94-129-87-119h37l69 98 67-98h37l-84 118L233 0h-38" id="Q"/><g id="j"><use transform="matrix(0.049382716049382706,0,0,0.049382716049382706,0,0)" xlink:href="#I"/><use transform="matrix(0.049382716049382706,0,0,0.049382716049382706,10.814814814814813,0)" xlink:href="#Q"/></g><path d="M143 4C61 4 22-44 18-125c-5-107 100-154 193-111 17 8 29 25 37 43l-32 9c-13-25-37-40-76-40-61 0-88 39-88 99 0 61 29 100 91 101 35 0 62-11 79-27v-45h-74v-28h105v86C228-13 192 4 143 4" id="R"/><path d="M197 0v-115H63V0H30v-248h33v105h134v-105h34V0h-34" id="S"/><path d="M33 0v-248h34V0H33" id="T"/><g id="k"><use transform="matrix(0.049382716049382706,0,0,0.049382716049382706,0,0)" xlink:href="#R"/><use transform="matrix(0.049382716049382706,0,0,0.049382716049382706,13.827160493827158,0)" xlink:href="#S"/><use transform="matrix(0.049382716049382706,0,0,0.049382716049382706,26.617283950617278,0)" xlink:href="#T"/></g><g id="l"><use transform="matrix(0.06172839506172839,0,0,0.06172839506172839,0,0)" xlink:href="#w"/><use transform="matrix(0.06172839506172839,0,0,0.06172839506172839,14.814814814814813,0)" xlink:href="#x"/><use transform="matrix(0.06172839506172839,0,0,0.06172839506172839,27.160493827160494,0)" xlink:href="#y"/><use transform="matrix(0.06172839506172839,0,0,0.06172839506172839,34.50617283950617,0)" xlink:href="#z"/><use transform="matrix(0.06172839506172839,0,0,0.06172839506172839,40.67901234567901,0)" xlink:href="#A"/><use transform="matrix(0.06172839506172839,0,0,0.06172839506172839,45.55555555555556,0)" xlink:href="#B"/><use transform="matrix(0.06172839506172839,0,0,0.06172839506172839,56.66666666666667,0)" xlink:href="#A"/><use transform="matrix(0.06172839506172839,0,0,0.06172839506172839,61.543209876543216,0)" xlink:href="#C"/><use transform="matrix(0.06172839506172839,0,0,0.06172839506172839,73.8888888888889,0)" xlink:href="#x"/><use transform="matrix(0.06172839506172839,0,0,0.06172839506172839,86.23456790123458,0)" xlink:href="#D"/><use transform="matrix(0.06172839506172839,0,0,0.06172839506172839,98.58024691358027,0)" xlink:href="#z"/></g><path fill="#3a414a" d="M160-131c35 5 61 23 61 61C221 17 115-2 30 0v-248c76 3 177-17 177 60 0 33-19 50-47 57zm-97-11c50-1 110 9 110-42 0-47-63-36-110-37v79zm0 115c55-2 124 14 124-45 0-56-70-42-124-44v89" id="U"/><use transform="matrix(0.06172839506172839,0,0,0.06172839506172839,0,0)" xlink:href="#U" id="m"/><path d="M99-251c64 0 84 50 84 122C183-37 130 33 47-8c-14-7-20-23-25-40l30-5c6 39 69 39 84 7 9-19 16-44 16-74-10 22-31 35-62 35-49 0-73-33-73-83 0-54 28-83 82-83zm-1 141c31-1 51-18 51-49 0-36-14-67-51-67-34 0-49 23-49 58 0 34 15 58 49 58" id="V"/><g id="n"><use transform="matrix(0.049382716049382706,0,0,0.049382716049382706,0,0)" xlink:href="#F"/><use transform="matrix(0.049382716049382706,0,0,0.049382716049382706,9.87654320987654,0)" xlink:href="#G"/><use transform="matrix(0.049382716049382706,0,0,0.049382716049382706,19.75308641975308,0)" xlink:href="#G"/><use transform="matrix(0.049382716049382706,0,0,0.049382716049382706,29.629629629629623,0)" xlink:href="#V"/></g><path d="M30-248c118-7 216 8 213 122C240-48 200 0 122 0H30v-248zM63-27c89 8 146-16 146-99s-60-101-146-95v194" id="W"/><path d="M30 0v-248h187v28H63v79h144v27H63v87h162V0H30" id="X"/><path d="M63-220v92h138v28H63V0H30v-248h175v28H63" id="Y"/><g id="o"><use transform="matrix(0.049382716049382706,0,0,0.049382716049382706,0,0)" xlink:href="#W"/><use transform="matrix(0.049382716049382706,0,0,0.049382716049382706,12.790123456790122,0)" xlink:href="#X"/><use transform="matrix(0.049382716049382706,0,0,0.049382716049382706,24.64197530864197,0)" xlink:href="#Y"/></g><path d="M153-248C145-148 188 4 80 4 36 3 13-21 6-62l32-5c4 25 16 42 43 43 27 0 39-20 39-49v-147H72v-28h81" id="Z"/><path d="M194 0L95-120 63-95V0H30v-248h33v124l119-124h40L117-140 236 0h-42" id="aa"/><path d="M30 0v-248h33v221h125V0H30" id="ab"/><g id="p"><use transform="matrix(0.049382716049382706,0,0,0.049382716049382706,0,0)" xlink:href="#Z"/><use transform="matrix(0.049382716049382706,0,0,0.049382716049382706,8.888888888888888,0)" xlink:href="#aa"/><use transform="matrix(0.049382716049382706,0,0,0.049382716049382706,20.740740740740737,0)" xlink:href="#ab"/></g><path d="M240 0l2-218c-23 76-54 145-80 218h-23L58-218 59 0H30v-248h44l77 211c21-75 51-140 76-211h43V0h-30" id="ac"/><path d="M190 0L58-211 59 0H30v-248h39L202-35l-2-213h31V0h-41" id="ad"/><path d="M140-251c81 0 123 46 123 126C263-46 219 4 140 4 59 4 17-45 17-125s42-126 123-126zm0 227c63 0 89-41 89-101s-29-99-89-99c-61 0-89 39-89 99S79-25 140-24" id="ae"/><g id="q"><use transform="matrix(0.049382716049382706,0,0,0.049382716049382706,0,0)" xlink:href="#ac"/><use transform="matrix(0.049382716049382706,0,0,0.049382716049382706,14.765432098765428,0)" xlink:href="#ad"/><use transform="matrix(0.049382716049382706,0,0,0.049382716049382706,27.55555555555555,0)" xlink:href="#ae"/></g><path d="M155-56V0h-30v-56H8v-25l114-167h33v167h35v25h-35zm-30-156c-27 46-58 90-88 131h88v-131" id="af"/><g id="r"><use transform="matrix(0.049382716049382706,0,0,0.049382716049382706,0,0)" xlink:href="#F"/><use transform="matrix(0.049382716049382706,0,0,0.049382716049382706,9.87654320987654,0)" xlink:href="#G"/><use transform="matrix(0.049382716049382706,0,0,0.049382716049382706,19.75308641975308,0)" xlink:href="#H"/><use transform="matrix(0.049382716049382706,0,0,0.049382716049382706,29.629629629629623,0)" xlink:href="#af"/></g><path d="M30-248c87 1 191-15 191 75 0 78-77 80-158 76V0H30v-248zm33 125c57 0 124 11 124-50 0-59-68-47-124-48v98" id="ag"/><path d="M140-251c81 0 123 46 123 126C263-53 228-8 163 1c7 30 30 48 69 40v23c-55 16-95-15-103-61C56-3 17-48 17-125c0-80 42-126 123-126zm0 227c63 0 89-41 89-101s-29-99-89-99c-61 0-89 39-89 99S79-25 140-24" id="ah"/><path d="M233-177c-1 41-23 64-60 70L243 0h-38l-65-103H63V0H30v-248c88 3 205-21 203 71zM63-129c60-2 137 13 137-47 0-61-80-42-137-45v92" id="ai"/><g id="s"><use transform="matrix(0.049382716049382706,0,0,0.049382716049382706,0,0)" xlink:href="#ag"/><use transform="matrix(0.049382716049382706,0,0,0.049382716049382706,11.85185185185185,0)" xlink:href="#ah"/><use transform="matrix(0.049382716049382706,0,0,0.049382716049382706,25.679012345679006,0)" xlink:href="#ai"/></g><path fill="#3a414a" d="M185-189c-5-48-123-54-124 2 14 75 158 14 163 119 3 78-121 87-175 55-17-10-28-26-33-46l33-7c5 56 141 63 141-1 0-78-155-14-162-118-5-82 145-84 179-34 5 7 8 16 11 25" id="aj"/><path fill="#3a414a" d="M179-190L93 31C79 59 56 82 12 73V49c39 6 53-20 64-50L1-190h34L92-34l54-156h33" id="ak"/><g id="u"><use transform="matrix(0.06172839506172839,0,0,0.06172839506172839,0,0)" xlink:href="#aj"/><use transform="matrix(0.06172839506172839,0,0,0.06172839506172839,14.814814814814813,0)" xlink:href="#ak"/><use transform="matrix(0.06172839506172839,0,0,0.06172839506172839,25.925925925925924,0)" xlink:href="#D"/><use transform="matrix(0.06172839506172839,0,0,0.06172839506172839,38.2716049382716,0)" xlink:href="#B"/></g><path fill="#3a414a" d="M30-248c118-7 216 8 213 122C240-48 200 0 122 0H30v-248zM63-27c89 8 146-16 146-99s-60-101-146-95v194" id="al"/><path fill="#3a414a" d="M100-194c62-1 85 37 85 99 1 63-27 99-86 99S16-35 15-95c0-66 28-99 85-99zM99-20c44 1 53-31 53-75 0-43-8-75-51-75s-53 32-53 75 10 74 51 75" id="am"/><path fill="#3a414a" d="M210-169c-67 3-38 105-44 169h-31v-121c0-29-5-50-35-48C34-165 62-65 56 0H25l-1-190h30c1 10-1 24 2 32 10-44 99-50 107 0 11-21 27-35 58-36 85-2 47 119 55 194h-31v-121c0-29-5-49-35-48" id="an"/><g id="v"><use transform="matrix(0.06172839506172839,0,0,0.06172839506172839,0,0)" xlink:href="#al"/><use transform="matrix(0.06172839506172839,0,0,0.06172839506172839,15.987654320987653,0)" xlink:href="#am"/><use transform="matrix(0.06172839506172839,0,0,0.06172839506172839,28.333333333333332,0)" xlink:href="#an"/><use transform="matrix(0.06172839506172839,0,0,0.06172839506172839,46.79012345679012,0)" xlink:href="#x"/><use transform="matrix(0.06172839506172839,0,0,0.06172839506172839,59.1358024691358,0)" xlink:href="#A"/><use transform="matrix(0.06172839506172839,0,0,0.06172839506172839,64.01234567901234,0)" xlink:href="#D"/></g></defs></g></svg>